<svg xmlns="http://www.w3.org/2000/svg" xmlns:xlink="http://www.w3.org/1999/xlink" contentStyleType="text/css" data-diagram-type="CLASS" height="264px" preserveAspectRatio="none" style="width:2097px;height:264px;background:#FFFFFF;" version="1.1" viewBox="0 0 2097 264" width="2097px" zoomAndPan="magnify"><title>Diagrama de clases - Subsistema de C&#225;mara</title><defs/><g><g class="title" data-source-line="1"><text fill="#000000" font-family="sans-serif" font-size="14" font-weight="bold" lengthAdjust="spacing" textLength="350.9365" x="866.0317" y="22.9951">Diagrama de clases - Subsistema de C&#225;mara</text></g><!--cluster camera--><g class="cluster" data-qualified-name="camera" data-source-line="3" id="ent0002"><path d="M8.5,117.2969 L67.6807,117.2969 A3.75,3.75 0 0 1 70.1807,119.7969 L77.1807,139.5938 L2087.5,139.5938 A2.5,2.5 0 0 1 2090,142.0938 L2090,254.6569 A2.5,2.5 0 0 1 2087.5,257.1569 L8.5,257.1569 A2.5,2.5 0 0 1 6,254.6569 L6,119.7969 A2.5,2.5 0 0 1 8.5,117.2969" fill="none" style="stroke:#000000;stroke-width:1.5;"/><line style="stroke:#000000;stroke-width:1.5;" x1="6" x2="77.1807" y1="139.5938" y2="139.5938"/><text fill="#000000" font-family="sans-serif" font-size="14" font-weight="bold" lengthAdjust="spacing" textLength="58.1807" x="10" y="132.292">camera</text></g><!--class CameraJS--><g class="entity" data-qualified-name="camera.CameraJS" data-source-line="5" id="ent0003"><rect fill="#F1F1F1" height="72.5625" rx="2.5" ry="2.5" style="stroke:#181818;stroke-width:0.5;" width="172.1113" x="21.94" y="160.4469"/><ellipse cx="69.7676" cy="180.5797" fill="#ADD1B2" rx="11" ry="11" style="stroke:#181818;stroke-width:1;"/><path d="M72.7364,186.2203 Q72.1583,186.5172 71.5176,186.6578 Q70.877,186.8141 70.1739,186.8141 Q67.6739,186.8141 66.3458,185.1734 Q65.0333,183.5172 65.0333,180.3922 Q65.0333,177.2672 66.3458,175.6109 Q67.6739,173.9547 70.1739,173.9547 Q70.877,173.9547 71.5176,174.1109 Q72.1739,174.2672 72.7364,174.5641 L72.7364,177.2828 Q72.1114,176.7047 71.5176,176.4391 Q70.9239,176.1578 70.2989,176.1578 Q68.9551,176.1578 68.2676,177.2359 Q67.5801,178.2984 67.5801,180.3922 Q67.5801,182.4859 68.2676,183.5641 Q68.9551,184.6266 70.2989,184.6266 Q70.9239,184.6266 71.5176,184.3609 Q72.1114,184.0797 72.7364,183.5016 L72.7364,186.2203 Z " fill="#000000"/><text fill="#000000" font-family="sans-serif" font-size="12" font-style="italic" lengthAdjust="spacing" textLength="59.6543" x="94.4185" y="176.5855">&#171;module&#187;</text><text fill="#000000" font-family="sans-serif" font-size="14" lengthAdjust="spacing" textLength="67.9561" x="90.2676" y="192.4107">CameraJS</text><line style="stroke:#181818;stroke-width:0.5;" x1="22.94" x2="193.0513" y1="200.7125" y2="200.7125"/><line style="stroke:#181818;stroke-width:0.5;" x1="22.94" x2="193.0513" y1="208.7125" y2="208.7125"/><g data-visibility-modifier="PUBLIC_METHOD"><ellipse cx="32.94" cy="222.3609" fill="#84BE84" rx="3" ry="3" style="stroke:#038048;stroke-width:1;"/></g><text fill="#000000" font-family="sans-serif" font-size="14" lengthAdjust="spacing" textLength="146.1113" x="41.94" y="225.7076">setupCamera(scene)</text></g><!--class CameraState--><g class="entity" data-qualified-name="camera.CameraState" data-source-line="9" id="ent0004"><rect fill="#F1F1F1" height="88.8594" rx="2.5" ry="2.5" style="stroke:#181818;stroke-width:0.5;" width="231.8711" x="229.06" y="152.2969"/><ellipse cx="294.7465" cy="172.4297" fill="#ADD1B2" rx="11" ry="11" style="stroke:#181818;stroke-width:1;"/><path d="M297.7153,178.0703 Q297.1371,178.3672 296.4965,178.5078 Q295.8559,178.6641 295.1528,178.6641 Q292.6528,178.6641 291.3246,177.0234 Q290.0121,175.3672 290.0121,172.2422 Q290.0121,169.1172 291.3246,167.4609 Q292.6528,165.8047 295.1528,165.8047 Q295.8559,165.8047 296.4965,165.9609 Q297.1528,166.1172 297.7153,166.4141 L297.7153,169.1328 Q297.0903,168.5547 296.4965,168.2891 Q295.9028,168.0078 295.2778,168.0078 Q293.934,168.0078 293.2465,169.0859 Q292.559,170.1484 292.559,172.2422 Q292.559,174.3359 293.2465,175.4141 Q293.934,176.4766 295.2778,176.4766 Q295.9028,176.4766 296.4965,176.2109 Q297.0903,175.9297 297.7153,175.3516 L297.7153,178.0703 Z " fill="#000000"/><text fill="#000000" font-family="sans-serif" font-size="12" font-style="italic" lengthAdjust="spacing" textLength="59.6543" x="331.4184" y="168.4355">&#171;module&#187;</text><text fill="#000000" font-family="sans-serif" font-size="14" lengthAdjust="spacing" textLength="91.998" x="315.2465" y="184.2607">CameraState</text><line style="stroke:#181818;stroke-width:0.5;" x1="230.06" x2="459.9311" y1="192.5625" y2="192.5625"/><line style="stroke:#181818;stroke-width:0.5;" x1="230.06" x2="459.9311" y1="200.5625" y2="200.5625"/><g data-visibility-modifier="PUBLIC_METHOD"><ellipse cx="240.06" cy="214.2109" fill="#84BE84" rx="3" ry="3" style="stroke:#038048;stroke-width:1;"/></g><text fill="#000000" font-family="sans-serif" font-size="14" lengthAdjust="spacing" textLength="188.5557" x="249.06" y="217.5576">saveCameraState(camera)</text><g data-visibility-modifier="PUBLIC_METHOD"><ellipse cx="240.06" cy="230.5078" fill="#84BE84" rx="3" ry="3" style="stroke:#038048;stroke-width:1;"/></g><text fill="#000000" font-family="sans-serif" font-size="14" lengthAdjust="spacing" textLength="205.8711" x="249.06" y="233.8545">restoreCameraState(camera)</text></g><!--class Controls--><g class="entity" data-qualified-name="camera.Controls" data-source-line="14" id="ent0005"><rect fill="#F1F1F1" height="88.8594" rx="2.5" ry="2.5" style="stroke:#181818;stroke-width:0.5;" width="229.9434" x="496.03" y="152.2969"/><ellipse cx="577.6477" cy="172.4297" fill="#ADD1B2" rx="11" ry="11" style="stroke:#181818;stroke-width:1;"/><path d="M580.6164,178.0703 Q580.0383,178.3672 579.3977,178.5078 Q578.7571,178.6641 578.0539,178.6641 Q575.5539,178.6641 574.2258,177.0234 Q572.9133,175.3672 572.9133,172.2422 Q572.9133,169.1172 574.2258,167.4609 Q575.5539,165.8047 578.0539,165.8047 Q578.7571,165.8047 579.3977,165.9609 Q580.0539,166.1172 580.6164,166.4141 L580.6164,169.1328 Q579.9914,168.5547 579.3977,168.2891 Q578.8039,168.0078 578.1789,168.0078 Q576.8352,168.0078 576.1477,169.0859 Q575.4602,170.1484 575.4602,172.2422 Q575.4602,174.3359 576.1477,175.4141 Q576.8352,176.4766 578.1789,176.4766 Q578.8039,176.4766 579.3977,176.2109 Q579.9914,175.9297 580.6164,175.3516 L580.6164,178.0703 Z " fill="#000000"/><text fill="#000000" font-family="sans-serif" font-size="12" font-style="italic" lengthAdjust="spacing" textLength="59.6543" x="597.4245" y="168.4355">&#171;module&#187;</text><text fill="#000000" font-family="sans-serif" font-size="14" lengthAdjust="spacing" textLength="58.208" x="598.1477" y="184.2607">Controls</text><line style="stroke:#181818;stroke-width:0.5;" x1="497.03" x2="724.9734" y1="192.5625" y2="192.5625"/><line style="stroke:#181818;stroke-width:0.5;" x1="497.03" x2="724.9734" y1="200.5625" y2="200.5625"/><g data-visibility-modifier="PUBLIC_METHOD"><ellipse cx="507.03" cy="214.2109" fill="#84BE84" rx="3" ry="3" style="stroke:#038048;stroke-width:1;"/></g><text fill="#000000" font-family="sans-serif" font-size="14" lengthAdjust="spacing" textLength="201.3594" x="516.03" y="217.5576">enableUserControls(camera)</text><g data-visibility-modifier="PUBLIC_METHOD"><ellipse cx="507.03" cy="230.5078" fill="#84BE84" rx="3" ry="3" style="stroke:#038048;stroke-width:1;"/></g><text fill="#000000" font-family="sans-serif" font-size="14" lengthAdjust="spacing" textLength="203.9434" x="516.03" y="233.8545">disableUserControls(camera)</text></g><!--class IntroAnimation--><g class="entity" data-qualified-name="camera.IntroAnimation" data-source-line="19" id="ent0006"><rect fill="#F1F1F1" height="72.5625" rx="2.5" ry="2.5" style="stroke:#181818;stroke-width:0.5;" width="331.8125" x="761.09" y="160.4469"/><ellipse cx="870.653" cy="180.5797" fill="#ADD1B2" rx="11" ry="11" style="stroke:#181818;stroke-width:1;"/><path d="M873.6217,186.2203 Q873.0436,186.5172 872.403,186.6578 Q871.7624,186.8141 871.0592,186.8141 Q868.5592,186.8141 867.2311,185.1734 Q865.9186,183.5172 865.9186,180.3922 Q865.9186,177.2672 867.2311,175.6109 Q868.5592,173.9547 871.0592,173.9547 Q871.7624,173.9547 872.403,174.1109 Q873.0592,174.2672 873.6217,174.5641 L873.6217,177.2828 Q872.9967,176.7047 872.403,176.4391 Q871.8092,176.1578 871.1842,176.1578 Q869.8405,176.1578 869.153,177.2359 Q868.4655,178.2984 868.4655,180.3922 Q868.4655,182.4859 869.153,183.5641 Q869.8405,184.6266 871.1842,184.6266 Q871.8092,184.6266 872.403,184.3609 Q872.9967,184.0797 873.6217,183.5016 L873.6217,186.2203 Z " fill="#000000"/><text fill="#000000" font-family="sans-serif" font-size="12" font-style="italic" lengthAdjust="spacing" textLength="59.6543" x="913.4191" y="176.5855">&#171;module&#187;</text><text fill="#000000" font-family="sans-serif" font-size="14" lengthAdjust="spacing" textLength="104.1865" x="891.153" y="192.4107">IntroAnimation</text><line style="stroke:#181818;stroke-width:0.5;" x1="762.09" x2="1091.9025" y1="200.7125" y2="200.7125"/><line style="stroke:#181818;stroke-width:0.5;" x1="762.09" x2="1091.9025" y1="208.7125" y2="208.7125"/><g data-visibility-modifier="PUBLIC_METHOD"><ellipse cx="772.09" cy="222.3609" fill="#84BE84" rx="3" ry="3" style="stroke:#038048;stroke-width:1;"/></g><text fill="#000000" font-family="sans-serif" font-size="14" lengthAdjust="spacing" textLength="305.8125" x="781.09" y="225.7076">playIntroAnimation(scene, camera, canvas)</text></g><!--class InspectAnimation--><g class="entity" data-qualified-name="camera.InspectAnimation" data-source-line="23" id="ent0007"><rect fill="#F1F1F1" height="72.5625" rx="2.5" ry="2.5" style="stroke:#181818;stroke-width:0.5;" width="477.0898" x="1127.46" y="160.4469"/><ellipse cx="1300.5767" cy="180.5797" fill="#ADD1B2" rx="11" ry="11" style="stroke:#181818;stroke-width:1;"/><path d="M1303.5454,186.2203 Q1302.9673,186.5172 1302.3267,186.6578 Q1301.6861,186.8141 1300.9829,186.8141 Q1298.4829,186.8141 1297.1548,185.1734 Q1295.8423,183.5172 1295.8423,180.3922 Q1295.8423,177.2672 1297.1548,175.6109 Q1298.4829,173.9547 1300.9829,173.9547 Q1301.6861,173.9547 1302.3267,174.1109 Q1302.9829,174.2672 1303.5454,174.5641 L1303.5454,177.2828 Q1302.9204,176.7047 1302.3267,176.4391 Q1301.7329,176.1578 1301.1079,176.1578 Q1299.7642,176.1578 1299.0767,177.2359 Q1298.3892,178.2984 1298.3892,180.3922 Q1298.3892,182.4859 1299.0767,183.5641 Q1299.7642,184.6266 1301.1079,184.6266 Q1301.7329,184.6266 1302.3267,184.3609 Q1302.9204,184.0797 1303.5454,183.5016 L1303.5454,186.2203 Z " fill="#000000"/><text fill="#000000" font-family="sans-serif" font-size="12" font-style="italic" lengthAdjust="spacing" textLength="59.6543" x="1352.4278" y="176.5855">&#171;module&#187;</text><text fill="#000000" font-family="sans-serif" font-size="14" lengthAdjust="spacing" textLength="122.3564" x="1321.0767" y="192.4107">InspectAnimation</text><line style="stroke:#181818;stroke-width:0.5;" x1="1128.46" x2="1603.5498" y1="200.7125" y2="200.7125"/><line style="stroke:#181818;stroke-width:0.5;" x1="1128.46" x2="1603.5498" y1="208.7125" y2="208.7125"/><g data-visibility-modifier="PUBLIC_METHOD"><ellipse cx="1138.46" cy="222.3609" fill="#84BE84" rx="3" ry="3" style="stroke:#038048;stroke-width:1;"/></g><text fill="#000000" font-family="sans-serif" font-size="14" lengthAdjust="spacing" textLength="451.0898" x="1147.46" y="225.7076">playInspectAnimation(scene, camera, funko, onFinish, {object})</text></g><!--class SwitchCamera--><g class="entity" data-qualified-name="camera.SwitchCamera" data-source-line="27" id="ent0008"><rect fill="#F1F1F1" height="72.5625" rx="2.5" ry="2.5" style="stroke:#181818;stroke-width:0.5;" width="434.4678" x="1639.77" y="160.4469"/><ellipse cx="1802.1406" cy="180.5797" fill="#ADD1B2" rx="11" ry="11" style="stroke:#181818;stroke-width:1;"/><path d="M1805.1094,186.2203 Q1804.5312,186.5172 1803.8906,186.6578 Q1803.25,186.8141 1802.5469,186.8141 Q1800.0469,186.8141 1798.7187,185.1734 Q1797.4062,183.5172 1797.4062,180.3922 Q1797.4062,177.2672 1798.7187,175.6109 Q1800.0469,173.9547 1802.5469,173.9547 Q1803.25,173.9547 1803.8906,174.1109 Q1804.5469,174.2672 1805.1094,174.5641 L1805.1094,177.2828 Q1804.4844,176.7047 1803.8906,176.4391 Q1803.2969,176.1578 1802.6719,176.1578 Q1801.3281,176.1578 1800.6406,177.2359 Q1799.9531,178.2984 1799.9531,180.3922 Q1799.9531,182.4859 1800.6406,183.5641 Q1801.3281,184.6266 1802.6719,184.6266 Q1803.2969,184.6266 1803.8906,184.3609 Q1804.4844,184.0797 1805.1094,183.5016 L1805.1094,186.2203 Z " fill="#000000"/><text fill="#000000" font-family="sans-serif" font-size="12" font-style="italic" lengthAdjust="spacing" textLength="59.6543" x="1843.4267" y="176.5855">&#171;module&#187;</text><text fill="#000000" font-family="sans-serif" font-size="14" lengthAdjust="spacing" textLength="101.2266" x="1822.6406" y="192.4107">SwitchCamera</text><line style="stroke:#181818;stroke-width:0.5;" x1="1640.77" x2="2073.2378" y1="200.7125" y2="200.7125"/><line style="stroke:#181818;stroke-width:0.5;" x1="1640.77" x2="2073.2378" y1="208.7125" y2="208.7125"/><g data-visibility-modifier="PUBLIC_METHOD"><ellipse cx="1650.77" cy="222.3609" fill="#84BE84" rx="3" ry="3" style="stroke:#038048;stroke-width:1;"/></g><text fill="#000000" font-family="sans-serif" font-size="14" lengthAdjust="spacing" textLength="408.4678" x="1659.77" y="225.7076">switchToUniversalCamera(scene, canvas, position, target)</text></g><!--class CreateScene--><g class="entity" data-qualified-name="CreateScene" data-source-line="32" id="ent0009"><rect fill="#F1F1F1" height="48" rx="2.5" ry="2.5" style="stroke:#181818;stroke-width:0.5;" width="121.5098" x="708.25" y="44.2969"/><ellipse cx="723.25" cy="60.2969" fill="#ADD1B2" rx="11" ry="11" style="stroke:#181818;stroke-width:1;"/><path d="M726.2188,65.9375 Q725.6406,66.2344 725,66.375 Q724.3594,66.5313 723.6563,66.5313 Q721.1563,66.5313 719.8281,64.8906 Q718.5156,63.2344 718.5156,60.1094 Q718.5156,56.9844 719.8281,55.3281 Q721.1563,53.6719 723.6563,53.6719 Q724.3594,53.6719 725,53.8281 Q725.6563,53.9844 726.2188,54.2813 L726.2188,57 Q725.5938,56.4219 725,56.1563 Q724.4063,55.875 723.7813,55.875 Q722.4375,55.875 721.75,56.9531 Q721.0625,58.0156 721.0625,60.1094 Q721.0625,62.2031 721.75,63.2813 Q722.4375,64.3438 723.7813,64.3438 Q724.4063,64.3438 725,64.0781 Q725.5938,63.7969 726.2188,63.2188 L726.2188,65.9375 Z " fill="#000000"/><text fill="#000000" font-family="sans-serif" font-size="14" lengthAdjust="spacing" textLength="89.5098" x="737.25" y="65.1436">CreateScene</text><line style="stroke:#181818;stroke-width:0.5;" x1="709.25" x2="828.7598" y1="76.2969" y2="76.2969"/><line style="stroke:#181818;stroke-width:0.5;" x1="709.25" x2="828.7598" y1="84.2969" y2="84.2969"/></g><!--link CreateScene to CameraJS--><g class="link" data-entity-1="ent0009" data-entity-2="ent0003" data-link-type="dependency" data-source-line="32" id="lnk10"><path codeLine="32" d="M708,69.0069 C582.68,69.1769 300.59,73.6469 212,109.2969 C184.56,120.3369 163.212,137.244 144.272,155.834" fill="none" id="CreateScene-to-CameraJS" style="stroke:#181818;stroke-width:1;stroke-dasharray:7,7;"/><polygon fill="#181818" points="139.99,160.0369,149.215,156.5872,143.5584,156.5345,143.6111,150.8779,139.99,160.0369" style="stroke:#181818;stroke-width:1;"/></g><!--link CreateScene to Controls--><g class="link" data-entity-1="ent0009" data-entity-2="ent0005" data-link-type="dependency" data-source-line="33" id="lnk11"><path codeLine="33" d="M739.65,92.7769 C718.95,109.3469 695.2748,128.2882 670.4548,148.1482" fill="none" id="CreateScene-to-Controls" style="stroke:#181818;stroke-width:1;stroke-dasharray:7,7;"/><polygon fill="#181818" points="665.77,151.8969,675.2964,149.3972,669.674,148.773,670.2982,143.1507,665.77,151.8969" style="stroke:#181818;stroke-width:1;"/></g><!--link CreateScene to IntroAnimation--><g class="link" data-entity-1="ent0009" data-entity-2="ent0006" data-link-type="dependency" data-source-line="34" id="lnk12"><path codeLine="34" d="M798.35,92.7769 C822,111.7069 850.9448,134.8687 877.8948,156.4287" fill="none" id="CreateScene-to-IntroAnimation" style="stroke:#181818;stroke-width:1;stroke-dasharray:7,7;"/><polygon fill="#181818" points="882.58,160.1769,878.051,151.4311,878.6757,157.0534,873.0534,157.6781,882.58,160.1769" style="stroke:#181818;stroke-width:1;"/></g><!--link CreateScene to InspectAnimation--><g class="link" data-entity-1="ent0009" data-entity-2="ent0007" data-link-type="dependency" data-source-line="35" id="lnk13"><path codeLine="35" d="M830.01,72.6069 C898.74,77.2169 1013.46,87.5869 1110,109.2969 C1166.06,121.9069 1221.458,140.1679 1269.858,157.9479" fill="none" id="CreateScene-to-InspectAnimation" style="stroke:#181818;stroke-width:1;stroke-dasharray:7,7;"/><polygon fill="#181818" points="1275.49,160.0169,1268.4213,153.1588,1270.7967,158.2928,1265.6627,160.6681,1275.49,160.0169" style="stroke:#181818;stroke-width:1;"/></g><!--link CreateScene to SwitchCamera--><g class="link" data-entity-1="ent0009" data-entity-2="ent0008" data-link-type="dependency" data-source-line="36" id="lnk14"><path codeLine="36" d="M830.25,69.7469 C999.4,71.3769 1470.43,78.6269 1622,109.2969 C1675.79,120.1769 1728.1406,139.0415 1773.0006,157.7115" fill="none" id="CreateScene-to-SwitchCamera" style="stroke:#181818;stroke-width:1;stroke-dasharray:7,7;"/><polygon fill="#181818" points="1778.54,160.0169,1771.7678,152.8658,1773.9238,158.0957,1768.6939,160.2517,1778.54,160.0169" style="stroke:#181818;stroke-width:1;"/></g><!--link CreateScene to CameraState--><g class="link" data-entity-1="ent0009" data-entity-2="ent0004" data-link-type="dependency" data-source-line="37" id="lnk15"><path codeLine="37" d="M708,70.0869 C648,72.6069 554.65,81.2569 479,109.2969 C451.49,119.4969 428.7149,132.6541 405.6949,148.5741" fill="none" id="CreateScene-to-CameraState" style="stroke:#181818;stroke-width:1;stroke-dasharray:7,7;"/><polygon fill="#181818" points="400.76,151.9869,410.4375,150.1576,404.8724,149.1429,405.8871,143.5778,400.76,151.9869" style="stroke:#181818;stroke-width:1;"/></g><!--SRC=[ZP9HReCm38RVEON5Kwkndg12cfWcTQ-i1p3WqQmXGR5XcgeUPcVPnGQabQ3GQNc9vF-pVyUEAD44pmfBXnL2GP1hP69uXBJ9MB6G3oS_tnKw388QyoEM166E5JaCuHG4C6GnXCaGUqr3s6uhMpIQuhW3e3iFJDBK7bXnJeRMNVmyIqu5XHRpiQKHilB-QoywOh7kZZuniKQSrRpaG0OpJNicTwMc9eNYFu2nowvNduogK9GrIrwrngyfvOSIWQ_OtwP5dbVccdBvH-qfTrlzlJ576u4rByeeFaHmijb7bt2-DKm_bUI7vBBiXRKC-flT6zMIOzJZ5LzV4K5jMVLzH23eIX9lqnabZhfjfJqDcqqCroyq5ouZdmdJCIx8qqdCWF4BxxGp_AXV]--></g></svg>