<svg xmlns="http://www.w3.org/2000/svg" xmlns:xlink="http://www.w3.org/1999/xlink" contentStyleType="text/css" data-diagram-type="CLASS" height="272px" preserveAspectRatio="none" style="width:1374px;height:272px;background:#FFFFFF;" version="1.1" viewBox="0 0 1374 272" width="1374px" zoomAndPan="magnify"><title>Diagrama de clases - Subsistema de c&#225;mara</title><defs/><g><g class="title" data-source-line="1"><text fill="#000000" font-family="sans-serif" font-size="14" font-weight="bold" lengthAdjust="spacing" textLength="348.9609" x="505.5195" y="22.9951">Diagrama de clases - Subsistema de c&#225;mara</text></g><!--cluster camera--><g class="cluster" data-entity="camera" data-source-line="5" data-uid="ent0003" id="cluster_camera"><path d="M8.5,125.5569 L67.6807,125.5569 A3.75,3.75 0 0 1 70.1807,128.0569 L77.1807,147.8538 L1364.5,147.8538 A2.5,2.5 0 0 1 1367,150.3538 L1367,262.9169 A2.5,2.5 0 0 1 1364.5,265.4169 L8.5,265.4169 A2.5,2.5 0 0 1 6,262.9169 L6,128.0569 A2.5,2.5 0 0 1 8.5,125.5569" fill="none" style="stroke:#000000;stroke-width:1.5;"/><line style="stroke:#000000;stroke-width:1.5;" x1="6" x2="77.1807" y1="147.8538" y2="147.8538"/><text fill="#000000" font-family="sans-serif" font-size="14" font-weight="bold" lengthAdjust="spacing" textLength="58.1807" x="10" y="140.552">camera</text></g><!--class CameraJS--><g class="entity" data-entity="CameraJS" data-source-line="6" data-uid="ent0004" id="entity_CameraJS"><rect fill="#F1F1F1" height="72.5625" rx="2.5" ry="2.5" style="stroke:#181818;stroke-width:0.5;" width="230.3193" x="21.84" y="168.7069"/><ellipse cx="98.7716" cy="188.8397" fill="#ADD1B2" rx="11" ry="11" style="stroke:#181818;stroke-width:1;"/><path d="M101.7404,194.4803 Q101.1623,194.7772 100.5216,194.9178 Q99.881,195.0741 99.1779,195.0741 Q96.6779,195.0741 95.3498,193.4334 Q94.0373,191.7772 94.0373,188.6522 Q94.0373,185.5272 95.3498,183.8709 Q96.6779,182.2147 99.1779,182.2147 Q99.881,182.2147 100.5216,182.3709 Q101.1779,182.5272 101.7404,182.8241 L101.7404,185.5428 Q101.1154,184.9647 100.5216,184.6991 Q99.9279,184.4178 99.3029,184.4178 Q97.9591,184.4178 97.2716,185.4959 Q96.5841,186.5584 96.5841,188.6522 Q96.5841,190.7459 97.2716,191.8241 Q97.9591,192.8866 99.3029,192.8866 Q99.9279,192.8866 100.5216,192.6209 Q101.1154,192.3397 101.7404,191.7616 L101.7404,194.4803 Z " fill="#000000"/><text fill="#000000" font-family="sans-serif" font-size="12" font-style="italic" lengthAdjust="spacing" textLength="59.6543" x="123.4225" y="184.8455">&#171;module&#187;</text><text fill="#000000" font-family="sans-serif" font-size="14" lengthAdjust="spacing" textLength="67.9561" x="119.2716" y="200.6707">CameraJS</text><line style="stroke:#181818;stroke-width:0.5;" x1="22.84" x2="251.1593" y1="208.9725" y2="208.9725"/><line style="stroke:#181818;stroke-width:0.5;" x1="22.84" x2="251.1593" y1="216.9725" y2="216.9725"/><g data-visibility-modifier="PUBLIC_METHOD"><ellipse cx="32.84" cy="230.6209" fill="#84BE84" rx="3" ry="3" style="stroke:#038048;stroke-width:1;"/></g><text fill="#000000" font-family="sans-serif" font-size="14" lengthAdjust="spacing" textLength="204.3193" x="41.84" y="233.9676">setupCamera(scene, canvas)</text></g><!--class Controls--><g class="entity" data-entity="Controls" data-source-line="10" data-uid="ent0005" id="entity_Controls"><rect fill="#F1F1F1" height="88.8594" rx="2.5" ry="2.5" style="stroke:#181818;stroke-width:0.5;" width="285.5674" x="287.22" y="160.5569"/><ellipse cx="396.6497" cy="180.6897" fill="#ADD1B2" rx="11" ry="11" style="stroke:#181818;stroke-width:1;"/><path d="M399.6184,186.3303 Q399.0403,186.6272 398.3997,186.7678 Q397.7591,186.9241 397.0559,186.9241 Q394.5559,186.9241 393.2278,185.2834 Q391.9153,183.6272 391.9153,180.5022 Q391.9153,177.3772 393.2278,175.7209 Q394.5559,174.0647 397.0559,174.0647 Q397.7591,174.0647 398.3997,174.2209 Q399.0559,174.3772 399.6184,174.6741 L399.6184,177.3928 Q398.9934,176.8147 398.3997,176.5491 Q397.8059,176.2678 397.1809,176.2678 Q395.8372,176.2678 395.1497,177.3459 Q394.4622,178.4084 394.4622,180.5022 Q394.4622,182.5959 395.1497,183.6741 Q395.8372,184.7366 397.1809,184.7366 Q397.8059,184.7366 398.3997,184.4709 Q398.9934,184.1897 399.6184,183.6116 L399.6184,186.3303 Z " fill="#000000"/><text fill="#000000" font-family="sans-serif" font-size="12" font-style="italic" lengthAdjust="spacing" textLength="59.6543" x="416.4265" y="176.6955">&#171;module&#187;</text><text fill="#000000" font-family="sans-serif" font-size="14" lengthAdjust="spacing" textLength="58.208" x="417.1497" y="192.5207">Controls</text><line style="stroke:#181818;stroke-width:0.5;" x1="288.22" x2="571.7874" y1="200.8225" y2="200.8225"/><line style="stroke:#181818;stroke-width:0.5;" x1="288.22" x2="571.7874" y1="208.8225" y2="208.8225"/><g data-visibility-modifier="PUBLIC_METHOD"><ellipse cx="298.22" cy="222.4709" fill="#84BE84" rx="3" ry="3" style="stroke:#038048;stroke-width:1;"/></g><text fill="#000000" font-family="sans-serif" font-size="14" lengthAdjust="spacing" textLength="259.5674" x="307.22" y="225.8176">enableUserControls(camera, canvas)</text><g data-visibility-modifier="PUBLIC_METHOD"><ellipse cx="298.22" cy="238.7678" fill="#84BE84" rx="3" ry="3" style="stroke:#038048;stroke-width:1;"/></g><text fill="#000000" font-family="sans-serif" font-size="14" lengthAdjust="spacing" textLength="151.0811" x="307.22" y="242.1145">disableUserControls()</text></g><!--class IntroAnimation--><g class="entity" data-entity="IntroAnimation" data-source-line="15" data-uid="ent0006" id="entity_IntroAnimation"><rect fill="#F1F1F1" height="72.5625" rx="2.5" ry="2.5" style="stroke:#181818;stroke-width:0.5;" width="273.6045" x="608.2" y="168.7069"/><ellipse cx="688.659" cy="188.8397" fill="#ADD1B2" rx="11" ry="11" style="stroke:#181818;stroke-width:1;"/><path d="M691.6277,194.4803 Q691.0496,194.7772 690.409,194.9178 Q689.7684,195.0741 689.0652,195.0741 Q686.5652,195.0741 685.2371,193.4334 Q683.9246,191.7772 683.9246,188.6522 Q683.9246,185.5272 685.2371,183.8709 Q686.5652,182.2147 689.0652,182.2147 Q689.7684,182.2147 690.409,182.3709 Q691.0652,182.5272 691.6277,182.8241 L691.6277,185.5428 Q691.0027,184.9647 690.409,184.6991 Q689.8152,184.4178 689.1902,184.4178 Q687.8465,184.4178 687.159,185.4959 Q686.4715,186.5584 686.4715,188.6522 Q686.4715,190.7459 687.159,191.8241 Q687.8465,192.8866 689.1902,192.8866 Q689.8152,192.8866 690.409,192.6209 Q691.0027,192.3397 691.6277,191.7616 L691.6277,194.4803 Z " fill="#000000"/><text fill="#000000" font-family="sans-serif" font-size="12" font-style="italic" lengthAdjust="spacing" textLength="59.6543" x="731.4251" y="184.8455">&#171;module&#187;</text><text fill="#000000" font-family="sans-serif" font-size="14" lengthAdjust="spacing" textLength="104.1865" x="709.159" y="200.6707">IntroAnimation</text><line style="stroke:#181818;stroke-width:0.5;" x1="609.2" x2="880.8045" y1="208.9725" y2="208.9725"/><line style="stroke:#181818;stroke-width:0.5;" x1="609.2" x2="880.8045" y1="216.9725" y2="216.9725"/><g data-visibility-modifier="PUBLIC_METHOD"><ellipse cx="619.2" cy="230.6209" fill="#84BE84" rx="3" ry="3" style="stroke:#038048;stroke-width:1;"/></g><text fill="#000000" font-family="sans-serif" font-size="14" lengthAdjust="spacing" textLength="247.6045" x="628.2" y="233.9676">playIntroAnimation(scene, camera)</text></g><!--class SwitchCamera--><g class="entity" data-entity="SwitchCamera" data-source-line="19" data-uid="ent0007" id="entity_SwitchCamera"><rect fill="#F1F1F1" height="72.5625" rx="2.5" ry="2.5" style="stroke:#181818;stroke-width:0.5;" width="434.4678" x="916.77" y="168.7069"/><ellipse cx="1079.1406" cy="188.8397" fill="#ADD1B2" rx="11" ry="11" style="stroke:#181818;stroke-width:1;"/><path d="M1082.1094,194.4803 Q1081.5312,194.7772 1080.8906,194.9178 Q1080.25,195.0741 1079.5469,195.0741 Q1077.0469,195.0741 1075.7187,193.4334 Q1074.4062,191.7772 1074.4062,188.6522 Q1074.4062,185.5272 1075.7187,183.8709 Q1077.0469,182.2147 1079.5469,182.2147 Q1080.25,182.2147 1080.8906,182.3709 Q1081.5469,182.5272 1082.1094,182.8241 L1082.1094,185.5428 Q1081.4844,184.9647 1080.8906,184.6991 Q1080.2969,184.4178 1079.6719,184.4178 Q1078.3281,184.4178 1077.6406,185.4959 Q1076.9531,186.5584 1076.9531,188.6522 Q1076.9531,190.7459 1077.6406,191.8241 Q1078.3281,192.8866 1079.6719,192.8866 Q1080.2969,192.8866 1080.8906,192.6209 Q1081.4844,192.3397 1082.1094,191.7616 L1082.1094,194.4803 Z " fill="#000000"/><text fill="#000000" font-family="sans-serif" font-size="12" font-style="italic" lengthAdjust="spacing" textLength="59.6543" x="1120.4267" y="184.8455">&#171;module&#187;</text><text fill="#000000" font-family="sans-serif" font-size="14" lengthAdjust="spacing" textLength="101.2266" x="1099.6406" y="200.6707">SwitchCamera</text><line style="stroke:#181818;stroke-width:0.5;" x1="917.77" x2="1350.2378" y1="208.9725" y2="208.9725"/><line style="stroke:#181818;stroke-width:0.5;" x1="917.77" x2="1350.2378" y1="216.9725" y2="216.9725"/><g data-visibility-modifier="PUBLIC_METHOD"><ellipse cx="927.77" cy="230.6209" fill="#84BE84" rx="3" ry="3" style="stroke:#038048;stroke-width:1;"/></g><text fill="#000000" font-family="sans-serif" font-size="14" lengthAdjust="spacing" textLength="408.4678" x="936.77" y="233.9676">switchToUniversalCamera(scene, canvas, position, target)</text></g><!--class CreateScene--><g class="entity" data-entity="CreateScene" data-source-line="3" data-uid="ent0002" id="entity_CreateScene"><rect fill="#F1F1F1" height="56.2656" rx="2.5" ry="2.5" style="stroke:#181818;stroke-width:0.5;" width="121.5098" x="526.25" y="44.2969"/><ellipse cx="541.25" cy="64.4297" fill="#ADD1B2" rx="11" ry="11" style="stroke:#181818;stroke-width:1;"/><path d="M544.2188,70.0703 Q543.6406,70.3672 543,70.5078 Q542.3594,70.6641 541.6563,70.6641 Q539.1563,70.6641 537.8281,69.0234 Q536.5156,67.3672 536.5156,64.2422 Q536.5156,61.1172 537.8281,59.4609 Q539.1563,57.8047 541.6563,57.8047 Q542.3594,57.8047 543,57.9609 Q543.6563,58.1172 544.2188,58.4141 L544.2188,61.1328 Q543.5938,60.5547 543,60.2891 Q542.4063,60.0078 541.7813,60.0078 Q540.4375,60.0078 539.75,61.0859 Q539.0625,62.1484 539.0625,64.2422 Q539.0625,66.3359 539.75,67.4141 Q540.4375,68.4766 541.7813,68.4766 Q542.4063,68.4766 543,68.2109 Q543.5938,67.9297 544.2188,67.3516 L544.2188,70.0703 Z " fill="#000000"/><text fill="#000000" font-family="sans-serif" font-size="12" font-style="italic" lengthAdjust="spacing" textLength="59.6543" x="570.1777" y="60.4355">&#171;module&#187;</text><text fill="#000000" font-family="sans-serif" font-size="14" lengthAdjust="spacing" textLength="89.5098" x="555.25" y="76.2607">CreateScene</text><line style="stroke:#181818;stroke-width:0.5;" x1="527.25" x2="646.7598" y1="84.5625" y2="84.5625"/><line style="stroke:#181818;stroke-width:0.5;" x1="527.25" x2="646.7598" y1="92.5625" y2="92.5625"/></g><!--link CreateScene to CameraJS--><g class="link" data-entity-1="CreateScene" data-entity-2="CameraJS" data-source-line="24" data-uid="lnk8" id="link_CreateScene_CameraJS"><path codeLine="24" d="M525.78,74.1169 C460.49,76.6269 354.98,85.8269 270,117.5569 C238.01,129.4969 210.6476,146.5975 185.9376,164.7275" fill="none" id="CreateScene-to-CameraJS" style="stroke:#181818;stroke-width:1;"/><polygon fill="#181818" points="181.1,168.2769,190.7226,166.1779,185.1313,165.3191,185.9901,159.7278,181.1,168.2769" style="stroke:#181818;stroke-width:1;"/></g><!--link CreateScene to Controls--><g class="link" data-entity-1="CreateScene" data-entity-2="Controls" data-source-line="25" data-uid="lnk9" id="link_CreateScene_Controls"><path codeLine="25" d="M554.09,100.7969 C533.41,117.9969 510.8843,136.7317 487.2543,156.3717" fill="none" id="CreateScene-to-Controls" style="stroke:#181818;stroke-width:1;"/><polygon fill="#181818" points="482.64,160.2069,492.1182,157.5303,486.4852,157.0109,487.0047,151.378,482.64,160.2069" style="stroke:#181818;stroke-width:1;"/></g><!--link CreateScene to IntroAnimation--><g class="link" data-entity-1="CreateScene" data-entity-2="IntroAnimation" data-source-line="26" data-uid="lnk10" id="link_CreateScene_IntroAnimation"><path codeLine="26" d="M620.12,100.7969 C643.83,120.3869 671.3448,143.1249 697.0848,164.3949" fill="none" id="CreateScene-to-IntroAnimation" style="stroke:#181818;stroke-width:1;"/><polygon fill="#181818" points="701.71,168.2169,697.3202,159.4004,697.8557,165.0319,692.2242,165.5674,701.71,168.2169" style="stroke:#181818;stroke-width:1;"/></g><!--link CreateScene to SwitchCamera--><g class="link" data-entity-1="CreateScene" data-entity-2="SwitchCamera" data-source-line="27" data-uid="lnk11" id="link_CreateScene_SwitchCamera"><path codeLine="27" d="M648.13,78.2169 C711.57,84.0769 813.32,95.9969 899,117.5569 C950.33,130.4669 1000.4053,148.4281 1044.6753,166.0481" fill="none" id="CreateScene-to-SwitchCamera" style="stroke:#181818;stroke-width:1;"/><polygon fill="#181818" points="1050.25,168.2669,1043.3672,161.2222,1045.6044,166.4179,1040.4088,168.6551,1050.25,168.2669" style="stroke:#181818;stroke-width:1;"/></g><!--SRC=[TL5BReD03DtFAQoiKWLk425LpQRTaXp06ImwwdpGsAIggXucPyd5cW7IWW0l_PxVyxF5Y2Ku6AmZEeIAG5jaOiYXRCziM6XetwuE8ogLS8QNI2XKQl84-xqBLMkfA9HgK7zWJR3Hw2ZY1huLt6iOwdflvMXYm5FjcAHjUiwMat866lq5-QdZ_AYnLF0IW-KLAV9ujdHYYW_YjbzeAjbnAyCpyeBZQuAUlN4e9lWLtyRYrvJudoJPB-YMdqRqUnzxxJ0TvHXEtbmeCjgb8sNG13R9CWF1M9CypEvsutVbUV7tYJamN606J5FDu76ANm00]--></g></svg>