<svg xmlns="http://www.w3.org/2000/svg" xmlns:xlink="http://www.w3.org/1999/xlink" contentStyleType="text/css" data-diagram-type="CLASS" height="388px" preserveAspectRatio="none" style="width:305px;height:388px;background:#FFFFFF;" version="1.1" viewBox="0 0 305 388" width="305px" zoomAndPan="magnify"><title>Diagrama de clases - N&#250;cleo (Core)</title><defs/><g><g class="title" data-source-line="1"><text fill="#000000" font-family="sans-serif" font-size="14" font-weight="bold" lengthAdjust="spacing" textLength="277.6621" x="10" y="22.9951">Diagrama de clases - N&#250;cleo (Core)</text></g><!--class MainJS--><g class="entity" data-entity="MainJS" data-source-line="3" data-uid="ent0002" id="entity_MainJS"><rect fill="#F1F1F1" height="72.5625" rx="2.5" ry="2.5" style="stroke:#181818;stroke-width:0.5;" width="153.8184" x="78.9248" y="44.2969"/><ellipse cx="123.7568" cy="64.4297" fill="#ADD1B2" rx="11" ry="11" style="stroke:#181818;stroke-width:1;"/><path d="M126.7256,70.0703 Q126.1475,70.3672 125.5068,70.5078 Q124.8662,70.6641 124.1631,70.6641 Q121.6631,70.6641 120.335,69.0234 Q119.0225,67.3672 119.0225,64.2422 Q119.0225,61.1172 120.335,59.4609 Q121.6631,57.8047 124.1631,57.8047 Q124.8662,57.8047 125.5068,57.9609 Q126.1631,58.1172 126.7256,58.4141 L126.7256,61.1328 Q126.1006,60.5547 125.5068,60.2891 Q124.9131,60.0078 124.2881,60.0078 Q122.9443,60.0078 122.2568,61.0859 Q121.5693,62.1484 121.5693,64.2422 Q121.5693,66.3359 122.2568,67.4141 Q122.9443,68.4766 124.2881,68.4766 Q124.9131,68.4766 125.5068,68.2109 Q126.1006,67.9297 126.7256,67.3516 L126.7256,70.0703 Z " fill="#000000"/><text fill="#000000" font-family="sans-serif" font-size="12" font-style="italic" lengthAdjust="spacing" textLength="59.6543" x="142.2568" y="60.4355">&#171;module&#187;</text><text fill="#000000" font-family="sans-serif" font-size="14" lengthAdjust="spacing" textLength="46.4365" x="148.8657" y="76.2607">MainJS</text><line style="stroke:#181818;stroke-width:0.5;" x1="79.9248" x2="231.7432" y1="84.5625" y2="84.5625"/><line style="stroke:#181818;stroke-width:0.5;" x1="79.9248" x2="231.7432" y1="92.5625" y2="92.5625"/><g data-visibility-modifier="PUBLIC_METHOD"><ellipse cx="89.9248" cy="106.2109" fill="#84BE84" rx="3" ry="3" style="stroke:#038048;stroke-width:1;"/></g><text fill="#000000" font-family="sans-serif" font-size="14" lengthAdjust="spacing" textLength="127.8184" x="98.9248" y="109.5576">startRenderLoop()</text></g><!--class CreateScene--><g class="entity" data-entity="CreateScene" data-source-line="7" data-uid="ent0003" id="entity_CreateScene"><rect fill="#F1F1F1" height="72.5625" rx="2.5" ry="2.5" style="stroke:#181818;stroke-width:0.5;" width="230.3125" x="40.6748" y="176.8569"/><ellipse cx="106.8262" cy="196.9897" fill="#ADD1B2" rx="11" ry="11" style="stroke:#181818;stroke-width:1;"/><path d="M109.7949,202.6303 Q109.2168,202.9272 108.5762,203.0678 Q107.9355,203.2241 107.2324,203.2241 Q104.7324,203.2241 103.4043,201.5834 Q102.0918,199.9272 102.0918,196.8022 Q102.0918,193.6772 103.4043,192.0209 Q104.7324,190.3647 107.2324,190.3647 Q107.9355,190.3647 108.5762,190.5209 Q109.2324,190.6772 109.7949,190.9741 L109.7949,193.6928 Q109.1699,193.1147 108.5762,192.8491 Q107.9824,192.5678 107.3574,192.5678 Q106.0137,192.5678 105.3262,193.6459 Q104.6387,194.7084 104.6387,196.8022 Q104.6387,198.8959 105.3262,199.9741 Q106.0137,201.0366 107.3574,201.0366 Q107.9824,201.0366 108.5762,200.7709 Q109.1699,200.4897 109.7949,199.9116 L109.7949,202.6303 Z " fill="#000000"/><text fill="#000000" font-family="sans-serif" font-size="12" font-style="italic" lengthAdjust="spacing" textLength="59.6543" x="142.2539" y="192.9955">&#171;module&#187;</text><text fill="#000000" font-family="sans-serif" font-size="14" lengthAdjust="spacing" textLength="89.5098" x="127.3262" y="208.8207">CreateScene</text><line style="stroke:#181818;stroke-width:0.5;" x1="41.6748" x2="269.9873" y1="217.1225" y2="217.1225"/><line style="stroke:#181818;stroke-width:0.5;" x1="41.6748" x2="269.9873" y1="225.1225" y2="225.1225"/><g data-visibility-modifier="PUBLIC_METHOD"><ellipse cx="51.6748" cy="238.7709" fill="#84BE84" rx="3" ry="3" style="stroke:#038048;stroke-width:1;"/></g><text fill="#000000" font-family="sans-serif" font-size="14" lengthAdjust="spacing" textLength="204.3125" x="60.6748" y="242.1176">createScene(engine, canvas)</text></g><!--class Light--><g class="entity" data-entity="Light" data-source-line="11" data-uid="ent0004" id="entity_Light"><rect fill="#F1F1F1" height="72.5625" rx="2.5" ry="2.5" style="stroke:#181818;stroke-width:0.5;" width="159.4033" x="76.1248" y="309.4269"/><ellipse cx="123.7493" cy="329.5597" fill="#ADD1B2" rx="11" ry="11" style="stroke:#181818;stroke-width:1;"/><path d="M126.7181,335.2003 Q126.1399,335.4972 125.4993,335.6378 Q124.8587,335.7941 124.1556,335.7941 Q121.6556,335.7941 120.3274,334.1534 Q119.0149,332.4972 119.0149,329.3722 Q119.0149,326.2472 120.3274,324.5909 Q121.6556,322.9347 124.1556,322.9347 Q124.8587,322.9347 125.4993,323.0909 Q126.1556,323.2472 126.7181,323.5441 L126.7181,326.2628 Q126.0931,325.6847 125.4993,325.4191 Q124.9056,325.1378 124.2806,325.1378 Q122.9368,325.1378 122.2493,326.2159 Q121.5618,327.2784 121.5618,329.3722 Q121.5618,331.4659 122.2493,332.5441 Q122.9368,333.6066 124.2806,333.6066 Q124.9056,333.6066 125.4993,333.3409 Q126.0931,333.0597 126.7181,332.4816 L126.7181,335.2003 Z " fill="#000000"/><text fill="#000000" font-family="sans-serif" font-size="12" font-style="italic" lengthAdjust="spacing" textLength="59.6543" x="142.2493" y="325.5655">&#171;module&#187;</text><text fill="#000000" font-family="sans-serif" font-size="14" lengthAdjust="spacing" textLength="34.9385" x="154.6072" y="341.3907">Light</text><line style="stroke:#181818;stroke-width:0.5;" x1="77.1248" x2="234.5281" y1="349.6925" y2="349.6925"/><line style="stroke:#181818;stroke-width:0.5;" x1="77.1248" x2="234.5281" y1="357.6925" y2="357.6925"/><g data-visibility-modifier="PUBLIC_METHOD"><ellipse cx="87.1248" cy="371.3409" fill="#84BE84" rx="3" ry="3" style="stroke:#038048;stroke-width:1;"/></g><text fill="#000000" font-family="sans-serif" font-size="14" lengthAdjust="spacing" textLength="133.4033" x="96.1248" y="374.6876">setupLights(scene)</text></g><!--link MainJS to CreateScene--><g class="link" data-entity-1="MainJS" data-entity-2="CreateScene" data-source-line="15" data-uid="lnk5" id="link_MainJS_CreateScene"><path codeLine="15" d="M155.8348,117.2569 C155.8348,135.6769 155.8348,152.0969 155.8348,170.5069" fill="none" id="MainJS-to-CreateScene" style="stroke:#181818;stroke-width:1;"/><polygon fill="#181818" points="155.8348,176.5069,159.8348,167.5069,155.8348,171.5069,151.8348,167.5069,155.8348,176.5069" style="stroke:#181818;stroke-width:1;"/></g><!--link CreateScene to Light--><g class="link" data-entity-1="CreateScene" data-entity-2="Light" data-source-line="16" data-uid="lnk6" id="link_CreateScene_Light"><path codeLine="16" d="M155.8348,249.8169 C155.8348,268.2469 155.8348,284.6569 155.8348,303.0769" fill="none" id="CreateScene-to-Light" style="stroke:#181818;stroke-width:1;"/><polygon fill="#181818" points="155.8348,309.0769,159.8348,300.0769,155.8348,304.0769,151.8348,300.0769,155.8348,309.0769" style="stroke:#181818;stroke-width:1;"/></g><!--SRC=[ROv13e8m54JtFSLVbYWt86nmPT25dE2dJB19QKb_SMEyc5ilfZGQMJ3RbpSpoIO7EbWU8ezCFSWu5WYLT7uzZKCWtOI8Gga529tO-cD7LJM6VdQeQxeh-cGdYMEwmFU8RGYJBjJZvpGHdD0PU6o8vayr_60zzcJOtrXM5QqThcbh5McUCXGjIqLslYVBibvlg_MFXMNl3G00]--></g></svg>