<svg xmlns="http://www.w3.org/2000/svg" xmlns:xlink="http://www.w3.org/1999/xlink" contentStyleType="text/css" data-diagram-type="CLASS" height="522px" preserveAspectRatio="none" style="width:1364px;height:522px;background:#FFFFFF;" version="1.1" viewBox="0 0 1364 522" width="1364px" zoomAndPan="magnify"><title>Diagrama de clases - Subsistema Model (Funkos)</title><defs/><g><g class="title" data-source-line="1"><text fill="#000000" font-family="sans-serif" font-size="14" font-weight="bold" lengthAdjust="spacing" textLength="388.7324" x="480.6338" y="22.9951">Diagrama de clases - Subsistema Model (Funkos)</text></g><!--cluster model--><g class="cluster" data-qualified-name="model" data-source-line="5" id="ent0003"><path d="M8.5,116.5669 L58.0215,116.5669 A3.75,3.75 0 0 1 60.5215,119.0669 L67.5215,138.8638 L1354.5,138.8638 A2.5,2.5 0 0 1 1357,141.3638 L1357,429.0369 A2.5,2.5 0 0 1 1354.5,431.5369 L8.5,431.5369 A2.5,2.5 0 0 1 6,429.0369 L6,119.0669 A2.5,2.5 0 0 1 8.5,116.5669" fill="none" style="stroke:#000000;stroke-width:1.5;"/><line style="stroke:#000000;stroke-width:1.5;" x1="6" x2="67.5215" y1="138.8638" y2="138.8638"/><text fill="#000000" font-family="sans-serif" font-size="14" font-weight="bold" lengthAdjust="spacing" textLength="48.5215" x="10" y="131.562">model</text></g><!--cluster data--><g class="cluster" data-qualified-name="model.data" data-source-line="28" id="ent0009"><path d="M32.5,159.5669 L69.1084,159.5669 A3.75,3.75 0 0 1 71.6084,162.0669 L78.6084,181.8638 L295.5,181.8638 A2.5,2.5 0 0 1 298,184.3638 L298,405.0369 A2.5,2.5 0 0 1 295.5,407.5369 L32.5,407.5369 A2.5,2.5 0 0 1 30,405.0369 L30,162.0669 A2.5,2.5 0 0 1 32.5,159.5669" fill="none" style="stroke:#000000;stroke-width:1.5;"/><line style="stroke:#000000;stroke-width:1.5;" x1="30" x2="78.6084" y1="181.8638" y2="181.8638"/><text fill="#000000" font-family="sans-serif" font-size="14" font-weight="bold" lengthAdjust="spacing" textLength="35.6084" x="34" y="174.562">data</text></g><!--class FunkoDataManager--><g class="entity" data-qualified-name="model.FunkoDataManager" data-source-line="7" id="ent0004"><rect fill="#F1F1F1" height="72.5625" rx="2.5" ry="2.5" style="stroke:#181818;stroke-width:0.5;" width="305.1729" x="513.41" y="186.4169"/><ellipse cx="593.1136" cy="206.5497" fill="#ADD1B2" rx="11" ry="11" style="stroke:#181818;stroke-width:1;"/><path d="M596.0824,212.1903 Q595.5042,212.4872 594.8636,212.6278 Q594.223,212.7841 593.5199,212.7841 Q591.0199,212.7841 589.6917,211.1434 Q588.3792,209.4872 588.3792,206.3622 Q588.3792,203.2372 589.6917,201.5809 Q591.0199,199.9247 593.5199,199.9247 Q594.223,199.9247 594.8636,200.0809 Q595.5199,200.2372 596.0824,200.5341 L596.0824,203.2528 Q595.4574,202.6747 594.8636,202.4091 Q594.2699,202.1278 593.6449,202.1278 Q592.3011,202.1278 591.6136,203.2059 Q590.9261,204.2684 590.9261,206.3622 Q590.9261,208.4559 591.6136,209.5341 Q592.3011,210.5966 593.6449,210.5966 Q594.2699,210.5966 594.8636,210.3309 Q595.4574,210.0497 596.0824,209.4716 L596.0824,212.1903 Z " fill="#000000"/><text fill="#000000" font-family="sans-serif" font-size="12" font-style="italic" lengthAdjust="spacing" textLength="59.6543" x="652.4193" y="202.5555">&#171;module&#187;</text><text fill="#000000" font-family="sans-serif" font-size="14" lengthAdjust="spacing" textLength="137.2656" x="613.6136" y="218.3807">FunkoDataManager</text><line style="stroke:#181818;stroke-width:0.5;" x1="514.41" x2="817.5829" y1="226.6825" y2="226.6825"/><line style="stroke:#181818;stroke-width:0.5;" x1="514.41" x2="817.5829" y1="234.6825" y2="234.6825"/><g data-visibility-modifier="PUBLIC_METHOD"><ellipse cx="524.41" cy="248.3309" fill="#84BE84" rx="3" ry="3" style="stroke:#038048;stroke-width:1;"/></g><text fill="#000000" font-family="sans-serif" font-size="14" lengthAdjust="spacing" textLength="279.1729" x="533.41" y="251.6776">setupCollection(scene, config) : Funko[]</text></g><!--class FunkoModel--><g class="entity" data-qualified-name="model.FunkoModel" data-source-line="11" id="ent0005"><rect fill="#F1F1F1" height="72.5625" rx="2.5" ry="2.5" style="stroke:#181818;stroke-width:0.5;" width="438.4395" x="316.78" y="327.1269"/><ellipse cx="489.4968" cy="347.2597" fill="#ADD1B2" rx="11" ry="11" style="stroke:#181818;stroke-width:1;"/><path d="M492.4655,352.9003 Q491.8874,353.1972 491.2468,353.3378 Q490.6062,353.4941 489.903,353.4941 Q487.403,353.4941 486.0749,351.8534 Q484.7624,350.1972 484.7624,347.0722 Q484.7624,343.9472 486.0749,342.2909 Q487.403,340.6347 489.903,340.6347 Q490.6062,340.6347 491.2468,340.7909 Q491.903,340.9472 492.4655,341.2441 L492.4655,343.9628 Q491.8405,343.3847 491.2468,343.1191 Q490.653,342.8378 490.028,342.8378 Q488.6843,342.8378 487.9968,343.9159 Q487.3093,344.9784 487.3093,347.0722 Q487.3093,349.1659 487.9968,350.2441 Q488.6843,351.3066 490.028,351.3066 Q490.653,351.3066 491.2468,351.0409 Q491.8405,350.7597 492.4655,350.1816 L492.4655,352.9003 Z " fill="#000000"/><text fill="#000000" font-family="sans-serif" font-size="12" font-style="italic" lengthAdjust="spacing" textLength="59.6543" x="522.4226" y="343.2655">&#171;module&#187;</text><text fill="#000000" font-family="sans-serif" font-size="14" lengthAdjust="spacing" textLength="84.5059" x="509.9968" y="359.0907">FunkoModel</text><line style="stroke:#181818;stroke-width:0.5;" x1="317.78" x2="754.2195" y1="367.3925" y2="367.3925"/><line style="stroke:#181818;stroke-width:0.5;" x1="317.78" x2="754.2195" y1="375.3925" y2="375.3925"/><g data-visibility-modifier="PUBLIC_METHOD"><ellipse cx="327.78" cy="389.0409" fill="#84BE84" rx="3" ry="3" style="stroke:#038048;stroke-width:1;"/></g><text fill="#000000" font-family="sans-serif" font-size="14" lengthAdjust="spacing" textLength="412.4395" x="336.78" y="392.3876">loadFunkoModel(scene, name, folder, file, scale, rotationY)</text></g><!--class FunkoPlacement--><g class="entity" data-qualified-name="model.FunkoPlacement" data-source-line="15" id="ent0006"><rect fill="#F1F1F1" height="88.8594" rx="2.5" ry="2.5" style="stroke:#181818;stroke-width:0.5;" width="288.3975" x="789.8" y="318.9769"/><ellipse cx="871.5954" cy="339.1097" fill="#ADD1B2" rx="11" ry="11" style="stroke:#181818;stroke-width:1;"/><path d="M874.5642,344.7503 Q873.986,345.0472 873.3454,345.1878 Q872.7048,345.3441 872.0017,345.3441 Q869.5017,345.3441 868.1735,343.7034 Q866.861,342.0472 866.861,338.9222 Q866.861,335.7972 868.1735,334.1409 Q869.5017,332.4847 872.0017,332.4847 Q872.7048,332.4847 873.3454,332.6409 Q874.0017,332.7972 874.5642,333.0941 L874.5642,335.8128 Q873.9392,335.2347 873.3454,334.9691 Q872.7517,334.6878 872.1267,334.6878 Q870.7829,334.6878 870.0954,335.7659 Q869.4079,336.8284 869.4079,338.9222 Q869.4079,341.0159 870.0954,342.0941 Q870.7829,343.1566 872.1267,343.1566 Q872.7517,343.1566 873.3454,342.8909 Q873.9392,342.6097 874.5642,342.0316 L874.5642,344.7503 Z " fill="#000000"/><text fill="#000000" font-family="sans-serif" font-size="12" font-style="italic" lengthAdjust="spacing" textLength="59.6543" x="920.4216" y="335.1155">&#171;module&#187;</text><text fill="#000000" font-family="sans-serif" font-size="14" lengthAdjust="spacing" textLength="116.3066" x="892.0954" y="350.9407">FunkoPlacement</text><line style="stroke:#181818;stroke-width:0.5;" x1="790.8" x2="1077.1975" y1="359.2425" y2="359.2425"/><line style="stroke:#181818;stroke-width:0.5;" x1="790.8" x2="1077.1975" y1="367.2425" y2="367.2425"/><g data-visibility-modifier="PUBLIC_METHOD"><ellipse cx="800.8" cy="380.8909" fill="#84BE84" rx="3" ry="3" style="stroke:#038048;stroke-width:1;"/></g><text fill="#000000" font-family="sans-serif" font-size="14" lengthAdjust="spacing" textLength="235.5527" x="809.8" y="384.2376">placeFunkosOnGridShelf(params)</text><g data-visibility-modifier="PUBLIC_METHOD"><ellipse cx="800.8" cy="397.1878" fill="#84BE84" rx="3" ry="3" style="stroke:#038048;stroke-width:1;"/></g><text fill="#000000" font-family="sans-serif" font-size="14" lengthAdjust="spacing" textLength="262.3975" x="809.8" y="400.5345">placeFunkosOnFloatingShelf(params)</text></g><!--class FunkoRotation--><g class="entity" data-qualified-name="model.FunkoRotation" data-source-line="20" id="ent0007"><rect fill="#F1F1F1" height="72.5625" rx="2.5" ry="2.5" style="stroke:#181818;stroke-width:0.5;" width="227.1201" x="1113.44" y="327.1269"/><ellipse cx="1171.9249" cy="347.2597" fill="#ADD1B2" rx="11" ry="11" style="stroke:#181818;stroke-width:1;"/><path d="M1174.8936,352.9003 Q1174.3155,353.1972 1173.6749,353.3378 Q1173.0342,353.4941 1172.3311,353.4941 Q1169.8311,353.4941 1168.503,351.8534 Q1167.1905,350.1972 1167.1905,347.0722 Q1167.1905,343.9472 1168.503,342.2909 Q1169.8311,340.6347 1172.3311,340.6347 Q1173.0342,340.6347 1173.6749,340.7909 Q1174.3311,340.9472 1174.8936,341.2441 L1174.8936,343.9628 Q1174.2686,343.3847 1173.6749,343.1191 Q1173.0811,342.8378 1172.4561,342.8378 Q1171.1124,342.8378 1170.4249,343.9159 Q1169.7374,344.9784 1169.7374,347.0722 Q1169.7374,349.1659 1170.4249,350.2441 Q1171.1124,351.3066 1172.4561,351.3066 Q1173.0811,351.3066 1173.6749,351.0409 Q1174.2686,350.7597 1174.8936,350.1816 L1174.8936,352.9003 Z " fill="#000000"/><text fill="#000000" font-family="sans-serif" font-size="12" font-style="italic" lengthAdjust="spacing" textLength="59.6543" x="1213.4229" y="343.2655">&#171;module&#187;</text><text fill="#000000" font-family="sans-serif" font-size="14" lengthAdjust="spacing" textLength="101.6504" x="1192.4249" y="359.0907">FunkoRotation</text><line style="stroke:#181818;stroke-width:0.5;" x1="1114.44" x2="1339.5601" y1="367.3925" y2="367.3925"/><line style="stroke:#181818;stroke-width:0.5;" x1="1114.44" x2="1339.5601" y1="375.3925" y2="375.3925"/><g data-visibility-modifier="PUBLIC_METHOD"><ellipse cx="1124.44" cy="389.0409" fill="#84BE84" rx="3" ry="3" style="stroke:#038048;stroke-width:1;"/></g><text fill="#000000" font-family="sans-serif" font-size="14" lengthAdjust="spacing" textLength="201.1201" x="1133.44" y="392.3876">enableFunkoRotation(scene)</text></g><!--class ModelInteraction--><g class="entity" data-qualified-name="model.ModelInteraction" data-source-line="24" id="ent0008"><rect fill="#F1F1F1" height="72.5625" rx="2.5" ry="2.5" style="stroke:#181818;stroke-width:0.5;" width="357.5293" x="983.24" y="186.4169"/><ellipse cx="1098.7605" cy="206.5497" fill="#ADD1B2" rx="11" ry="11" style="stroke:#181818;stroke-width:1;"/><path d="M1101.7293,212.1903 Q1101.1511,212.4872 1100.5105,212.6278 Q1099.8699,212.7841 1099.1668,212.7841 Q1096.6668,212.7841 1095.3386,211.1434 Q1094.0261,209.4872 1094.0261,206.3622 Q1094.0261,203.2372 1095.3386,201.5809 Q1096.6668,199.9247 1099.1668,199.9247 Q1099.8699,199.9247 1100.5105,200.0809 Q1101.1668,200.2372 1101.7293,200.5341 L1101.7293,203.2528 Q1101.1043,202.6747 1100.5105,202.4091 Q1099.9168,202.1278 1099.2918,202.1278 Q1097.948,202.1278 1097.2605,203.2059 Q1096.573,204.2684 1096.573,206.3622 Q1096.573,208.4559 1097.2605,209.5341 Q1097.948,210.5966 1099.2918,210.5966 Q1099.9168,210.5966 1100.5105,210.3309 Q1101.1043,210.0497 1101.7293,209.4716 L1101.7293,212.1903 Z " fill="#000000"/><text fill="#000000" font-family="sans-serif" font-size="12" font-style="italic" lengthAdjust="spacing" textLength="59.6543" x="1148.4275" y="202.5555">&#171;module&#187;</text><text fill="#000000" font-family="sans-serif" font-size="14" lengthAdjust="spacing" textLength="117.9883" x="1119.2605" y="218.3807">ModelInteraction</text><line style="stroke:#181818;stroke-width:0.5;" x1="984.24" x2="1339.7693" y1="226.6825" y2="226.6825"/><line style="stroke:#181818;stroke-width:0.5;" x1="984.24" x2="1339.7693" y1="234.6825" y2="234.6825"/><g data-visibility-modifier="PUBLIC_METHOD"><ellipse cx="994.24" cy="248.3309" fill="#84BE84" rx="3" ry="3" style="stroke:#038048;stroke-width:1;"/></g><text fill="#000000" font-family="sans-serif" font-size="14" lengthAdjust="spacing" textLength="331.5293" x="1003.24" y="251.6776">enableFunkoSelection(scene, funkos, onSelect)</text></g><!--class DC--><g class="entity" data-qualified-name="model.data.DC" data-source-line="29" id="ent0010"><rect fill="#F1F1F1" height="56.2656" rx="2.5" ry="2.5" style="stroke:#181818;stroke-width:0.5;" width="87.6543" x="59.17" y="194.5669"/><ellipse cx="74.17" cy="214.6997" fill="#ADD1B2" rx="11" ry="11" style="stroke:#181818;stroke-width:1;"/><path d="M77.1388,220.3403 Q76.5606,220.6372 75.92,220.7778 Q75.2794,220.9341 74.5763,220.9341 Q72.0763,220.9341 70.7481,219.2934 Q69.4356,217.6372 69.4356,214.5122 Q69.4356,211.3872 70.7481,209.7309 Q72.0763,208.0747 74.5763,208.0747 Q75.2794,208.0747 75.92,208.2309 Q76.5763,208.3872 77.1388,208.6841 L77.1388,211.4028 Q76.5138,210.8247 75.92,210.5591 Q75.3263,210.2778 74.7013,210.2778 Q73.3575,210.2778 72.67,211.3559 Q71.9825,212.4184 71.9825,214.5122 Q71.9825,216.6059 72.67,217.6841 Q73.3575,218.7466 74.7013,218.7466 Q75.3263,218.7466 75.92,218.4809 Q76.5138,218.1997 77.1388,217.6216 L77.1388,220.3403 Z " fill="#000000"/><text fill="#000000" font-family="sans-serif" font-size="12" font-style="italic" lengthAdjust="spacing" textLength="59.6543" x="86.17" y="210.7055">&#171;module&#187;</text><text fill="#000000" font-family="sans-serif" font-size="14" lengthAdjust="spacing" textLength="20.5557" x="105.7193" y="226.5307">DC</text><line style="stroke:#181818;stroke-width:0.5;" x1="60.17" x2="145.8243" y1="234.8325" y2="234.8325"/><line style="stroke:#181818;stroke-width:0.5;" x1="60.17" x2="145.8243" y1="242.8325" y2="242.8325"/></g><!--class Marvel--><g class="entity" data-qualified-name="model.data.Marvel" data-source-line="30" id="ent0011"><rect fill="#F1F1F1" height="56.2656" rx="2.5" ry="2.5" style="stroke:#181818;stroke-width:0.5;" width="87.6543" x="182.17" y="194.5669"/><ellipse cx="197.17" cy="214.6997" fill="#ADD1B2" rx="11" ry="11" style="stroke:#181818;stroke-width:1;"/><path d="M200.1388,220.3403 Q199.5606,220.6372 198.92,220.7778 Q198.2794,220.9341 197.5763,220.9341 Q195.0763,220.9341 193.7481,219.2934 Q192.4356,217.6372 192.4356,214.5122 Q192.4356,211.3872 193.7481,209.7309 Q195.0763,208.0747 197.5763,208.0747 Q198.2794,208.0747 198.92,208.2309 Q199.5763,208.3872 200.1388,208.6841 L200.1388,211.4028 Q199.5138,210.8247 198.92,210.5591 Q198.3263,210.2778 197.7013,210.2778 Q196.3575,210.2778 195.67,211.3559 Q194.9825,212.4184 194.9825,214.5122 Q194.9825,216.6059 195.67,217.6841 Q196.3575,218.7466 197.7013,218.7466 Q198.3263,218.7466 198.92,218.4809 Q199.5138,218.1997 200.1388,217.6216 L200.1388,220.3403 Z " fill="#000000"/><text fill="#000000" font-family="sans-serif" font-size="12" font-style="italic" lengthAdjust="spacing" textLength="59.6543" x="209.17" y="210.7055">&#171;module&#187;</text><text fill="#000000" font-family="sans-serif" font-size="14" lengthAdjust="spacing" textLength="47.2021" x="215.3961" y="226.5307">Marvel</text><line style="stroke:#181818;stroke-width:0.5;" x1="183.17" x2="268.8243" y1="234.8325" y2="234.8325"/><line style="stroke:#181818;stroke-width:0.5;" x1="183.17" x2="268.8243" y1="242.8325" y2="242.8325"/></g><!--class HarryPotter--><g class="entity" data-qualified-name="model.data.HarryPotter" data-source-line="31" id="ent0012"><rect fill="#F1F1F1" height="56.2656" rx="2.5" ry="2.5" style="stroke:#181818;stroke-width:0.5;" width="113.2588" x="46.37" y="335.2769"/><ellipse cx="61.37" cy="355.4097" fill="#ADD1B2" rx="11" ry="11" style="stroke:#181818;stroke-width:1;"/><path d="M64.3388,361.0503 Q63.7606,361.3472 63.12,361.4878 Q62.4794,361.6441 61.7763,361.6441 Q59.2763,361.6441 57.9481,360.0034 Q56.6356,358.3472 56.6356,355.2222 Q56.6356,352.0972 57.9481,350.4409 Q59.2763,348.7847 61.7763,348.7847 Q62.4794,348.7847 63.12,348.9409 Q63.7763,349.0972 64.3388,349.3941 L64.3388,352.1128 Q63.7138,351.5347 63.12,351.2691 Q62.5263,350.9878 61.9013,350.9878 Q60.5575,350.9878 59.87,352.0659 Q59.1825,353.1284 59.1825,355.2222 Q59.1825,357.3159 59.87,358.3941 Q60.5575,359.4566 61.9013,359.4566 Q62.5263,359.4566 63.12,359.1909 Q63.7138,358.9097 64.3388,358.3316 L64.3388,361.0503 Z " fill="#000000"/><text fill="#000000" font-family="sans-serif" font-size="12" font-style="italic" lengthAdjust="spacing" textLength="59.6543" x="86.1722" y="351.4155">&#171;module&#187;</text><text fill="#000000" font-family="sans-serif" font-size="14" lengthAdjust="spacing" textLength="81.2588" x="75.37" y="367.2407">HarryPotter</text><line style="stroke:#181818;stroke-width:0.5;" x1="47.37" x2="158.6288" y1="375.5425" y2="375.5425"/><line style="stroke:#181818;stroke-width:0.5;" x1="47.37" x2="158.6288" y1="383.5425" y2="383.5425"/></g><!--class Mix--><g class="entity" data-qualified-name="model.data.Mix" data-source-line="32" id="ent0013"><rect fill="#F1F1F1" height="56.2656" rx="2.5" ry="2.5" style="stroke:#181818;stroke-width:0.5;" width="87.6543" x="194.17" y="335.2769"/><ellipse cx="209.17" cy="355.4097" fill="#ADD1B2" rx="11" ry="11" style="stroke:#181818;stroke-width:1;"/><path d="M212.1388,361.0503 Q211.5606,361.3472 210.92,361.4878 Q210.2794,361.6441 209.5763,361.6441 Q207.0763,361.6441 205.7481,360.0034 Q204.4356,358.3472 204.4356,355.2222 Q204.4356,352.0972 205.7481,350.4409 Q207.0763,348.7847 209.5763,348.7847 Q210.2794,348.7847 210.92,348.9409 Q211.5763,349.0972 212.1388,349.3941 L212.1388,352.1128 Q211.5138,351.5347 210.92,351.2691 Q210.3263,350.9878 209.7013,350.9878 Q208.3575,350.9878 207.67,352.0659 Q206.9825,353.1284 206.9825,355.2222 Q206.9825,357.3159 207.67,358.3941 Q208.3575,359.4566 209.7013,359.4566 Q210.3263,359.4566 210.92,359.1909 Q211.5138,358.9097 212.1388,358.3316 L212.1388,361.0503 Z " fill="#000000"/><text fill="#000000" font-family="sans-serif" font-size="12" font-style="italic" lengthAdjust="spacing" textLength="59.6543" x="221.17" y="351.4155">&#171;module&#187;</text><text fill="#000000" font-family="sans-serif" font-size="14" lengthAdjust="spacing" textLength="24.2539" x="238.8702" y="367.2407">Mix</text><line style="stroke:#181818;stroke-width:0.5;" x1="195.17" x2="280.8243" y1="375.5425" y2="375.5425"/><line style="stroke:#181818;stroke-width:0.5;" x1="195.17" x2="280.8243" y1="383.5425" y2="383.5425"/></g><!--class CreateScene--><g class="entity" data-qualified-name="CreateScene" data-source-line="3" id="ent0002"><rect fill="#F1F1F1" height="56.2656" rx="2.5" ry="2.5" style="stroke:#181818;stroke-width:0.5;" width="121.5098" x="605.25" y="44.2969"/><ellipse cx="620.25" cy="64.4297" fill="#ADD1B2" rx="11" ry="11" style="stroke:#181818;stroke-width:1;"/><path d="M623.2188,70.0703 Q622.6406,70.3672 622,70.5078 Q621.3594,70.6641 620.6563,70.6641 Q618.1563,70.6641 616.8281,69.0234 Q615.5156,67.3672 615.5156,64.2422 Q615.5156,61.1172 616.8281,59.4609 Q618.1563,57.8047 620.6563,57.8047 Q621.3594,57.8047 622,57.9609 Q622.6563,58.1172 623.2188,58.4141 L623.2188,61.1328 Q622.5938,60.5547 622,60.2891 Q621.4063,60.0078 620.7813,60.0078 Q619.4375,60.0078 618.75,61.0859 Q618.0625,62.1484 618.0625,64.2422 Q618.0625,66.3359 618.75,67.4141 Q619.4375,68.4766 620.7813,68.4766 Q621.4063,68.4766 622,68.2109 Q622.5938,67.9297 623.2188,67.3516 L623.2188,70.0703 Z " fill="#000000"/><text fill="#000000" font-family="sans-serif" font-size="12" font-style="italic" lengthAdjust="spacing" textLength="59.6543" x="649.1777" y="60.4355">&#171;module&#187;</text><text fill="#000000" font-family="sans-serif" font-size="14" lengthAdjust="spacing" textLength="89.5098" x="634.25" y="76.2607">CreateScene</text><line style="stroke:#181818;stroke-width:0.5;" x1="606.25" x2="725.7598" y1="84.5625" y2="84.5625"/><line style="stroke:#181818;stroke-width:0.5;" x1="606.25" x2="725.7598" y1="92.5625" y2="92.5625"/></g><!--class room/shelves/ShelfSlots--><g class="entity" data-qualified-name="room.shelves.ShelfSlots" data-source-line="39" id="ent0017"><rect fill="#F1F1F1" height="48" rx="2.5" ry="2.5" style="stroke:#181818;stroke-width:0.5;" width="200.1367" x="833.93" y="467.8369"/><ellipse cx="848.93" cy="483.8369" fill="#ADD1B2" rx="11" ry="11" style="stroke:#181818;stroke-width:1;"/><path d="M851.8988,489.4775 Q851.3206,489.7744 850.68,489.915 Q850.0394,490.0713 849.3363,490.0713 Q846.8363,490.0713 845.5081,488.4306 Q844.1956,486.7744 844.1956,483.6494 Q844.1956,480.5244 845.5081,478.8681 Q846.8363,477.2119 849.3363,477.2119 Q850.0394,477.2119 850.68,477.3681 Q851.3363,477.5244 851.8988,477.8213 L851.8988,480.54 Q851.2738,479.9619 850.68,479.6963 Q850.0863,479.415 849.4613,479.415 Q848.1175,479.415 847.43,480.4931 Q846.7425,481.5556 846.7425,483.6494 Q846.7425,485.7431 847.43,486.8213 Q848.1175,487.8838 849.4613,487.8838 Q850.0863,487.8838 850.68,487.6181 Q851.2738,487.3369 851.8988,486.7588 L851.8988,489.4775 Z " fill="#000000"/><text fill="#000000" font-family="sans-serif" font-size="14" lengthAdjust="spacing" textLength="168.1367" x="862.93" y="488.6836">room/shelves/ShelfSlots</text><line style="stroke:#181818;stroke-width:0.5;" x1="834.93" x2="1033.0667" y1="499.8369" y2="499.8369"/><line style="stroke:#181818;stroke-width:0.5;" x1="834.93" x2="1033.0667" y1="507.8369" y2="507.8369"/></g><!--link CreateScene to FunkoDataManager--><g class="link" data-entity-1="ent0002" data-entity-2="ent0004" data-link-type="dependency" data-source-line="36" id="lnk14"><path codeLine="36" d="M666,100.9669 C666,125.0069 666,154.0269 666,180.1669" fill="none" id="CreateScene-to-FunkoDataManager" style="stroke:#181818;stroke-width:1;"/><polygon fill="#181818" points="666,186.1669,670,177.1669,666,181.1669,662,177.1669,666,186.1669" style="stroke:#181818;stroke-width:1;"/></g><!--link FunkoDataManager to FunkoModel--><g class="link" data-entity-1="ent0004" data-entity-2="ent0005" data-link-type="dependency" data-source-line="37" id="lnk15"><path codeLine="37" d="M632.52,259.4169 C613.11,280.1269 592.8529,301.7389 573.4629,322.4289" fill="none" id="FunkoDataManager-to-FunkoModel" style="stroke:#181818;stroke-width:1;"/><polygon fill="#181818" points="569.36,326.8069,578.4329,322.9752,572.7791,323.1586,572.5957,317.5047,569.36,326.8069" style="stroke:#181818;stroke-width:1;"/></g><!--link FunkoDataManager to FunkoPlacement--><g class="link" data-entity-1="ent0004" data-entity-2="ent0006" data-link-type="dependency" data-source-line="38" id="lnk16"><path codeLine="38" d="M735.02,259.4169 C769.91,277.4769 807.2413,296.7992 844.0913,315.8692" fill="none" id="FunkoDataManager-to-FunkoPlacement" style="stroke:#181818;stroke-width:1;"/><polygon fill="#181818" points="849.42,318.6269,843.2653,310.9379,844.9794,316.3288,839.5885,318.0429,849.42,318.6269" style="stroke:#181818;stroke-width:1;"/></g><!--link FunkoPlacement to room/shelves/ShelfSlots--><g class="link" data-entity-1="ent0006" data-entity-2="ent0017" data-link-type="dependency" data-source-line="39" id="lnk18"><path codeLine="39" d="M934,408.2669 C934,428.2369 934,445.0569 934,461.6469" fill="none" id="FunkoPlacement-to-room/shelves/ShelfSlots" style="stroke:#181818;stroke-width:1;"/><polygon fill="#181818" points="934,467.6469,938,458.6469,934,462.6469,930,458.6469,934,467.6469" style="stroke:#181818;stroke-width:1;"/></g><!--link ModelInteraction to FunkoRotation--><g class="link" data-entity-1="ent0008" data-entity-2="ent0007" data-link-type="dependency" data-source-line="40" id="lnk19"><path codeLine="40" d="M1178.74,259.4169 C1188.44,280.1269 1198.0731,300.6843 1207.7731,321.3743" fill="none" id="ModelInteraction-to-FunkoRotation" style="stroke:#181818;stroke-width:1;"/><polygon fill="#181818" points="1210.32,326.8069,1210.1213,316.96,1208.1976,322.2797,1202.8779,320.3559,1210.32,326.8069" style="stroke:#181818;stroke-width:1;"/></g><!--SRC=[XL8zJyCm4DtzAqwP6a7L7LLTMXKOAYeo8SHmjI_1gcD7jbE1KFyxJjAc-H9ui6NVk_VEzyvBhmWs4ZEBEO8Wu0eTEPX3KXwST9x2yyu8KZ3RblfeNCnOXN6mjeIU4awQOBdCZIWLhLQC5SYFc154UPKMmGzZ04rApR11ZplK0M8xUG46OTqvycMnDaeHzzBecQluxu4RdSeiXeU6u_qZeCy3ugRCCQKoA6w0AwF6FEofKO9iEAKADyUnEgpnM8c_nHCgUuMSSj9-GgceOasRNlIZbIBv99NE2WpTTV44PXjgyr9dGznGzFLIqOGcQJmewg6QBmvuwiy_QqyM-VzK2GqCIEkAxy7e9jIojtQBu6jqeMeaD-lkODpUTsXFFQSwiIUqzdjllEzDHpTPVlK3PnRgw0xZVBuQJHeRZLwBgXlpHxmrd0tyhn2HDIPVk63VYToYjZ5Hnhk8ZVhT4bvj-WK0]--></g></svg>