<svg xmlns="http://www.w3.org/2000/svg" xmlns:xlink="http://www.w3.org/1999/xlink" contentStyleType="text/css" data-diagram-type="CLASS" height="799px" preserveAspectRatio="none" style="width:401px;height:799px;background:#FFFFFF;" version="1.1" viewBox="0 0 401 799" width="401px" zoomAndPan="magnify"><title>Diagrama de clases - Modelos Funko y UI</title><defs/><g><g class="title" data-source-line="1"><text fill="#000000" font-family="sans-serif" font-size="14" font-weight="bold" lengthAdjust="spacing" textLength="324.3721" x="31.314" y="22.9951">Diagrama de clases - Modelos Funko y UI</text></g><!--cluster models--><g class="cluster" data-entity="models" data-source-line="5" data-uid="ent0003" id="cluster_models"><path d="M9.5,125.5569 L67.3545,125.5569 A3.75,3.75 0 0 1 69.8545,128.0569 L76.8545,147.8538 L391.5,147.8538 A2.5,2.5 0 0 1 394,150.3538 L394,476.9669 A2.5,2.5 0 0 1 391.5,479.4669 L9.5,479.4669 A2.5,2.5 0 0 1 7,476.9669 L7,128.0569 A2.5,2.5 0 0 1 9.5,125.5569" fill="none" style="stroke:#000000;stroke-width:1.5;"/><line style="stroke:#000000;stroke-width:1.5;" x1="7" x2="76.8545" y1="147.8538" y2="147.8538"/><text fill="#000000" font-family="sans-serif" font-size="14" font-weight="bold" lengthAdjust="spacing" textLength="56.8545" x="11" y="140.552">models</text></g><!--cluster ui--><g class="cluster" data-entity="ui" data-source-line="26" data-uid="ent0007" id="cluster_ui"><path d="M8.5,503.4669 L24.2656,503.4669 A3.75,3.75 0 0 1 26.7656,505.9669 L33.7656,525.7638 L189.5,525.7638 A2.5,2.5 0 0 1 192,528.2638 L192,789.6869 A2.5,2.5 0 0 1 189.5,792.1869 L8.5,792.1869 A2.5,2.5 0 0 1 6,789.6869 L6,505.9669 A2.5,2.5 0 0 1 8.5,503.4669" fill="none" style="stroke:#000000;stroke-width:1.5;"/><line style="stroke:#000000;stroke-width:1.5;" x1="6" x2="33.7656" y1="525.7638" y2="525.7638"/><text fill="#000000" font-family="sans-serif" font-size="14" font-weight="bold" lengthAdjust="spacing" textLength="14.7656" x="10" y="518.462">ui</text></g><!--class FunkoModel--><g class="entity" data-entity="FunkoModel" data-source-line="6" data-uid="ent0004" id="entity_FunkoModel"><rect fill="#F1F1F1" height="121.4531" rx="2.5" ry="2.5" style="stroke:#181818;stroke-width:0.5;" width="169.6572" x="115.17" y="160.5569"/><ellipse cx="154.0881" cy="180.6897" fill="#ADD1B2" rx="11" ry="11" style="stroke:#181818;stroke-width:1;"/><path d="M157.0569,186.3303 Q156.4787,186.6272 155.8381,186.7678 Q155.1975,186.9241 154.4944,186.9241 Q151.9944,186.9241 150.6662,185.2834 Q149.3537,183.6272 149.3537,180.5022 Q149.3537,177.3772 150.6662,175.7209 Q151.9944,174.0647 154.4944,174.0647 Q155.1975,174.0647 155.8381,174.2209 Q156.4944,174.3772 157.0569,174.6741 L157.0569,177.3928 Q156.4319,176.8147 155.8381,176.5491 Q155.2444,176.2678 154.6194,176.2678 Q153.2756,176.2678 152.5881,177.3459 Q151.9006,178.4084 151.9006,180.5022 Q151.9006,182.5959 152.5881,183.6741 Q153.2756,184.7366 154.6194,184.7366 Q155.2444,184.7366 155.8381,184.4709 Q156.4319,184.1897 157.0569,183.6116 L157.0569,186.3303 Z " fill="#000000"/><text fill="#000000" font-family="sans-serif" font-size="12" font-style="italic" lengthAdjust="spacing" textLength="59.6543" x="185.829" y="176.6955">&#171;module&#187;</text><text fill="#000000" font-family="sans-serif" font-size="14" lengthAdjust="spacing" textLength="84.5059" x="173.4033" y="192.5207">FunkoModel</text><line style="stroke:#181818;stroke-width:0.5;" x1="116.17" x2="283.8272" y1="200.8225" y2="200.8225"/><g data-visibility-modifier="PRIVATE_FIELD"><rect fill="none" height="6" style="stroke:#C82930;stroke-width:1;" width="6" x="123.17" y="211.4709"/></g><text fill="#000000" font-family="sans-serif" font-size="14" lengthAdjust="spacing" textLength="12.7764" x="135.17" y="217.8176">id</text><g data-visibility-modifier="PRIVATE_FIELD"><rect fill="none" height="6" style="stroke:#C82930;stroke-width:1;" width="6" x="123.17" y="227.7678"/></g><text fill="#000000" font-family="sans-serif" font-size="14" lengthAdjust="spacing" textLength="57.6133" x="135.17" y="234.1145">dataKey</text><g data-visibility-modifier="PRIVATE_FIELD"><rect fill="none" height="6" style="stroke:#C82930;stroke-width:1;" width="6" x="123.17" y="244.0647"/></g><text fill="#000000" font-family="sans-serif" font-size="14" lengthAdjust="spacing" textLength="38.418" x="135.17" y="250.4114">mesh</text><line style="stroke:#181818;stroke-width:0.5;" x1="116.17" x2="283.8272" y1="257.7131" y2="257.7131"/><g data-visibility-modifier="PUBLIC_METHOD"><ellipse cx="126.17" cy="271.3616" fill="#84BE84" rx="3" ry="3" style="stroke:#038048;stroke-width:1;"/></g><text fill="#000000" font-family="sans-serif" font-size="14" lengthAdjust="spacing" textLength="143.6572" x="135.17" y="274.7082">load3DModel(scene)</text></g><!--class ModelInteraction--><g class="entity" data-entity="ModelInteraction" data-source-line="13" data-uid="ent0005" id="entity_ModelInteraction"><rect fill="#F1F1F1" height="121.4531" rx="2.5" ry="2.5" style="stroke:#181818;stroke-width:0.5;" width="149.9883" x="23.01" y="342.0169"/><ellipse cx="38.01" cy="362.1497" fill="#ADD1B2" rx="11" ry="11" style="stroke:#181818;stroke-width:1;"/><path d="M40.9788,367.7903 Q40.4006,368.0872 39.76,368.2278 Q39.1194,368.3841 38.4163,368.3841 Q35.9163,368.3841 34.5881,366.7434 Q33.2756,365.0872 33.2756,361.9622 Q33.2756,358.8372 34.5881,357.1809 Q35.9163,355.5247 38.4163,355.5247 Q39.1194,355.5247 39.76,355.6809 Q40.4163,355.8372 40.9788,356.1341 L40.9788,358.8528 Q40.3538,358.2747 39.76,358.0091 Q39.1663,357.7278 38.5413,357.7278 Q37.1975,357.7278 36.51,358.8059 Q35.8225,359.8684 35.8225,361.9622 Q35.8225,364.0559 36.51,365.1341 Q37.1975,366.1966 38.5413,366.1966 Q39.1663,366.1966 39.76,365.9309 Q40.3538,365.6497 40.9788,365.0716 L40.9788,367.7903 Z " fill="#000000"/><text fill="#000000" font-family="sans-serif" font-size="12" font-style="italic" lengthAdjust="spacing" textLength="59.6543" x="81.177" y="358.1555">&#171;module&#187;</text><text fill="#000000" font-family="sans-serif" font-size="14" lengthAdjust="spacing" textLength="117.9883" x="52.01" y="373.9807">ModelInteraction</text><line style="stroke:#181818;stroke-width:0.5;" x1="24.01" x2="171.9983" y1="382.2825" y2="382.2825"/><line style="stroke:#181818;stroke-width:0.5;" x1="24.01" x2="171.9983" y1="390.2825" y2="390.2825"/><g data-visibility-modifier="PUBLIC_METHOD"><ellipse cx="34.01" cy="403.9309" fill="#84BE84" rx="3" ry="3" style="stroke:#038048;stroke-width:1;"/></g><text fill="#000000" font-family="sans-serif" font-size="14" lengthAdjust="spacing" textLength="111.7676" x="43.01" y="407.2776">focusOn(model)</text><g data-visibility-modifier="PUBLIC_METHOD"><ellipse cx="34.01" cy="420.2278" fill="#84BE84" rx="3" ry="3" style="stroke:#038048;stroke-width:1;"/></g><text fill="#000000" font-family="sans-serif" font-size="14" lengthAdjust="spacing" textLength="108.1924" x="43.01" y="423.5745">zoomToModel()</text><g data-visibility-modifier="PUBLIC_METHOD"><ellipse cx="34.01" cy="436.5247" fill="#84BE84" rx="3" ry="3" style="stroke:#038048;stroke-width:1;"/></g><text fill="#000000" font-family="sans-serif" font-size="14" lengthAdjust="spacing" textLength="117.5576" x="43.01" y="439.8714">enableRotation()</text><g data-visibility-modifier="PUBLIC_METHOD"><ellipse cx="34.01" cy="452.8216" fill="#84BE84" rx="3" ry="3" style="stroke:#038048;stroke-width:1;"/></g><text fill="#000000" font-family="sans-serif" font-size="14" lengthAdjust="spacing" textLength="112.7656" x="43.01" y="456.1682">exitModelView()</text></g><!--class FunkoDataManager--><g class="entity" data-entity="FunkoDataManager" data-source-line="20" data-uid="ent0006" id="entity_FunkoDataManager"><rect fill="#F1F1F1" height="88.8594" rx="2.5" ry="2.5" style="stroke:#181818;stroke-width:0.5;" width="169.2656" x="208.37" y="358.3069"/><ellipse cx="223.37" cy="378.4397" fill="#ADD1B2" rx="11" ry="11" style="stroke:#181818;stroke-width:1;"/><path d="M226.3388,384.0803 Q225.7606,384.3772 225.12,384.5178 Q224.4794,384.6741 223.7763,384.6741 Q221.2763,384.6741 219.9481,383.0334 Q218.6356,381.3772 218.6356,378.2522 Q218.6356,375.1272 219.9481,373.4709 Q221.2763,371.8147 223.7763,371.8147 Q224.4794,371.8147 225.12,371.9709 Q225.7763,372.1272 226.3388,372.4241 L226.3388,375.1428 Q225.7138,374.5647 225.12,374.2991 Q224.5263,374.0178 223.9013,374.0178 Q222.5575,374.0178 221.87,375.0959 Q221.1825,376.1584 221.1825,378.2522 Q221.1825,380.3459 221.87,381.4241 Q222.5575,382.4866 223.9013,382.4866 Q224.5263,382.4866 225.12,382.2209 Q225.7138,381.9397 226.3388,381.3616 L226.3388,384.0803 Z " fill="#000000"/><text fill="#000000" font-family="sans-serif" font-size="12" font-style="italic" lengthAdjust="spacing" textLength="59.6543" x="276.1757" y="374.4455">&#171;module&#187;</text><text fill="#000000" font-family="sans-serif" font-size="14" lengthAdjust="spacing" textLength="137.2656" x="237.37" y="390.2707">FunkoDataManager</text><line style="stroke:#181818;stroke-width:0.5;" x1="209.37" x2="376.6356" y1="398.5725" y2="398.5725"/><line style="stroke:#181818;stroke-width:0.5;" x1="209.37" x2="376.6356" y1="406.5725" y2="406.5725"/><g data-visibility-modifier="PUBLIC_METHOD"><ellipse cx="219.37" cy="420.2209" fill="#84BE84" rx="3" ry="3" style="stroke:#038048;stroke-width:1;"/></g><text fill="#000000" font-family="sans-serif" font-size="14" lengthAdjust="spacing" textLength="74.2725" x="228.37" y="423.5676">loadData()</text><g data-visibility-modifier="PUBLIC_METHOD"><ellipse cx="219.37" cy="436.5178" fill="#84BE84" rx="3" ry="3" style="stroke:#038048;stroke-width:1;"/></g><text fill="#000000" font-family="sans-serif" font-size="14" lengthAdjust="spacing" textLength="122.5889" x="228.37" y="439.8645">getFunkoData(id)</text></g><!--class FunkoInfoPanel--><g class="entity" data-entity="FunkoInfoPanel" data-source-line="27" data-uid="ent0008" id="entity_FunkoInfoPanel"><rect fill="#F1F1F1" height="105.1563" rx="2.5" ry="2.5" style="stroke:#181818;stroke-width:0.5;" width="139.3652" x="29.32" y="538.4669"/><ellipse cx="44.32" cy="558.5997" fill="#ADD1B2" rx="11" ry="11" style="stroke:#181818;stroke-width:1;"/><path d="M47.2888,564.2403 Q46.7106,564.5372 46.07,564.6778 Q45.4294,564.8341 44.7263,564.8341 Q42.2263,564.8341 40.8981,563.1934 Q39.5856,561.5372 39.5856,558.4122 Q39.5856,555.2872 40.8981,553.6309 Q42.2263,551.9747 44.7263,551.9747 Q45.4294,551.9747 46.07,552.1309 Q46.7263,552.2872 47.2888,552.5841 L47.2888,555.3028 Q46.6638,554.7247 46.07,554.4591 Q45.4763,554.1778 44.8513,554.1778 Q43.5075,554.1778 42.82,555.2559 Q42.1325,556.3184 42.1325,558.4122 Q42.1325,560.5059 42.82,561.5841 Q43.5075,562.6466 44.8513,562.6466 Q45.4763,562.6466 46.07,562.3809 Q46.6638,562.0997 47.2888,561.5216 L47.2888,564.2403 Z " fill="#000000"/><text fill="#000000" font-family="sans-serif" font-size="12" font-style="italic" lengthAdjust="spacing" textLength="59.6543" x="82.1755" y="554.6055">&#171;module&#187;</text><text fill="#000000" font-family="sans-serif" font-size="14" lengthAdjust="spacing" textLength="107.3652" x="58.32" y="570.4307">FunkoInfoPanel</text><line style="stroke:#181818;stroke-width:0.5;" x1="30.32" x2="167.6852" y1="578.7325" y2="578.7325"/><line style="stroke:#181818;stroke-width:0.5;" x1="30.32" x2="167.6852" y1="586.7325" y2="586.7325"/><g data-visibility-modifier="PUBLIC_METHOD"><ellipse cx="40.32" cy="600.3809" fill="#84BE84" rx="3" ry="3" style="stroke:#038048;stroke-width:1;"/></g><text fill="#000000" font-family="sans-serif" font-size="14" lengthAdjust="spacing" textLength="78.6406" x="49.32" y="603.7276">show(data)</text><g data-visibility-modifier="PUBLIC_METHOD"><ellipse cx="40.32" cy="616.6778" fill="#84BE84" rx="3" ry="3" style="stroke:#038048;stroke-width:1;"/></g><text fill="#000000" font-family="sans-serif" font-size="14" lengthAdjust="spacing" textLength="41.1865" x="49.32" y="620.0245">hide()</text><g data-visibility-modifier="PUBLIC_METHOD"><ellipse cx="40.32" cy="632.9747" fill="#84BE84" rx="3" ry="3" style="stroke:#038048;stroke-width:1;"/></g><text fill="#000000" font-family="sans-serif" font-size="14" lengthAdjust="spacing" textLength="91.7861" x="49.32" y="636.3214">update(data)</text></g><!--class UIHelpers--><g class="entity" data-entity="UIHelpers" data-source-line="33" data-uid="ent0009" id="entity_UIHelpers"><rect fill="#F1F1F1" height="72.5625" rx="2.5" ry="2.5" style="stroke:#181818;stroke-width:0.5;" width="154.0098" x="22" y="703.6269"/><ellipse cx="61.3242" cy="723.7597" fill="#ADD1B2" rx="11" ry="11" style="stroke:#181818;stroke-width:1;"/><path d="M64.2929,729.4003 Q63.7148,729.6972 63.0742,729.8378 Q62.4335,729.9941 61.7304,729.9941 Q59.2304,729.9941 57.9023,728.3534 Q56.5898,726.6972 56.5898,723.5722 Q56.5898,720.4472 57.9023,718.7909 Q59.2304,717.1347 61.7304,717.1347 Q62.4335,717.1347 63.0742,717.2909 Q63.7304,717.4472 64.2929,717.7441 L64.2929,720.4628 Q63.6679,719.8847 63.0742,719.6191 Q62.4804,719.3378 61.8554,719.3378 Q60.5117,719.3378 59.8242,720.4159 Q59.1367,721.4784 59.1367,723.5722 Q59.1367,725.6659 59.8242,726.7441 Q60.5117,727.8066 61.8554,727.8066 Q62.4804,727.8066 63.0742,727.5409 Q63.6679,727.2597 64.2929,726.6816 L64.2929,729.4003 Z " fill="#000000"/><text fill="#000000" font-family="sans-serif" font-size="12" font-style="italic" lengthAdjust="spacing" textLength="59.6543" x="84.8804" y="719.7655">&#171;module&#187;</text><text fill="#000000" font-family="sans-serif" font-size="14" lengthAdjust="spacing" textLength="67.9561" x="80.7295" y="735.5907">UIHelpers</text><line style="stroke:#181818;stroke-width:0.5;" x1="23" x2="175.0098" y1="743.8925" y2="743.8925"/><line style="stroke:#181818;stroke-width:0.5;" x1="23" x2="175.0098" y1="751.8925" y2="751.8925"/><g data-visibility-modifier="PUBLIC_METHOD"><ellipse cx="33" cy="765.5409" fill="#84BE84" rx="3" ry="3" style="stroke:#038048;stroke-width:1;"/></g><text fill="#000000" font-family="sans-serif" font-size="14" lengthAdjust="spacing" textLength="128.0098" x="42" y="768.8876">createUIElement()</text></g><!--class CreateScene--><g class="entity" data-entity="CreateScene" data-source-line="3" data-uid="ent0002" id="entity_CreateScene"><rect fill="#F1F1F1" height="56.2656" rx="2.5" ry="2.5" style="stroke:#181818;stroke-width:0.5;" width="121.5098" x="139.25" y="44.2969"/><ellipse cx="154.25" cy="64.4297" fill="#ADD1B2" rx="11" ry="11" style="stroke:#181818;stroke-width:1;"/><path d="M157.2188,70.0703 Q156.6406,70.3672 156,70.5078 Q155.3594,70.6641 154.6563,70.6641 Q152.1563,70.6641 150.8281,69.0234 Q149.5156,67.3672 149.5156,64.2422 Q149.5156,61.1172 150.8281,59.4609 Q152.1563,57.8047 154.6563,57.8047 Q155.3594,57.8047 156,57.9609 Q156.6563,58.1172 157.2188,58.4141 L157.2188,61.1328 Q156.5938,60.5547 156,60.2891 Q155.4063,60.0078 154.7813,60.0078 Q153.4375,60.0078 152.75,61.0859 Q152.0625,62.1484 152.0625,64.2422 Q152.0625,66.3359 152.75,67.4141 Q153.4375,68.4766 154.7813,68.4766 Q155.4063,68.4766 156,68.2109 Q156.5938,67.9297 157.2188,67.3516 L157.2188,70.0703 Z " fill="#000000"/><text fill="#000000" font-family="sans-serif" font-size="12" font-style="italic" lengthAdjust="spacing" textLength="59.6543" x="183.1777" y="60.4355">&#171;module&#187;</text><text fill="#000000" font-family="sans-serif" font-size="14" lengthAdjust="spacing" textLength="89.5098" x="168.25" y="76.2607">CreateScene</text><line style="stroke:#181818;stroke-width:0.5;" x1="140.25" x2="259.7598" y1="84.5625" y2="84.5625"/><line style="stroke:#181818;stroke-width:0.5;" x1="140.25" x2="259.7598" y1="92.5625" y2="92.5625"/></g><!--link CreateScene to FunkoModel--><g class="link" data-entity-1="CreateScene" data-entity-2="FunkoModel" data-source-line="38" data-uid="lnk10" id="link_CreateScene_FunkoModel"><path codeLine="38" d="M200,101.0569 C200,117.7569 200,133.7169 200,154.2369" fill="none" id="CreateScene-to-FunkoModel" style="stroke:#181818;stroke-width:1;"/><polygon fill="#181818" points="200,160.2369,204,151.2369,200,155.2369,196,151.2369,200,160.2369" style="stroke:#181818;stroke-width:1;"/></g><!--link FunkoModel to FunkoDataManager--><g class="link" data-entity-1="FunkoModel" data-entity-2="FunkoDataManager" data-source-line="39" data-uid="lnk11" id="link_FunkoModel_FunkoDataManager"><path codeLine="39" d="M230.97,282.0469 C243.81,306.8169 255.6686,329.7101 267.4986,352.5301" fill="none" id="FunkoModel-to-FunkoDataManager" style="stroke:#181818;stroke-width:1;"/><polygon fill="#181818" points="270.26,357.8569,269.669,348.0258,267.9588,353.4179,262.5667,351.7077,270.26,357.8569" style="stroke:#181818;stroke-width:1;"/></g><!--link FunkoModel to ModelInteraction--><g class="link" data-entity-1="FunkoModel" data-entity-2="ModelInteraction" data-source-line="40" data-uid="lnk12" id="link_FunkoModel_ModelInteraction"><path codeLine="40" d="M166.04,282.0469 C155.14,301.2169 146.0354,317.2309 135.1254,336.4209" fill="none" id="FunkoModel-to-ModelInteraction" style="stroke:#181818;stroke-width:1;"/><polygon fill="#181818" points="132.16,341.6369,140.0854,335.7899,134.6312,337.2902,133.1308,331.836,132.16,341.6369" style="stroke:#181818;stroke-width:1;"/></g><!--link ModelInteraction to FunkoInfoPanel--><g class="link" data-entity-1="ModelInteraction" data-entity-2="FunkoInfoPanel" data-source-line="42" data-uid="lnk13" id="link_ModelInteraction_FunkoInfoPanel"><path codeLine="42" d="M98.32,463.7169 C98.45,487.6469 98.5688,508.947 98.6888,532.027" fill="none" id="ModelInteraction-to-FunkoInfoPanel" style="stroke:#181818;stroke-width:1;"/><polygon fill="#181818" points="98.72,538.0269,102.6732,529.0062,98.694,533.0269,94.6733,529.0478,98.72,538.0269" style="stroke:#181818;stroke-width:1;"/></g><!--link FunkoDataManager to FunkoInfoPanel--><g class="link" data-entity-1="FunkoDataManager" data-entity-2="FunkoInfoPanel" data-source-line="43" data-uid="lnk14" id="link_FunkoDataManager_FunkoInfoPanel"><path codeLine="43" d="M247.52,447.4169 C219.29,474.5269 187.1977,505.341 157.4877,533.871" fill="none" id="FunkoDataManager-to-FunkoInfoPanel" style="stroke:#181818;stroke-width:1;"/><polygon fill="#181818" points="153.16,538.0269,162.4221,534.6783,156.7664,534.5637,156.881,528.908,153.16,538.0269" style="stroke:#181818;stroke-width:1;"/></g><!--link FunkoInfoPanel to UIHelpers--><g class="link" data-entity-1="FunkoInfoPanel" data-entity-2="UIHelpers" data-source-line="44" data-uid="lnk15" id="link_FunkoInfoPanel_UIHelpers"><path codeLine="44" d="M99,643.8269 C99,663.4769 99,679.4069 99,697.2469" fill="none" id="FunkoInfoPanel-to-UIHelpers" style="stroke:#181818;stroke-width:1;"/><polygon fill="#181818" points="99,703.2469,103,694.2469,99,698.2469,95,694.2469,99,703.2469" style="stroke:#181818;stroke-width:1;"/></g><!--SRC=[TL9DRy8m3BtdLrYSWb1Fko8kOzCgX3PjOtUlCIKYJL2JYh69_xucRAtvQ4wjt_Ep_UoWWo6OQonhh10KGM7GauSCbawHSHuU6xjrS81LBaG4FTpNX87U2h84qsdbL6DeDXDYXyKMIu9H5LFz27u4jE-Kb6II9ilvOyINQTL_Amoue4CVgCXlkh-9SQZkvabC-jZ6E657mUebDBU1QYo2TlPsrSdQ5Or_jZArFExZtyvLxwT-9GkJnKz3hovWr3n3ldH8z0zDUtcZeMJ0l1riYRPrgHveACuMMLoxfD1bIwt-nO_CyaRVi3ktQ_U2TiZoYT-ulOnUireRhOZNRdOjWHZhRAXL_aHcHxKVg52aKrdb3uOgia6orlaLPTcC7OXWjz8XpBbB_7BLGbmjlvFfB15N-nZYz2v6HZVnBm00]--></g></svg>