<svg xmlns="http://www.w3.org/2000/svg" xmlns:xlink="http://www.w3.org/1999/xlink" contentStyleType="text/css" data-diagram-type="CLASS" height="445px" preserveAspectRatio="none" style="width:1536px;height:445px;background:#FFFFFF;" version="1.1" viewBox="0 0 1536 445" width="1536px" zoomAndPan="magnify"><title>Diagrama de clases - Room y Estanter&#237;as</title><defs/><g><g class="title" data-source-line="1"><text fill="#000000" font-family="sans-serif" font-size="14" font-weight="bold" lengthAdjust="spacing" textLength="322.957" x="599.5215" y="22.9951">Diagrama de clases - Room y Estanter&#237;as</text></g><!--cluster room--><g class="cluster" data-entity="room" data-source-line="5" data-uid="ent0003" id="cluster_room"><path d="M8.5,125.5569 L50.2285,125.5569 A3.75,3.75 0 0 1 52.7285,128.0569 L59.7285,147.8538 L1526.5,147.8538 A2.5,2.5 0 0 1 1529,150.3538 L1529,435.7769 A2.5,2.5 0 0 1 1526.5,438.2769 L8.5,438.2769 A2.5,2.5 0 0 1 6,435.7769 L6,128.0569 A2.5,2.5 0 0 1 8.5,125.5569" fill="none" style="stroke:#000000;stroke-width:1.5;"/><line style="stroke:#000000;stroke-width:1.5;" x1="6" x2="59.7285" y1="147.8538" y2="147.8538"/><text fill="#000000" font-family="sans-serif" font-size="14" font-weight="bold" lengthAdjust="spacing" textLength="40.7285" x="10" y="140.552">room</text></g><!--cluster shelves--><g class="cluster" data-entity="shelves" data-source-line="22" data-uid="ent0009" id="cluster_shelves"><path d="M957.5,258.1169 L1018.0479,258.1169 A3.75,3.75 0 0 1 1020.5479,260.6169 L1027.5479,280.4138 L1502.5,280.4138 A2.5,2.5 0 0 1 1505,282.9138 L1505,411.7769 A2.5,2.5 0 0 1 1502.5,414.2769 L957.5,414.2769 A2.5,2.5 0 0 1 955,411.7769 L955,260.6169 A2.5,2.5 0 0 1 957.5,258.1169" fill="none" style="stroke:#000000;stroke-width:1.5;"/><line style="stroke:#000000;stroke-width:1.5;" x1="955" x2="1027.5479" y1="280.4138" y2="280.4138"/><text fill="#000000" font-family="sans-serif" font-size="14" font-weight="bold" lengthAdjust="spacing" textLength="59.5479" x="959" y="273.112">shelves</text></g><!--class RoomJS--><g class="entity" data-entity="RoomJS" data-source-line="6" data-uid="ent0004" id="entity_RoomJS"><rect fill="#F1F1F1" height="72.5625" rx="2.5" ry="2.5" style="stroke:#181818;stroke-width:0.5;" width="163.2588" x="642.37" y="160.5569"/><ellipse cx="691.9222" cy="180.6897" fill="#ADD1B2" rx="11" ry="11" style="stroke:#181818;stroke-width:1;"/><path d="M694.891,186.3303 Q694.3129,186.6272 693.6722,186.7678 Q693.0316,186.9241 692.3285,186.9241 Q689.8285,186.9241 688.5004,185.2834 Q687.1879,183.6272 687.1879,180.5022 Q687.1879,177.3772 688.5004,175.7209 Q689.8285,174.0647 692.3285,174.0647 Q693.0316,174.0647 693.6722,174.2209 Q694.3285,174.3772 694.891,174.6741 L694.891,177.3928 Q694.266,176.8147 693.6722,176.5491 Q693.0785,176.2678 692.4535,176.2678 Q691.1097,176.2678 690.4222,177.3459 Q689.7347,178.4084 689.7347,180.5022 Q689.7347,182.5959 690.4222,183.6741 Q691.1097,184.7366 692.4535,184.7366 Q693.0785,184.7366 693.6722,184.4709 Q694.266,184.1897 694.891,183.6116 L694.891,186.3303 Z " fill="#000000"/><text fill="#000000" font-family="sans-serif" font-size="12" font-style="italic" lengthAdjust="spacing" textLength="59.6543" x="710.4222" y="176.6955">&#171;module&#187;</text><text fill="#000000" font-family="sans-serif" font-size="14" lengthAdjust="spacing" textLength="53.5117" x="713.4935" y="192.5207">RoomJS</text><line style="stroke:#181818;stroke-width:0.5;" x1="643.37" x2="804.6288" y1="200.8225" y2="200.8225"/><line style="stroke:#181818;stroke-width:0.5;" x1="643.37" x2="804.6288" y1="208.8225" y2="208.8225"/><g data-visibility-modifier="PUBLIC_METHOD"><ellipse cx="653.37" cy="222.4709" fill="#84BE84" rx="3" ry="3" style="stroke:#038048;stroke-width:1;"/></g><text fill="#000000" font-family="sans-serif" font-size="14" lengthAdjust="spacing" textLength="137.2588" x="662.37" y="225.8176">createRoom(scene)</text></g><!--class Wall--><g class="entity" data-entity="Wall" data-source-line="9" data-uid="ent0005" id="entity_Wall"><rect fill="#F1F1F1" height="72.5625" rx="2.5" ry="2.5" style="stroke:#181818;stroke-width:0.5;" width="164.6055" x="21.7" y="309.4169"/><ellipse cx="71.9256" cy="329.5497" fill="#ADD1B2" rx="11" ry="11" style="stroke:#181818;stroke-width:1;"/><path d="M74.8943,335.1903 Q74.3162,335.4872 73.6756,335.6278 Q73.035,335.7841 72.3318,335.7841 Q69.8318,335.7841 68.5037,334.1434 Q67.1912,332.4872 67.1912,329.3622 Q67.1912,326.2372 68.5037,324.5809 Q69.8318,322.9247 72.3318,322.9247 Q73.035,322.9247 73.6756,323.0809 Q74.3318,323.2372 74.8943,323.5341 L74.8943,326.2528 Q74.2693,325.6747 73.6756,325.4091 Q73.0818,325.1278 72.4568,325.1278 Q71.1131,325.1278 70.4256,326.2059 Q69.7381,327.2684 69.7381,329.3622 Q69.7381,331.4559 70.4256,332.5341 Q71.1131,333.5966 72.4568,333.5966 Q73.0818,333.5966 73.6756,333.3309 Q74.2693,333.0497 74.8943,332.4716 L74.8943,335.1903 Z " fill="#000000"/><text fill="#000000" font-family="sans-serif" font-size="12" font-style="italic" lengthAdjust="spacing" textLength="59.6543" x="90.4256" y="325.5555">&#171;module&#187;</text><text fill="#000000" font-family="sans-serif" font-size="14" lengthAdjust="spacing" textLength="30.2012" x="105.1521" y="341.3807">Wall</text><line style="stroke:#181818;stroke-width:0.5;" x1="22.7" x2="185.3055" y1="349.6825" y2="349.6825"/><line style="stroke:#181818;stroke-width:0.5;" x1="22.7" x2="185.3055" y1="357.6825" y2="357.6825"/><g data-visibility-modifier="PUBLIC_METHOD"><ellipse cx="32.7" cy="371.3309" fill="#84BE84" rx="3" ry="3" style="stroke:#038048;stroke-width:1;"/></g><text fill="#000000" font-family="sans-serif" font-size="14" lengthAdjust="spacing" textLength="138.6055" x="41.7" y="374.6776">createWall(params)</text></g><!--class Floor--><g class="entity" data-entity="Floor" data-source-line="12" data-uid="ent0006" id="entity_Floor"><rect fill="#F1F1F1" height="72.5625" rx="2.5" ry="2.5" style="stroke:#181818;stroke-width:0.5;" width="204.7393" x="221.63" y="309.4169"/><ellipse cx="291.9225" cy="329.5497" fill="#ADD1B2" rx="11" ry="11" style="stroke:#181818;stroke-width:1;"/><path d="M294.8912,335.1903 Q294.3131,335.4872 293.6725,335.6278 Q293.0319,335.7841 292.3287,335.7841 Q289.8287,335.7841 288.5006,334.1434 Q287.1881,332.4872 287.1881,329.3622 Q287.1881,326.2372 288.5006,324.5809 Q289.8287,322.9247 292.3287,322.9247 Q293.0319,322.9247 293.6725,323.0809 Q294.3287,323.2372 294.8912,323.5341 L294.8912,326.2528 Q294.2662,325.6747 293.6725,325.4091 Q293.0787,325.1278 292.4537,325.1278 Q291.11,325.1278 290.4225,326.2059 Q289.735,327.2684 289.735,329.3622 Q289.735,331.4559 290.4225,332.5341 Q291.11,333.5966 292.4537,333.5966 Q293.0787,333.5966 293.6725,333.3309 Q294.2662,333.0497 294.8912,332.4716 L294.8912,335.1903 Z " fill="#000000"/><text fill="#000000" font-family="sans-serif" font-size="12" font-style="italic" lengthAdjust="spacing" textLength="59.6543" x="310.4225" y="325.5555">&#171;module&#187;</text><text fill="#000000" font-family="sans-serif" font-size="14" lengthAdjust="spacing" textLength="34.8291" x="322.8351" y="341.3807">Floor</text><line style="stroke:#181818;stroke-width:0.5;" x1="222.63" x2="425.3693" y1="349.6825" y2="349.6825"/><line style="stroke:#181818;stroke-width:0.5;" x1="222.63" x2="425.3693" y1="357.6825" y2="357.6825"/><g data-visibility-modifier="PUBLIC_METHOD"><ellipse cx="232.63" cy="371.3309" fill="#84BE84" rx="3" ry="3" style="stroke:#038048;stroke-width:1;"/></g><text fill="#000000" font-family="sans-serif" font-size="14" lengthAdjust="spacing" textLength="178.7393" x="241.63" y="374.6776">createFloor(width, depth)</text></g><!--class Ceiling--><g class="entity" data-entity="Ceiling" data-source-line="15" data-uid="ent0007" id="entity_Ceiling"><rect fill="#F1F1F1" height="72.5625" rx="2.5" ry="2.5" style="stroke:#181818;stroke-width:0.5;" width="271.2529" x="461.37" y="309.4169"/><ellipse cx="564.9193" cy="329.5497" fill="#ADD1B2" rx="11" ry="11" style="stroke:#181818;stroke-width:1;"/><path d="M567.8881,335.1903 Q567.3099,335.4872 566.6693,335.6278 Q566.0287,335.7841 565.3256,335.7841 Q562.8256,335.7841 561.4974,334.1434 Q560.1849,332.4872 560.1849,329.3622 Q560.1849,326.2372 561.4974,324.5809 Q562.8256,322.9247 565.3256,322.9247 Q566.0287,322.9247 566.6693,323.0809 Q567.3256,323.2372 567.8881,323.5341 L567.8881,326.2528 Q567.2631,325.6747 566.6693,325.4091 Q566.0756,325.1278 565.4506,325.1278 Q564.1068,325.1278 563.4193,326.2059 Q562.7318,327.2684 562.7318,329.3622 Q562.7318,331.4559 563.4193,332.5341 Q564.1068,333.5966 565.4506,333.5966 Q566.0756,333.5966 566.6693,333.3309 Q567.2631,333.0497 567.8881,332.4716 L567.8881,335.1903 Z " fill="#000000"/><text fill="#000000" font-family="sans-serif" font-size="12" font-style="italic" lengthAdjust="spacing" textLength="59.6543" x="583.4193" y="325.5555">&#171;module&#187;</text><text fill="#000000" font-family="sans-serif" font-size="14" lengthAdjust="spacing" textLength="47.8174" x="589.3378" y="341.3807">Ceiling</text><line style="stroke:#181818;stroke-width:0.5;" x1="462.37" x2="731.6229" y1="349.6825" y2="349.6825"/><line style="stroke:#181818;stroke-width:0.5;" x1="462.37" x2="731.6229" y1="357.6825" y2="357.6825"/><g data-visibility-modifier="PUBLIC_METHOD"><ellipse cx="472.37" cy="371.3309" fill="#84BE84" rx="3" ry="3" style="stroke:#038048;stroke-width:1;"/></g><text fill="#000000" font-family="sans-serif" font-size="14" lengthAdjust="spacing" textLength="245.2529" x="481.37" y="374.6776">createCeiling(width, depth, height)</text></g><!--class Materials--><g class="entity" data-entity="Materials" data-source-line="18" data-uid="ent0008" id="entity_Materials"><rect fill="#F1F1F1" height="72.5625" rx="2.5" ry="2.5" style="stroke:#181818;stroke-width:0.5;" width="168.748" x="767.63" y="309.4169"/><ellipse cx="815.6696" cy="329.5497" fill="#ADD1B2" rx="11" ry="11" style="stroke:#181818;stroke-width:1;"/><path d="M818.6383,335.1903 Q818.0602,335.4872 817.4196,335.6278 Q816.7789,335.7841 816.0758,335.7841 Q813.5758,335.7841 812.2477,334.1434 Q810.9352,332.4872 810.9352,329.3622 Q810.9352,326.2372 812.2477,324.5809 Q813.5758,322.9247 816.0758,322.9247 Q816.7789,322.9247 817.4196,323.0809 Q818.0758,323.2372 818.6383,323.5341 L818.6383,326.2528 Q818.0133,325.6747 817.4196,325.4091 Q816.8258,325.1278 816.2008,325.1278 Q814.8571,325.1278 814.1696,326.2059 Q813.4821,327.2684 813.4821,329.3622 Q813.4821,331.4559 814.1696,332.5341 Q814.8571,333.5966 816.2008,333.5966 Q816.8258,333.5966 817.4196,333.3309 Q818.0133,333.0497 818.6383,332.4716 L818.6383,335.1903 Z " fill="#000000"/><text fill="#000000" font-family="sans-serif" font-size="12" font-style="italic" lengthAdjust="spacing" textLength="59.6543" x="838.4269" y="325.5555">&#171;module&#187;</text><text fill="#000000" font-family="sans-serif" font-size="14" lengthAdjust="spacing" textLength="64.1689" x="836.1696" y="341.3807">Materials</text><line style="stroke:#181818;stroke-width:0.5;" x1="768.63" x2="935.378" y1="349.6825" y2="349.6825"/><line style="stroke:#181818;stroke-width:0.5;" x1="768.63" x2="935.378" y1="357.6825" y2="357.6825"/><g data-visibility-modifier="PUBLIC_METHOD"><ellipse cx="778.63" cy="371.3309" fill="#84BE84" rx="3" ry="3" style="stroke:#038048;stroke-width:1;"/></g><text fill="#000000" font-family="sans-serif" font-size="14" lengthAdjust="spacing" textLength="142.748" x="787.63" y="374.6776">createWallMaterial()</text></g><!--class ShelfModel--><g class="entity" data-entity="ShelfModel" data-source-line="23" data-uid="ent0010" id="entity_ShelfModel"><rect fill="#F1F1F1" height="105.1563" rx="2.5" ry="2.5" style="stroke:#181818;stroke-width:0.5;" width="185.1611" x="971.42" y="293.1169"/><ellipse cx="1021.1378" cy="313.2497" fill="#ADD1B2" rx="11" ry="11" style="stroke:#181818;stroke-width:1;"/><path d="M1024.1065,318.8903 Q1023.5284,319.1872 1022.8878,319.3278 Q1022.2471,319.4841 1021.544,319.4841 Q1019.044,319.4841 1017.7159,317.8434 Q1016.4034,316.1872 1016.4034,313.0622 Q1016.4034,309.9372 1017.7159,308.2809 Q1019.044,306.6247 1021.544,306.6247 Q1022.2471,306.6247 1022.8878,306.7809 Q1023.544,306.9372 1024.1065,307.2341 L1024.1065,309.9528 Q1023.4815,309.3747 1022.8878,309.1091 Q1022.294,308.8278 1021.669,308.8278 Q1020.3253,308.8278 1019.6378,309.9059 Q1018.9503,310.9684 1018.9503,313.0622 Q1018.9503,315.1559 1019.6378,316.2341 Q1020.3253,317.2966 1021.669,317.2966 Q1022.294,317.2966 1022.8878,317.0309 Q1023.4815,316.7497 1024.1065,316.1716 L1024.1065,318.8903 Z " fill="#000000"/><text fill="#000000" font-family="sans-serif" font-size="12" font-style="italic" lengthAdjust="spacing" textLength="59.6543" x="1050.4234" y="309.2555">&#171;module&#187;</text><text fill="#000000" font-family="sans-serif" font-size="14" lengthAdjust="spacing" textLength="77.2256" x="1041.6378" y="325.0807">ShelfModel</text><line style="stroke:#181818;stroke-width:0.5;" x1="972.42" x2="1155.5811" y1="333.3825" y2="333.3825"/><line style="stroke:#181818;stroke-width:0.5;" x1="972.42" x2="1155.5811" y1="341.3825" y2="341.3825"/><g data-visibility-modifier="PUBLIC_METHOD"><ellipse cx="982.42" cy="355.0309" fill="#84BE84" rx="3" ry="3" style="stroke:#038048;stroke-width:1;"/></g><text fill="#000000" font-family="sans-serif" font-size="14" lengthAdjust="spacing" textLength="159.1611" x="991.42" y="358.3776">loadShelfModel(scene)</text><g data-visibility-modifier="PUBLIC_METHOD"><ellipse cx="982.42" cy="371.3278" fill="#84BE84" rx="3" ry="3" style="stroke:#038048;stroke-width:1;"/></g><text fill="#000000" font-family="sans-serif" font-size="14" lengthAdjust="spacing" textLength="87.3291" x="991.42" y="374.6745">setPosition()</text><g data-visibility-modifier="PUBLIC_METHOD"><ellipse cx="982.42" cy="387.6247" fill="#84BE84" rx="3" ry="3" style="stroke:#038048;stroke-width:1;"/></g><text fill="#000000" font-family="sans-serif" font-size="14" lengthAdjust="spacing" textLength="69.9863" x="991.42" y="390.9714">setScale()</text></g><!--class ShelfPlacement--><g class="entity" data-entity="ShelfPlacement" data-source-line="29" data-uid="ent0011" id="entity_ShelfPlacement"><rect fill="#F1F1F1" height="72.5625" rx="2.5" ry="2.5" style="stroke:#181818;stroke-width:0.5;" width="297.2705" x="1191.36" y="309.4169"/><ellipse cx="1281.2321" cy="329.5497" fill="#ADD1B2" rx="11" ry="11" style="stroke:#181818;stroke-width:1;"/><path d="M1284.2008,335.1903 Q1283.6227,335.4872 1282.9821,335.6278 Q1282.3414,335.7841 1281.6383,335.7841 Q1279.1383,335.7841 1277.8102,334.1434 Q1276.4977,332.4872 1276.4977,329.3622 Q1276.4977,326.2372 1277.8102,324.5809 Q1279.1383,322.9247 1281.6383,322.9247 Q1282.3414,322.9247 1282.9821,323.0809 Q1283.6383,323.2372 1284.2008,323.5341 L1284.2008,326.2528 Q1283.5758,325.6747 1282.9821,325.4091 Q1282.3883,325.1278 1281.7633,325.1278 Q1280.4196,325.1278 1279.7321,326.2059 Q1279.0446,327.2684 1279.0446,329.3622 Q1279.0446,331.4559 1279.7321,332.5341 Q1280.4196,333.5966 1281.7633,333.5966 Q1282.3883,333.5966 1282.9821,333.3309 Q1283.5758,333.0497 1284.2008,332.4716 L1284.2008,335.1903 Z " fill="#000000"/><text fill="#000000" font-family="sans-serif" font-size="12" font-style="italic" lengthAdjust="spacing" textLength="59.6543" x="1326.4181" y="325.5555">&#171;module&#187;</text><text fill="#000000" font-family="sans-serif" font-size="14" lengthAdjust="spacing" textLength="109.0264" x="1301.7321" y="341.3807">ShelfPlacement</text><line style="stroke:#181818;stroke-width:0.5;" x1="1192.36" x2="1487.6305" y1="349.6825" y2="349.6825"/><line style="stroke:#181818;stroke-width:0.5;" x1="1192.36" x2="1487.6305" y1="357.6825" y2="357.6825"/><g data-visibility-modifier="PUBLIC_METHOD"><ellipse cx="1202.36" cy="371.3309" fill="#84BE84" rx="3" ry="3" style="stroke:#038048;stroke-width:1;"/></g><text fill="#000000" font-family="sans-serif" font-size="14" lengthAdjust="spacing" textLength="271.2705" x="1211.36" y="374.6776">placeShelves(scene, roomDimensions)</text></g><!--class CreateScene--><g class="entity" data-entity="CreateScene" data-source-line="3" data-uid="ent0002" id="entity_CreateScene"><rect fill="#F1F1F1" height="56.2656" rx="2.5" ry="2.5" style="stroke:#181818;stroke-width:0.5;" width="121.5098" x="663.25" y="44.2969"/><ellipse cx="678.25" cy="64.4297" fill="#ADD1B2" rx="11" ry="11" style="stroke:#181818;stroke-width:1;"/><path d="M681.2188,70.0703 Q680.6406,70.3672 680,70.5078 Q679.3594,70.6641 678.6563,70.6641 Q676.1563,70.6641 674.8281,69.0234 Q673.5156,67.3672 673.5156,64.2422 Q673.5156,61.1172 674.8281,59.4609 Q676.1563,57.8047 678.6563,57.8047 Q679.3594,57.8047 680,57.9609 Q680.6563,58.1172 681.2188,58.4141 L681.2188,61.1328 Q680.5938,60.5547 680,60.2891 Q679.4063,60.0078 678.7813,60.0078 Q677.4375,60.0078 676.75,61.0859 Q676.0625,62.1484 676.0625,64.2422 Q676.0625,66.3359 676.75,67.4141 Q677.4375,68.4766 678.7813,68.4766 Q679.4063,68.4766 680,68.2109 Q680.5938,67.9297 681.2188,67.3516 L681.2188,70.0703 Z " fill="#000000"/><text fill="#000000" font-family="sans-serif" font-size="12" font-style="italic" lengthAdjust="spacing" textLength="59.6543" x="707.1777" y="60.4355">&#171;module&#187;</text><text fill="#000000" font-family="sans-serif" font-size="14" lengthAdjust="spacing" textLength="89.5098" x="692.25" y="76.2607">CreateScene</text><line style="stroke:#181818;stroke-width:0.5;" x1="664.25" x2="783.7598" y1="84.5625" y2="84.5625"/><line style="stroke:#181818;stroke-width:0.5;" x1="664.25" x2="783.7598" y1="92.5625" y2="92.5625"/></g><!--link CreateScene to RoomJS--><g class="link" data-entity-1="CreateScene" data-entity-2="RoomJS" data-source-line="35" data-uid="lnk12" id="link_CreateScene_RoomJS"><path codeLine="35" d="M724,100.8969 C724,118.3769 724,135.1969 724,154.0869" fill="none" id="CreateScene-to-RoomJS" style="stroke:#181818;stroke-width:1;"/><polygon fill="#181818" points="724,160.0869,728,151.0869,724,155.0869,720,151.0869,724,160.0869" style="stroke:#181818;stroke-width:1;"/></g><!--link RoomJS to Wall--><g class="link" data-entity-1="RoomJS" data-entity-2="Wall" data-source-line="36" data-uid="lnk13" id="link_RoomJS_Wall"><path codeLine="36" d="M642.01,199.6769 C515.65,203.5669 279.97,215.3869 204,250.1169 C175.1,263.3369 153.1582,283.8115 134.9782,304.8015" fill="none" id="RoomJS-to-Wall" style="stroke:#181818;stroke-width:1;"/><polygon fill="#181818" points="131.05,309.3369,139.9658,305.1526,134.3235,305.5574,133.9187,299.9151,131.05,309.3369" style="stroke:#181818;stroke-width:1;"/></g><!--link RoomJS to Floor--><g class="link" data-entity-1="RoomJS" data-entity-2="Floor" data-source-line="37" data-uid="lnk14" id="link_RoomJS_Floor"><path codeLine="37" d="M642.15,202.7269 C584.6,208.6069 506.93,221.5569 444,250.1169 C412.48,264.4269 386.3471,284.6881 363.9571,305.0681" fill="none" id="RoomJS-to-Floor" style="stroke:#181818;stroke-width:1;"/><polygon fill="#181818" points="359.52,309.1069,368.8682,306.0068,363.2176,305.7412,363.4832,300.0906,359.52,309.1069" style="stroke:#181818;stroke-width:1;"/></g><!--link RoomJS to Ceiling--><g class="link" data-entity-1="RoomJS" data-entity-2="Ceiling" data-source-line="38" data-uid="lnk15" id="link_RoomJS_Ceiling"><path codeLine="38" d="M693.26,233.3869 C673.44,256.3069 651.6741,281.468 631.8241,304.428" fill="none" id="RoomJS-to-Ceiling" style="stroke:#181818;stroke-width:1;"/><polygon fill="#181818" points="627.9,308.9669,636.8121,304.7746,631.1701,305.1845,630.7602,299.5425,627.9,308.9669" style="stroke:#181818;stroke-width:1;"/></g><!--link RoomJS to Materials--><g class="link" data-entity-1="RoomJS" data-entity-2="Materials" data-source-line="39" data-uid="lnk16" id="link_RoomJS_Materials"><path codeLine="39" d="M754.99,233.3869 C774.96,256.3069 796.9079,281.4836 816.9179,304.4436" fill="none" id="RoomJS-to-Materials" style="stroke:#181818;stroke-width:1;"/><polygon fill="#181818" points="820.86,308.9669,817.9624,299.5539,817.5749,305.1975,811.9314,304.81,820.86,308.9669" style="stroke:#181818;stroke-width:1;"/></g><!--link RoomJS to ShelfModel--><g class="link" data-entity-1="RoomJS" data-entity-2="ShelfModel" data-source-line="40" data-uid="lnk17" id="link_RoomJS_ShelfModel"><path codeLine="40" d="M805.88,203.9869 C854.96,210.3869 917.28,223.4469 967,250.1169 C987.11,260.9069 1001.7061,272.8061 1017.2961,288.7561" fill="none" id="RoomJS-to-ShelfModel" style="stroke:#181818;stroke-width:1;"/><polygon fill="#181818" points="1021.49,293.0469,1018.0596,283.8147,1017.995,289.4712,1012.3386,289.4067,1021.49,293.0469" style="stroke:#181818;stroke-width:1;"/></g><!--link RoomJS to ShelfPlacement--><g class="link" data-entity-1="RoomJS" data-entity-2="ShelfPlacement" data-source-line="41" data-uid="lnk18" id="link_RoomJS_ShelfPlacement"><path codeLine="41" d="M805.75,197.5969 C897.56,199.5469 1049.94,209.4469 1174,250.1169 C1215.45,263.7069 1253.0862,285.0064 1284.7862,305.7064" fill="none" id="RoomJS-to-ShelfPlacement" style="stroke:#181818;stroke-width:1;"/><polygon fill="#181818" points="1289.81,308.9869,1284.4613,300.7169,1285.6235,306.2531,1280.0873,307.4153,1289.81,308.9869" style="stroke:#181818;stroke-width:1;"/></g><!--SRC=[XLBDJeGm4BxtAIQSCC8RRBZiwi5aauqSF4zWXCP2IQTgZF6HV0fVpBPqsIeHEK3uvlk- -RNIAeA3nCxWWD0ID0gP64gurtg0DxXXYwCby_M9B8IFCkmDeQMweP5Wjnjq-woegeIOi7d2ZY0pJfl1km3tp1BlTbSdx1ZrptKJ_3mbPszw5K8VYVm1bTeKUq8-eUk2r-fRfRNPb0T6_YfRsnTk2fFjrovxaagEtQPFvFnmAg0dsVLsxNXq2YDHyR-jdPdvsIHybdbpJ-g5E4l4SuRQ1HwFkgK_fXVIA8tjXPYkOA4msPDcQQKUytMeRb1HWiVoVfLnKjZGGAFTA6Nod7hkPYwa07zC1-c4xB9pccL-kspfGPPb5QzDnAFpY1zY-XyMdW9nSocqh2S5BuDQeKk3tm00]--></g></svg>