<svg xmlns="http://www.w3.org/2000/svg" xmlns:xlink="http://www.w3.org/1999/xlink" contentStyleType="text/css" data-diagram-type="CLASS" height="610px" preserveAspectRatio="none" style="width:2314px;height:610px;background:#FFFFFF;" version="1.1" viewBox="0 0 2314 610" width="2314px" zoomAndPan="magnify"><title>Diagrama de clases - Subsistema Room (actualizado)</title><defs/><g><g class="title" data-source-line="1"><text fill="#000000" font-family="sans-serif" font-size="14" font-weight="bold" lengthAdjust="spacing" textLength="419.3984" x="940.3008" y="22.9951">Diagrama de clases - Subsistema Room (actualizado)</text></g><!--cluster room--><g class="cluster" data-qualified-name="room" data-source-line="5" id="ent0003"><path d="M8.5,125.5569 L50.2285,125.5569 A3.75,3.75 0 0 1 52.7285,128.0569 L59.7285,147.8538 L2304.5,147.8538 A2.5,2.5 0 0 1 2307,150.3538 L2307,600.9369 A2.5,2.5 0 0 1 2304.5,603.4369 L8.5,603.4369 A2.5,2.5 0 0 1 6,600.9369 L6,128.0569 A2.5,2.5 0 0 1 8.5,125.5569" fill="none" style="stroke:#000000;stroke-width:1.5;"/><line style="stroke:#000000;stroke-width:1.5;" x1="6" x2="59.7285" y1="147.8538" y2="147.8538"/><text fill="#000000" font-family="sans-serif" font-size="14" font-weight="bold" lengthAdjust="spacing" textLength="40.7285" x="10" y="140.552">room</text></g><!--cluster logos--><g class="cluster" data-qualified-name="room.logos" data-source-line="29" id="ent0009"><path d="M1331.5,282.5669 L1374.8896,282.5669 A3.75,3.75 0 0 1 1377.3896,285.0669 L1384.3896,304.8638 L1748.5,304.8638 A2.5,2.5 0 0 1 1751,307.3638 L1751,568.7869 A2.5,2.5 0 0 1 1748.5,571.2869 L1331.5,571.2869 A2.5,2.5 0 0 1 1329,568.7869 L1329,285.0669 A2.5,2.5 0 0 1 1331.5,282.5669" fill="none" style="stroke:#000000;stroke-width:1.5;"/><line style="stroke:#000000;stroke-width:1.5;" x1="1329" x2="1384.3896" y1="304.8638" y2="304.8638"/><text fill="#000000" font-family="sans-serif" font-size="14" font-weight="bold" lengthAdjust="spacing" textLength="42.3896" x="1333" y="297.562">logos</text></g><!--cluster shelves--><g class="cluster" data-qualified-name="room.shelves" data-source-line="39" id="ent0012"><path d="M1777.5,282.5669 L1838.0479,282.5669 A3.75,3.75 0 0 1 1840.5479,285.0669 L1847.5479,304.8638 L2280.5,304.8638 A2.5,2.5 0 0 1 2283,307.3638 L2283,576.9369 A2.5,2.5 0 0 1 2280.5,579.4369 L1777.5,579.4369 A2.5,2.5 0 0 1 1775,576.9369 L1775,285.0669 A2.5,2.5 0 0 1 1777.5,282.5669" fill="none" style="stroke:#000000;stroke-width:1.5;"/><line style="stroke:#000000;stroke-width:1.5;" x1="1775" x2="1847.5479" y1="304.8638" y2="304.8638"/><text fill="#000000" font-family="sans-serif" font-size="14" font-weight="bold" lengthAdjust="spacing" textLength="59.5479" x="1779" y="297.562">shelves</text></g><!--class RoomJS--><g class="entity" data-qualified-name="room.RoomJS" data-source-line="6" id="ent0004"><rect fill="#F1F1F1" height="72.5625" rx="2.5" ry="2.5" style="stroke:#181818;stroke-width:0.5;" width="163.2588" x="962.37" y="160.5569"/><ellipse cx="1011.9222" cy="180.6897" fill="#ADD1B2" rx="11" ry="11" style="stroke:#181818;stroke-width:1;"/><path d="M1014.891,186.3303 Q1014.3129,186.6272 1013.6722,186.7678 Q1013.0316,186.9241 1012.3285,186.9241 Q1009.8285,186.9241 1008.5004,185.2834 Q1007.1879,183.6272 1007.1879,180.5022 Q1007.1879,177.3772 1008.5004,175.7209 Q1009.8285,174.0647 1012.3285,174.0647 Q1013.0316,174.0647 1013.6722,174.2209 Q1014.3285,174.3772 1014.891,174.6741 L1014.891,177.3928 Q1014.266,176.8147 1013.6722,176.5491 Q1013.0785,176.2678 1012.4535,176.2678 Q1011.1097,176.2678 1010.4222,177.3459 Q1009.7347,178.4084 1009.7347,180.5022 Q1009.7347,182.5959 1010.4222,183.6741 Q1011.1097,184.7366 1012.4535,184.7366 Q1013.0785,184.7366 1013.6722,184.4709 Q1014.266,184.1897 1014.891,183.6116 L1014.891,186.3303 Z " fill="#000000"/><text fill="#000000" font-family="sans-serif" font-size="12" font-style="italic" lengthAdjust="spacing" textLength="59.6543" x="1030.4222" y="176.6955">&#171;module&#187;</text><text fill="#000000" font-family="sans-serif" font-size="14" lengthAdjust="spacing" textLength="53.5117" x="1033.4935" y="192.5207">RoomJS</text><line style="stroke:#181818;stroke-width:0.5;" x1="963.37" x2="1124.6288" y1="200.8225" y2="200.8225"/><line style="stroke:#181818;stroke-width:0.5;" x1="963.37" x2="1124.6288" y1="208.8225" y2="208.8225"/><g data-visibility-modifier="PUBLIC_METHOD"><ellipse cx="973.37" cy="222.4709" fill="#84BE84" rx="3" ry="3" style="stroke:#038048;stroke-width:1;"/></g><text fill="#000000" font-family="sans-serif" font-size="14" lengthAdjust="spacing" textLength="137.2588" x="982.37" y="225.8176">createRoom(scene)</text></g><!--class Wall--><g class="entity" data-qualified-name="room.Wall" data-source-line="10" id="ent0005"><rect fill="#F1F1F1" height="72.5625" rx="2.5" ry="2.5" style="stroke:#181818;stroke-width:0.5;" width="382.4395" x="21.78" y="317.5669"/><ellipse cx="180.9226" cy="337.6997" fill="#ADD1B2" rx="11" ry="11" style="stroke:#181818;stroke-width:1;"/><path d="M183.8913,343.3403 Q183.3132,343.6372 182.6726,343.7778 Q182.032,343.9341 181.3288,343.9341 Q178.8288,343.9341 177.5007,342.2934 Q176.1882,340.6372 176.1882,337.5122 Q176.1882,334.3872 177.5007,332.7309 Q178.8288,331.0747 181.3288,331.0747 Q182.032,331.0747 182.6726,331.2309 Q183.3288,331.3872 183.8913,331.6841 L183.8913,334.4028 Q183.2663,333.8247 182.6726,333.5591 Q182.0788,333.2778 181.4538,333.2778 Q180.1101,333.2778 179.4226,334.3559 Q178.7351,335.4184 178.7351,337.5122 Q178.7351,339.6059 179.4226,340.6841 Q180.1101,341.7466 181.4538,341.7466 Q182.0788,341.7466 182.6726,341.4809 Q183.2663,341.1997 183.8913,340.6216 L183.8913,343.3403 Z " fill="#000000"/><text fill="#000000" font-family="sans-serif" font-size="12" font-style="italic" lengthAdjust="spacing" textLength="59.6543" x="199.4226" y="333.7055">&#171;module&#187;</text><text fill="#000000" font-family="sans-serif" font-size="14" lengthAdjust="spacing" textLength="30.2012" x="214.1491" y="349.5307">Wall</text><line style="stroke:#181818;stroke-width:0.5;" x1="22.78" x2="403.2195" y1="357.8325" y2="357.8325"/><line style="stroke:#181818;stroke-width:0.5;" x1="22.78" x2="403.2195" y1="365.8325" y2="365.8325"/><g data-visibility-modifier="PUBLIC_METHOD"><ellipse cx="32.78" cy="379.4809" fill="#84BE84" rx="3" ry="3" style="stroke:#038048;stroke-width:1;"/></g><text fill="#000000" font-family="sans-serif" font-size="14" lengthAdjust="spacing" textLength="356.4395" x="41.78" y="382.8276">createWall(scene, width, height, position, rotation)</text></g><!--class Floor--><g class="entity" data-qualified-name="room.Floor" data-source-line="14" id="ent0006"><rect fill="#F1F1F1" height="72.5625" rx="2.5" ry="2.5" style="stroke:#181818;stroke-width:0.5;" width="254.7305" x="439.63" y="317.5669"/><ellipse cx="534.9181" cy="337.6997" fill="#ADD1B2" rx="11" ry="11" style="stroke:#181818;stroke-width:1;"/><path d="M537.8868,343.3403 Q537.3087,343.6372 536.6681,343.7778 Q536.0275,343.9341 535.3243,343.9341 Q532.8243,343.9341 531.4962,342.2934 Q530.1837,340.6372 530.1837,337.5122 Q530.1837,334.3872 531.4962,332.7309 Q532.8243,331.0747 535.3243,331.0747 Q536.0275,331.0747 536.6681,331.2309 Q537.3243,331.3872 537.8868,331.6841 L537.8868,334.4028 Q537.2618,333.8247 536.6681,333.5591 Q536.0743,333.2778 535.4493,333.2778 Q534.1056,333.2778 533.4181,334.3559 Q532.7306,335.4184 532.7306,337.5122 Q532.7306,339.6059 533.4181,340.6841 Q534.1056,341.7466 535.4493,341.7466 Q536.0743,341.7466 536.6681,341.4809 Q537.2618,341.1997 537.8868,340.6216 L537.8868,343.3403 Z " fill="#000000"/><text fill="#000000" font-family="sans-serif" font-size="12" font-style="italic" lengthAdjust="spacing" textLength="59.6543" x="553.4181" y="333.7055">&#171;module&#187;</text><text fill="#000000" font-family="sans-serif" font-size="14" lengthAdjust="spacing" textLength="34.8291" x="565.8307" y="349.5307">Floor</text><line style="stroke:#181818;stroke-width:0.5;" x1="440.63" x2="693.3605" y1="357.8325" y2="357.8325"/><line style="stroke:#181818;stroke-width:0.5;" x1="440.63" x2="693.3605" y1="365.8325" y2="365.8325"/><g data-visibility-modifier="PUBLIC_METHOD"><ellipse cx="450.63" cy="379.4809" fill="#84BE84" rx="3" ry="3" style="stroke:#038048;stroke-width:1;"/></g><text fill="#000000" font-family="sans-serif" font-size="14" lengthAdjust="spacing" textLength="228.7305" x="459.63" y="382.8276">createFloor(scene, width, depth)</text></g><!--class Ceiling--><g class="entity" data-qualified-name="room.Ceiling" data-source-line="18" id="ent0007"><rect fill="#F1F1F1" height="72.5625" rx="2.5" ry="2.5" style="stroke:#181818;stroke-width:0.5;" width="321.2441" x="729.38" y="317.5669"/><ellipse cx="857.9249" cy="337.6997" fill="#ADD1B2" rx="11" ry="11" style="stroke:#181818;stroke-width:1;"/><path d="M860.8937,343.3403 Q860.3155,343.6372 859.6749,343.7778 Q859.0343,343.9341 858.3312,343.9341 Q855.8312,343.9341 854.503,342.2934 Q853.1905,340.6372 853.1905,337.5122 Q853.1905,334.3872 854.503,332.7309 Q855.8312,331.0747 858.3312,331.0747 Q859.0343,331.0747 859.6749,331.2309 Q860.3312,331.3872 860.8937,331.6841 L860.8937,334.4028 Q860.2687,333.8247 859.6749,333.5591 Q859.0812,333.2778 858.4562,333.2778 Q857.1124,333.2778 856.4249,334.3559 Q855.7374,335.4184 855.7374,337.5122 Q855.7374,339.6059 856.4249,340.6841 Q857.1124,341.7466 858.4562,341.7466 Q859.0812,341.7466 859.6749,341.4809 Q860.2687,341.1997 860.8937,340.6216 L860.8937,343.3403 Z " fill="#000000"/><text fill="#000000" font-family="sans-serif" font-size="12" font-style="italic" lengthAdjust="spacing" textLength="59.6543" x="876.4249" y="333.7055">&#171;module&#187;</text><text fill="#000000" font-family="sans-serif" font-size="14" lengthAdjust="spacing" textLength="47.8174" x="882.3434" y="349.5307">Ceiling</text><line style="stroke:#181818;stroke-width:0.5;" x1="730.38" x2="1049.6241" y1="357.8325" y2="357.8325"/><line style="stroke:#181818;stroke-width:0.5;" x1="730.38" x2="1049.6241" y1="365.8325" y2="365.8325"/><g data-visibility-modifier="PUBLIC_METHOD"><ellipse cx="740.38" cy="379.4809" fill="#84BE84" rx="3" ry="3" style="stroke:#038048;stroke-width:1;"/></g><text fill="#000000" font-family="sans-serif" font-size="14" lengthAdjust="spacing" textLength="295.2441" x="749.38" y="382.8276">createCeiling(scene, width, depth, height)</text></g><!--class Materials--><g class="entity" data-qualified-name="room.Materials" data-source-line="22" id="ent0008"><rect fill="#F1F1F1" height="121.4531" rx="2.5" ry="2.5" style="stroke:#181818;stroke-width:0.5;" width="227.4551" x="1085.27" y="293.1269"/><ellipse cx="1162.6631" cy="313.2597" fill="#ADD1B2" rx="11" ry="11" style="stroke:#181818;stroke-width:1;"/><path d="M1165.6318,318.9003 Q1165.0537,319.1972 1164.4131,319.3378 Q1163.7724,319.4941 1163.0693,319.4941 Q1160.5693,319.4941 1159.2412,317.8534 Q1157.9287,316.1972 1157.9287,313.0722 Q1157.9287,309.9472 1159.2412,308.2909 Q1160.5693,306.6347 1163.0693,306.6347 Q1163.7724,306.6347 1164.4131,306.7909 Q1165.0693,306.9472 1165.6318,307.2441 L1165.6318,309.9628 Q1165.0068,309.3847 1164.4131,309.1191 Q1163.8193,308.8378 1163.1943,308.8378 Q1161.8506,308.8378 1161.1631,309.9159 Q1160.4756,310.9784 1160.4756,313.0722 Q1160.4756,315.1659 1161.1631,316.2441 Q1161.8506,317.3066 1163.1943,317.3066 Q1163.8193,317.3066 1164.4131,317.0409 Q1165.0068,316.7597 1165.6318,316.1816 L1165.6318,318.9003 Z " fill="#000000"/><text fill="#000000" font-family="sans-serif" font-size="12" font-style="italic" lengthAdjust="spacing" textLength="59.6543" x="1185.4204" y="309.2655">&#171;module&#187;</text><text fill="#000000" font-family="sans-serif" font-size="14" lengthAdjust="spacing" textLength="64.1689" x="1183.1631" y="325.0907">Materials</text><line style="stroke:#181818;stroke-width:0.5;" x1="1086.27" x2="1311.7251" y1="333.3925" y2="333.3925"/><line style="stroke:#181818;stroke-width:0.5;" x1="1086.27" x2="1311.7251" y1="341.3925" y2="341.3925"/><g data-visibility-modifier="PUBLIC_METHOD"><ellipse cx="1096.27" cy="355.0409" fill="#84BE84" rx="3" ry="3" style="stroke:#038048;stroke-width:1;"/></g><text fill="#000000" font-family="sans-serif" font-size="14" lengthAdjust="spacing" textLength="183.8389" x="1105.27" y="358.3876">createWallMaterial(scene)</text><g data-visibility-modifier="PUBLIC_METHOD"><ellipse cx="1096.27" cy="371.3378" fill="#84BE84" rx="3" ry="3" style="stroke:#038048;stroke-width:1;"/></g><text fill="#000000" font-family="sans-serif" font-size="14" lengthAdjust="spacing" textLength="188.4668" x="1105.27" y="374.6845">createFloorMaterial(scene)</text><g data-visibility-modifier="PUBLIC_METHOD"><ellipse cx="1096.27" cy="387.6347" fill="#84BE84" rx="3" ry="3" style="stroke:#038048;stroke-width:1;"/></g><text fill="#000000" font-family="sans-serif" font-size="14" lengthAdjust="spacing" textLength="201.4551" x="1105.27" y="390.9814">createCeilingMaterial(scene)</text><g data-visibility-modifier="PUBLIC_METHOD"><ellipse cx="1096.27" cy="403.9316" fill="#84BE84" rx="3" ry="3" style="stroke:#038048;stroke-width:1;"/></g><text fill="#000000" font-family="sans-serif" font-size="14" lengthAdjust="spacing" textLength="188.8291" x="1105.27" y="407.2782">createShelfMaterial(scene)</text></g><!--class LogoModel--><g class="entity" data-qualified-name="room.logos.LogoModel" data-source-line="30" id="ent0010"><rect fill="#F1F1F1" height="72.5625" rx="2.5" ry="2.5" style="stroke:#181818;stroke-width:0.5;" width="390.0889" x="1344.96" y="482.7269"/><ellipse cx="1497.8287" cy="502.8597" fill="#ADD1B2" rx="11" ry="11" style="stroke:#181818;stroke-width:1;"/><path d="M1500.7974,508.5003 Q1500.2193,508.7972 1499.5787,508.9378 Q1498.938,509.0941 1498.2349,509.0941 Q1495.7349,509.0941 1494.4068,507.4534 Q1493.0943,505.7972 1493.0943,502.6722 Q1493.0943,499.5472 1494.4068,497.8909 Q1495.7349,496.2347 1498.2349,496.2347 Q1498.938,496.2347 1499.5787,496.3909 Q1500.2349,496.5472 1500.7974,496.8441 L1500.7974,499.5628 Q1500.1724,498.9847 1499.5787,498.7191 Q1498.9849,498.4378 1498.3599,498.4378 Q1497.0162,498.4378 1496.3287,499.5159 Q1495.6412,500.5784 1495.6412,502.6722 Q1495.6412,504.7659 1496.3287,505.8441 Q1497.0162,506.9066 1498.3599,506.9066 Q1498.9849,506.9066 1499.5787,506.6409 Q1500.1724,506.3597 1500.7974,505.7816 L1500.7974,508.5003 Z " fill="#000000"/><text fill="#000000" font-family="sans-serif" font-size="12" font-style="italic" lengthAdjust="spacing" textLength="59.6543" x="1526.4273" y="498.8655">&#171;module&#187;</text><text fill="#000000" font-family="sans-serif" font-size="14" lengthAdjust="spacing" textLength="75.8516" x="1518.3287" y="514.6907">LogoModel</text><line style="stroke:#181818;stroke-width:0.5;" x1="1345.96" x2="1734.0489" y1="522.9925" y2="522.9925"/><line style="stroke:#181818;stroke-width:0.5;" x1="1345.96" x2="1734.0489" y1="530.9925" y2="530.9925"/><g data-visibility-modifier="PUBLIC_METHOD"><ellipse cx="1355.96" cy="544.6409" fill="#84BE84" rx="3" ry="3" style="stroke:#038048;stroke-width:1;"/></g><text fill="#000000" font-family="sans-serif" font-size="14" lengthAdjust="spacing" textLength="364.0889" x="1364.96" y="547.9876">createLogo(scene, name, imagePath, width, height)</text></g><!--class LogoPlacement--><g class="entity" data-qualified-name="room.logos.LogoPlacement" data-source-line="34" id="ent0011"><rect fill="#F1F1F1" height="72.5625" rx="2.5" ry="2.5" style="stroke:#181818;stroke-width:0.5;" width="194.9229" x="1394.54" y="317.5669"/><ellipse cx="1434.4117" cy="337.6997" fill="#ADD1B2" rx="11" ry="11" style="stroke:#181818;stroke-width:1;"/><path d="M1437.3805,343.3403 Q1436.8024,343.6372 1436.1617,343.7778 Q1435.5211,343.9341 1434.818,343.9341 Q1432.318,343.9341 1430.9899,342.2934 Q1429.6774,340.6372 1429.6774,337.5122 Q1429.6774,334.3872 1430.9899,332.7309 Q1432.318,331.0747 1434.818,331.0747 Q1435.5211,331.0747 1436.1617,331.2309 Q1436.818,331.3872 1437.3805,331.6841 L1437.3805,334.4028 Q1436.7555,333.8247 1436.1617,333.5591 Q1435.568,333.2778 1434.943,333.2778 Q1433.5992,333.2778 1432.9117,334.3559 Q1432.2242,335.4184 1432.2242,337.5122 Q1432.2242,339.6059 1432.9117,340.6841 Q1433.5992,341.7466 1434.943,341.7466 Q1435.568,341.7466 1436.1617,341.4809 Q1436.7555,341.1997 1437.3805,340.6216 L1437.3805,343.3403 Z " fill="#000000"/><text fill="#000000" font-family="sans-serif" font-size="12" font-style="italic" lengthAdjust="spacing" textLength="59.6543" x="1477.9378" y="333.7055">&#171;module&#187;</text><text fill="#000000" font-family="sans-serif" font-size="14" lengthAdjust="spacing" textLength="107.6523" x="1453.9388" y="349.5307">LogoPlacement</text><line style="stroke:#181818;stroke-width:0.5;" x1="1395.54" x2="1588.4629" y1="357.8325" y2="357.8325"/><line style="stroke:#181818;stroke-width:0.5;" x1="1395.54" x2="1588.4629" y1="365.8325" y2="365.8325"/><g data-visibility-modifier="PUBLIC_METHOD"><ellipse cx="1405.54" cy="379.4809" fill="#84BE84" rx="3" ry="3" style="stroke:#038048;stroke-width:1;"/></g><text fill="#000000" font-family="sans-serif" font-size="14" lengthAdjust="spacing" textLength="168.9229" x="1414.54" y="382.8276">placeLogo(scene, room)</text></g><!--class ShelfModel--><g class="entity" data-qualified-name="room.shelves.ShelfModel" data-source-line="40" id="ent0013"><rect fill="#F1F1F1" height="72.5625" rx="2.5" ry="2.5" style="stroke:#181818;stroke-width:0.5;" width="255.0859" x="1791.46" y="482.7269"/><ellipse cx="1876.1402" cy="502.8597" fill="#ADD1B2" rx="11" ry="11" style="stroke:#181818;stroke-width:1;"/><path d="M1879.1089,508.5003 Q1878.5308,508.7972 1877.8902,508.9378 Q1877.2496,509.0941 1876.5464,509.0941 Q1874.0464,509.0941 1872.7183,507.4534 Q1871.4058,505.7972 1871.4058,502.6722 Q1871.4058,499.5472 1872.7183,497.8909 Q1874.0464,496.2347 1876.5464,496.2347 Q1877.2496,496.2347 1877.8902,496.3909 Q1878.5464,496.5472 1879.1089,496.8441 L1879.1089,499.5628 Q1878.4839,498.9847 1877.8902,498.7191 Q1877.2964,498.4378 1876.6714,498.4378 Q1875.3277,498.4378 1874.6402,499.5159 Q1873.9527,500.5784 1873.9527,502.6722 Q1873.9527,504.7659 1874.6402,505.8441 Q1875.3277,506.9066 1876.6714,506.9066 Q1877.2964,506.9066 1877.8902,506.6409 Q1878.4839,506.3597 1879.1089,505.7816 L1879.1089,508.5003 Z " fill="#000000"/><text fill="#000000" font-family="sans-serif" font-size="12" font-style="italic" lengthAdjust="spacing" textLength="59.6543" x="1905.4258" y="498.8655">&#171;module&#187;</text><text fill="#000000" font-family="sans-serif" font-size="14" lengthAdjust="spacing" textLength="77.2256" x="1896.6402" y="514.6907">ShelfModel</text><line style="stroke:#181818;stroke-width:0.5;" x1="1792.46" x2="2045.5459" y1="522.9925" y2="522.9925"/><line style="stroke:#181818;stroke-width:0.5;" x1="1792.46" x2="2045.5459" y1="530.9925" y2="530.9925"/><g data-visibility-modifier="PUBLIC_METHOD"><ellipse cx="1802.46" cy="544.6409" fill="#84BE84" rx="3" ry="3" style="stroke:#038048;stroke-width:1;"/></g><text fill="#000000" font-family="sans-serif" font-size="14" lengthAdjust="spacing" textLength="229.0859" x="1811.46" y="547.9876">loadShelfModel(scene, filename)</text></g><!--class ShelfPlacement--><g class="entity" data-qualified-name="room.shelves.ShelfPlacement" data-source-line="44" id="ent0014"><rect fill="#F1F1F1" height="72.5625" rx="2.5" ry="2.5" style="stroke:#181818;stroke-width:0.5;" width="275.293" x="1791.35" y="317.5669"/><ellipse cx="1870.2333" cy="337.6997" fill="#ADD1B2" rx="11" ry="11" style="stroke:#181818;stroke-width:1;"/><path d="M1873.2021,343.3403 Q1872.6239,343.6372 1871.9833,343.7778 Q1871.3427,343.9341 1870.6396,343.9341 Q1868.1396,343.9341 1866.8114,342.2934 Q1865.4989,340.6372 1865.4989,337.5122 Q1865.4989,334.3872 1866.8114,332.7309 Q1868.1396,331.0747 1870.6396,331.0747 Q1871.3427,331.0747 1871.9833,331.2309 Q1872.6396,331.3872 1873.2021,331.6841 L1873.2021,334.4028 Q1872.5771,333.8247 1871.9833,333.5591 Q1871.3896,333.2778 1870.7646,333.2778 Q1869.4208,333.2778 1868.7333,334.3559 Q1868.0458,335.4184 1868.0458,337.5122 Q1868.0458,339.6059 1868.7333,340.6841 Q1869.4208,341.7466 1870.7646,341.7466 Q1871.3896,341.7466 1871.9833,341.4809 Q1872.5771,341.1997 1873.2021,340.6216 L1873.2021,343.3403 Z " fill="#000000"/><text fill="#000000" font-family="sans-serif" font-size="12" font-style="italic" lengthAdjust="spacing" textLength="59.6543" x="1915.4193" y="333.7055">&#171;module&#187;</text><text fill="#000000" font-family="sans-serif" font-size="14" lengthAdjust="spacing" textLength="109.0264" x="1890.7333" y="349.5307">ShelfPlacement</text><line style="stroke:#181818;stroke-width:0.5;" x1="1792.35" x2="2065.643" y1="357.8325" y2="357.8325"/><line style="stroke:#181818;stroke-width:0.5;" x1="1792.35" x2="2065.643" y1="365.8325" y2="365.8325"/><g data-visibility-modifier="PUBLIC_METHOD"><ellipse cx="1802.35" cy="379.4809" fill="#84BE84" rx="3" ry="3" style="stroke:#038048;stroke-width:1;"/></g><text fill="#000000" font-family="sans-serif" font-size="14" lengthAdjust="spacing" textLength="249.293" x="1811.35" y="382.8276">placeShelves(scene, room) : Shelf[]</text></g><!--class ShelfSlots--><g class="entity" data-qualified-name="room.shelves.ShelfSlots" data-source-line="48" id="ent0015"><rect fill="#F1F1F1" height="88.8594" rx="2.5" ry="2.5" style="stroke:#181818;stroke-width:0.5;" width="185.4551" x="2081.27" y="474.5769"/><ellipse cx="2135.0893" cy="494.7097" fill="#ADD1B2" rx="11" ry="11" style="stroke:#181818;stroke-width:1;"/><path d="M2138.0581,500.3503 Q2137.48,500.6472 2136.8393,500.7878 Q2136.1987,500.9441 2135.4956,500.9441 Q2132.9956,500.9441 2131.6675,499.3034 Q2130.355,497.6472 2130.355,494.5222 Q2130.355,491.3972 2131.6675,489.7409 Q2132.9956,488.0847 2135.4956,488.0847 Q2136.1987,488.0847 2136.8393,488.2409 Q2137.4956,488.3972 2138.0581,488.6941 L2138.0581,491.4128 Q2137.4331,490.8347 2136.8393,490.5691 Q2136.2456,490.2878 2135.6206,490.2878 Q2134.2768,490.2878 2133.5893,491.3659 Q2132.9018,492.4284 2132.9018,494.5222 Q2132.9018,496.6159 2133.5893,497.6941 Q2134.2768,498.7566 2135.6206,498.7566 Q2136.2456,498.7566 2136.8393,498.4909 Q2137.4331,498.2097 2138.0581,497.6316 L2138.0581,500.3503 Z " fill="#000000"/><text fill="#000000" font-family="sans-serif" font-size="12" font-style="italic" lengthAdjust="spacing" textLength="59.6543" x="2160.4204" y="490.7155">&#171;module&#187;</text><text fill="#000000" font-family="sans-serif" font-size="14" lengthAdjust="spacing" textLength="69.3164" x="2155.5893" y="506.5407">ShelfSlots</text><line style="stroke:#181818;stroke-width:0.5;" x1="2082.27" x2="2265.7251" y1="514.8425" y2="514.8425"/><line style="stroke:#181818;stroke-width:0.5;" x1="2082.27" x2="2265.7251" y1="522.8425" y2="522.8425"/><g data-visibility-modifier="PUBLIC_METHOD"><ellipse cx="2092.27" cy="536.4909" fill="#84BE84" rx="3" ry="3" style="stroke:#038048;stroke-width:1;"/></g><text fill="#000000" font-family="sans-serif" font-size="14" lengthAdjust="spacing" textLength="132.6104" x="2101.27" y="539.8376">getGridShelfSlots()</text><g data-visibility-modifier="PUBLIC_METHOD"><ellipse cx="2092.27" cy="552.7878" fill="#84BE84" rx="3" ry="3" style="stroke:#038048;stroke-width:1;"/></g><text fill="#000000" font-family="sans-serif" font-size="14" lengthAdjust="spacing" textLength="159.4551" x="2101.27" y="556.1345">getFloatingShelfSlots()</text></g><!--class CreateScene--><g class="entity" data-qualified-name="CreateScene" data-source-line="3" id="ent0002"><rect fill="#F1F1F1" height="56.2656" rx="2.5" ry="2.5" style="stroke:#181818;stroke-width:0.5;" width="121.5098" x="983.25" y="44.2969"/><ellipse cx="998.25" cy="64.4297" fill="#ADD1B2" rx="11" ry="11" style="stroke:#181818;stroke-width:1;"/><path d="M1001.2188,70.0703 Q1000.6406,70.3672 1000,70.5078 Q999.3594,70.6641 998.6563,70.6641 Q996.1563,70.6641 994.8281,69.0234 Q993.5156,67.3672 993.5156,64.2422 Q993.5156,61.1172 994.8281,59.4609 Q996.1563,57.8047 998.6563,57.8047 Q999.3594,57.8047 1000,57.9609 Q1000.6563,58.1172 1001.2188,58.4141 L1001.2188,61.1328 Q1000.5938,60.5547 1000,60.2891 Q999.4063,60.0078 998.7813,60.0078 Q997.4375,60.0078 996.75,61.0859 Q996.0625,62.1484 996.0625,64.2422 Q996.0625,66.3359 996.75,67.4141 Q997.4375,68.4766 998.7813,68.4766 Q999.4063,68.4766 1000,68.2109 Q1000.5938,67.9297 1001.2188,67.3516 L1001.2188,70.0703 Z " fill="#000000"/><text fill="#000000" font-family="sans-serif" font-size="12" font-style="italic" lengthAdjust="spacing" textLength="59.6543" x="1027.1777" y="60.4355">&#171;module&#187;</text><text fill="#000000" font-family="sans-serif" font-size="14" lengthAdjust="spacing" textLength="89.5098" x="1012.25" y="76.2607">CreateScene</text><line style="stroke:#181818;stroke-width:0.5;" x1="984.25" x2="1103.7598" y1="84.5625" y2="84.5625"/><line style="stroke:#181818;stroke-width:0.5;" x1="984.25" x2="1103.7598" y1="92.5625" y2="92.5625"/></g><!--link CreateScene to RoomJS--><g class="link" data-entity-1="ent0002" data-entity-2="ent0004" data-link-type="dependency" data-source-line="54" id="lnk16"><path codeLine="54" d="M1044,100.8969 C1044,118.3869 1044,135.2069 1044,154.0869" fill="none" id="CreateScene-to-RoomJS" style="stroke:#181818;stroke-width:1;"/><polygon fill="#181818" points="1044,160.0869,1048,151.0869,1044,155.0869,1040,151.0869,1044,160.0869" style="stroke:#181818;stroke-width:1;"/></g><!--link RoomJS to Wall--><g class="link" data-entity-1="ent0004" data-entity-2="ent0005" data-link-type="dependency" data-source-line="55" id="lnk17"><path codeLine="55" d="M961.88,201.8069 C841.8,208.9869 611.94,227.9769 422,274.5669 C378.91,285.1369 338.1269,299.6787 300.0469,314.9887" fill="none" id="RoomJS-to-Wall" style="stroke:#181818;stroke-width:1;"/><polygon fill="#181818" points="294.48,317.2269,304.3225,317.5809,299.1191,315.3617,301.3383,310.1583,294.48,317.2269" style="stroke:#181818;stroke-width:1;"/></g><!--link RoomJS to Floor--><g class="link" data-entity-1="ent0004" data-entity-2="ent0006" data-link-type="dependency" data-source-line="56" id="lnk18"><path codeLine="56" d="M962.05,210.4669 C893.73,222.4769 794.6,243.3769 712,274.5669 C682.03,285.8869 655.7259,299.3038 629.7759,314.1738" fill="none" id="RoomJS-to-Floor" style="stroke:#181818;stroke-width:1;"/><polygon fill="#181818" points="624.57,317.1569,634.3675,316.1528,628.9082,314.671,630.3901,309.2116,624.57,317.1569" style="stroke:#181818;stroke-width:1;"/></g><!--link RoomJS to Ceiling--><g class="link" data-entity-1="ent0004" data-entity-2="ent0007" data-link-type="dependency" data-source-line="57" id="lnk19"><path codeLine="57" d="M1008.67,233.4069 C983.72,258.5169 954.6391,287.7907 929.6591,312.9307" fill="none" id="RoomJS-to-Ceiling" style="stroke:#181818;stroke-width:1;"/><polygon fill="#181818" points="925.43,317.1869,934.6111,313.622,928.9542,313.6401,928.9362,307.9832,925.43,317.1869" style="stroke:#181818;stroke-width:1;"/></g><!--link RoomJS to Materials--><g class="link" data-entity-1="ent0004" data-entity-2="ent0008" data-link-type="dependency" data-source-line="58" id="lnk20"><path codeLine="58" d="M1079.56,233.4069 C1097.17,251.0169 1114.6684,268.5132 1134.7484,288.6032" fill="none" id="RoomJS-to-Materials" style="stroke:#181818;stroke-width:1;"/><polygon fill="#181818" points="1138.99,292.8469,1135.4568,283.6536,1135.4553,289.3105,1129.7985,289.3091,1138.99,292.8469" style="stroke:#181818;stroke-width:1;"/></g><!--link RoomJS to LogoPlacement--><g class="link" data-entity-1="ent0004" data-entity-2="ent0011" data-link-type="dependency" data-source-line="59" id="lnk21"><path codeLine="59" d="M1125.81,205.6469 C1198.28,214.9169 1305.53,234.4869 1391,274.5669 C1413.9,285.3069 1431.8536,298.1265 1449.8036,313.3465" fill="none" id="RoomJS-to-LogoPlacement" style="stroke:#181818;stroke-width:1;"/><polygon fill="#181818" points="1454.38,317.2269,1450.1024,308.3555,1450.5664,313.9933,1444.9286,314.4573,1454.38,317.2269" style="stroke:#181818;stroke-width:1;"/></g><!--link LogoPlacement to LogoModel--><g class="link" data-entity-1="ent0011" data-entity-2="ent0010" data-link-type="dependency" data-source-line="60" id="lnk22"><path codeLine="60" d="M1502.42,390.2569 C1510.44,417.5269 1519.7867,449.3108 1527.8267,476.6408" fill="none" id="LogoPlacement-to-LogoModel" style="stroke:#181818;stroke-width:1;"/><polygon fill="#181818" points="1529.52,482.3969,1530.8174,472.6338,1528.1089,477.6001,1523.1426,474.8916,1529.52,482.3969" style="stroke:#181818;stroke-width:1;"/></g><!--link RoomJS to ShelfPlacement--><g class="link" data-entity-1="ent0004" data-entity-2="ent0014" data-link-type="dependency" data-source-line="61" id="lnk23"><path codeLine="61" d="M1126.06,198.6669 C1259.38,201.7769 1530.34,215.5869 1751,274.5669 C1788.67,284.6369 1823.1682,298.966 1855.6282,314.506" fill="none" id="RoomJS-to-ShelfPlacement" style="stroke:#181818;stroke-width:1;"/><polygon fill="#181818" points="1861.04,317.0969,1854.6496,309.6027,1856.5302,314.9378,1851.1951,316.8184,1861.04,317.0969" style="stroke:#181818;stroke-width:1;"/></g><!--link ShelfPlacement to ShelfModel--><g class="link" data-entity-1="ent0014" data-entity-2="ent0013" data-link-type="dependency" data-source-line="62" id="lnk24"><path codeLine="62" d="M1926.83,390.2569 C1925.16,417.5269 1923.2281,449.0782 1921.5481,476.4082" fill="none" id="ShelfPlacement-to-ShelfModel" style="stroke:#181818;stroke-width:1;"/><polygon fill="#181818" points="1921.18,482.3969,1925.7247,473.6593,1921.4868,477.4063,1917.7397,473.1684,1921.18,482.3969" style="stroke:#181818;stroke-width:1;"/></g><!--link ShelfPlacement to ShelfSlots--><g class="link" data-entity-1="ent0014" data-entity-2="ent0015" data-link-type="dependency" data-source-line="63" id="lnk25"><path codeLine="63" d="M1982.46,390.4569 C2019.49,415.1169 2064.0263,444.7707 2103.4363,471.0207" fill="none" id="ShelfPlacement-to-ShelfSlots" style="stroke:#181818;stroke-width:1;"/><polygon fill="#181818" points="2108.43,474.3469,2103.1569,466.0285,2104.2686,471.5751,2098.7221,472.6868,2108.43,474.3469" style="stroke:#181818;stroke-width:1;"/></g><!--SRC=[XLFBJiCm4BpxArOzjIBz0LJrKWGIeb953XmGXoNU9XQRE8fTa43zT-oyweI4NY9dPtOy-x1LbWdk5AOLvWYI864qP60DyUdTA6F9XP-rpc69YJqXgs-KUYM4vndOLOIMueGAWiqcr_B4jDqAKMBoWId1edAf2_XfwLxeCGwO3W6uIMeL3owDbrg9StV12pBFy3tKy2FuKj9c4MIaqin6K6gZhD9519Msw4-1v3rhNSrerjX8L59fio1_HufLaSuejEYKHkSlqDgxZ4eXctzgx3XTRuPcPz7Mo2mUPyJ7CNeEHiSwrMPHksdCFhd0NalwCv1UqpEwoWlCtLVbJkk0llZ1ZBmHTraeVM1CAAV2JiYN7WlL_Lur6g5bushwf87ffimPrwnHNWYTzb4nUVSZZpNngicuiJ3m2RTDyklRX6BCsfe9jPJiGwNaXRDSzO2RlDlg8Xs1lXbd4Rx9zNhRFZhHlZqVyLiL_jUB50RQtGb3_QQ6mS7On7287LwtDamQzb6Csjepchmvj2xw5m00]--></g></svg>