<svg xmlns="http://www.w3.org/2000/svg" xmlns:xlink="http://www.w3.org/1999/xlink" contentStyleType="text/css" data-diagram-type="CLASS" height="689px" preserveAspectRatio="none" style="width:577px;height:689px;background:#FFFFFF;" version="1.1" viewBox="0 0 577 689" width="577px" zoomAndPan="magnify"><title>Diagrama de clases - Subsistema State</title><defs/><g><g class="title" data-source-line="2"><text fill="#000000" font-family="sans-serif" font-size="14" font-weight="bold" lengthAdjust="spacing" textLength="308.8477" x="127.1562" y="22.9951">Diagrama de clases - Subsistema State</text></g><!--cluster state--><g class="cluster" data-qualified-name="state" data-source-line="4" id="ent0002"><path d="M8.5,43.2969 L50.1602,43.2969 A3.75,3.75 0 0 1 52.6602,45.7969 L59.6602,65.5938 L567.66,65.5938 A2.5,2.5 0 0 1 570.16,68.0938 L570.16,197.7969 A2.5,2.5 0 0 1 567.66,200.2969 L8.5,200.2969 A2.5,2.5 0 0 1 6,197.7969 L6,45.7969 A2.5,2.5 0 0 1 8.5,43.2969" fill="none" style="stroke:#000000;stroke-width:1.5;"/><line style="stroke:#000000;stroke-width:1.5;" x1="6" x2="59.6602" y1="65.5938" y2="65.5938"/><text fill="#000000" font-family="sans-serif" font-size="14" font-weight="bold" lengthAdjust="spacing" textLength="40.6602" x="10" y="58.292">state</text></g><!--class AppState--><g class="entity" data-qualified-name="state.AppState" data-source-line="6" id="ent0003"><rect fill="#F1F1F1" height="105.1563" rx="2.5" ry="2.5" style="stroke:#181818;stroke-width:0.5;" width="186.7813" x="367.37" y="78.7169"/><ellipse cx="424.3065" cy="98.8497" fill="#ADD1B2" rx="11" ry="11" style="stroke:#181818;stroke-width:1;"/><path d="M427.2753,104.4903 Q426.6971,104.7872 426.0565,104.9278 Q425.4159,105.0841 424.7128,105.0841 Q422.2128,105.0841 420.8846,103.4434 Q419.5721,101.7872 419.5721,98.6622 Q419.5721,95.5372 420.8846,93.8809 Q422.2128,92.2247 424.7128,92.2247 Q425.4159,92.2247 426.0565,92.3809 Q426.7128,92.5372 427.2753,92.8341 L427.2753,95.5528 Q426.6503,94.9747 426.0565,94.7091 Q425.4628,94.4278 424.8378,94.4278 Q423.494,94.4278 422.8065,95.5059 Q422.119,96.5684 422.119,98.6622 Q422.119,100.7559 422.8065,101.8341 Q423.494,102.8966 424.8378,102.8966 Q425.4628,102.8966 426.0565,102.6309 Q426.6503,102.3497 427.2753,101.7716 L427.2753,104.4903 Z " fill="#000000"/><text fill="#000000" font-family="sans-serif" font-size="12" font-style="italic" lengthAdjust="spacing" textLength="59.6543" x="447.1835" y="94.8555">&#171;module&#187;</text><text fill="#000000" font-family="sans-serif" font-size="14" lengthAdjust="spacing" textLength="64.4082" x="444.8065" y="110.6807">AppState</text><line style="stroke:#181818;stroke-width:0.5;" x1="368.37" x2="553.1513" y1="118.9825" y2="118.9825"/><g data-visibility-modifier="PRIVATE_FIELD"><rect fill="none" height="6" style="stroke:#C82930;stroke-width:1;" width="6" x="375.37" y="129.6309"/></g><text fill="#000000" font-family="sans-serif" font-size="14" lengthAdjust="spacing" textLength="95.1016" x="387.37" y="135.9776">mode : String</text><g data-visibility-modifier="PRIVATE_FIELD"><rect fill="none" height="6" style="stroke:#C82930;stroke-width:1;" width="6" x="375.37" y="145.9278"/></g><text fill="#000000" font-family="sans-serif" font-size="14" lengthAdjust="spacing" textLength="160.7813" x="387.37" y="152.2745">selectedFunko : Object</text><g data-visibility-modifier="PRIVATE_FIELD"><rect fill="none" height="6" style="stroke:#C82930;stroke-width:1;" width="6" x="375.37" y="162.2247"/></g><text fill="#000000" font-family="sans-serif" font-size="14" lengthAdjust="spacing" textLength="158.6553" x="387.37" y="168.5714">transitioning : Boolean</text><line style="stroke:#181818;stroke-width:0.5;" x1="368.37" x2="553.1513" y1="175.8731" y2="175.8731"/></g><!--class AppController--><g class="entity" data-qualified-name="state.AppController" data-source-line="12" id="ent0004"><rect fill="#F1F1F1" height="88.8594" rx="2.5" ry="2.5" style="stroke:#181818;stroke-width:0.5;" width="272.7979" x="22" y="95.8669"/><ellipse cx="105.8872" cy="115.9997" fill="#ADD1B2" rx="11" ry="11" style="stroke:#181818;stroke-width:1;"/><path d="M108.856,121.6403 Q108.2778,121.9372 107.6372,122.0778 Q106.9966,122.2341 106.2935,122.2341 Q103.7935,122.2341 102.4653,120.5934 Q101.1528,118.9372 101.1528,115.8122 Q101.1528,112.6872 102.4653,111.0309 Q103.7935,109.3747 106.2935,109.3747 Q106.9966,109.3747 107.6372,109.5309 Q108.2935,109.6872 108.856,109.9841 L108.856,112.7028 Q108.231,112.1247 107.6372,111.8591 Q107.0435,111.5778 106.4185,111.5778 Q105.0747,111.5778 104.3872,112.6559 Q103.6997,113.7184 103.6997,115.8122 Q103.6997,117.9059 104.3872,118.9841 Q105.0747,120.0466 106.4185,120.0466 Q107.0435,120.0466 107.6372,119.7809 Q108.231,119.4997 108.856,118.9216 L108.856,121.6403 Z " fill="#000000"/><text fill="#000000" font-family="sans-serif" font-size="12" font-style="italic" lengthAdjust="spacing" textLength="59.6543" x="144.8218" y="112.0055">&#171;module&#187;</text><text fill="#000000" font-family="sans-serif" font-size="14" lengthAdjust="spacing" textLength="96.5234" x="126.3872" y="127.8307">AppController</text><line style="stroke:#181818;stroke-width:0.5;" x1="23" x2="293.7979" y1="136.1325" y2="136.1325"/><line style="stroke:#181818;stroke-width:0.5;" x1="23" x2="293.7979" y1="144.1325" y2="144.1325"/><g data-visibility-modifier="PUBLIC_METHOD"><ellipse cx="33" cy="157.7809" fill="#84BE84" rx="3" ry="3" style="stroke:#038048;stroke-width:1;"/></g><text fill="#000000" font-family="sans-serif" font-size="14" lengthAdjust="spacing" textLength="246.7979" x="42" y="161.1276">enterInspect(funko, scene, canvas)</text><g data-visibility-modifier="PUBLIC_METHOD"><ellipse cx="33" cy="174.0778" fill="#84BE84" rx="3" ry="3" style="stroke:#038048;stroke-width:1;"/></g><text fill="#000000" font-family="sans-serif" font-size="14" lengthAdjust="spacing" textLength="187.4824" x="42" y="177.4245">exitInspect(scene, canvas)</text></g><!--class camera/CameraState--><g class="entity" data-qualified-name="camera.CameraState" data-source-line="20" id="ent0006"><rect fill="#F1F1F1" height="48" rx="2.5" ry="2.5" style="stroke:#181818;stroke-width:0.5;" width="181.5771" x="369.98" y="219.2969"/><ellipse cx="384.98" cy="235.2969" fill="#ADD1B2" rx="11" ry="11" style="stroke:#181818;stroke-width:1;"/><path d="M387.9488,240.9375 Q387.3706,241.2344 386.73,241.375 Q386.0894,241.5313 385.3863,241.5313 Q382.8863,241.5313 381.5581,239.8906 Q380.2456,238.2344 380.2456,235.1094 Q380.2456,231.9844 381.5581,230.3281 Q382.8863,228.6719 385.3863,228.6719 Q386.0894,228.6719 386.73,228.8281 Q387.3863,228.9844 387.9488,229.2813 L387.9488,232 Q387.3238,231.4219 386.73,231.1563 Q386.1363,230.875 385.5113,230.875 Q384.1675,230.875 383.48,231.9531 Q382.7925,233.0156 382.7925,235.1094 Q382.7925,237.2031 383.48,238.2813 Q384.1675,239.3438 385.5113,239.3438 Q386.1363,239.3438 386.73,239.0781 Q387.3238,238.7969 387.9488,238.2188 L387.9488,240.9375 Z " fill="#000000"/><text fill="#000000" font-family="sans-serif" font-size="14" lengthAdjust="spacing" textLength="149.5771" x="398.98" y="240.1436">camera/CameraState</text><line style="stroke:#181818;stroke-width:0.5;" x1="370.98" x2="550.5571" y1="251.2969" y2="251.2969"/><line style="stroke:#181818;stroke-width:0.5;" x1="370.98" x2="550.5571" y1="259.2969" y2="259.2969"/></g><!--class camera/Controls--><g class="entity" data-qualified-name="camera.Controls" data-source-line="21" id="ent0008"><rect fill="#F1F1F1" height="48" rx="2.5" ry="2.5" style="stroke:#181818;stroke-width:0.5;" width="147.7871" x="386.87" y="302.2969"/><ellipse cx="401.87" cy="318.2969" fill="#ADD1B2" rx="11" ry="11" style="stroke:#181818;stroke-width:1;"/><path d="M404.8388,323.9375 Q404.2606,324.2344 403.62,324.375 Q402.9794,324.5313 402.2763,324.5313 Q399.7763,324.5313 398.4481,322.8906 Q397.1356,321.2344 397.1356,318.1094 Q397.1356,314.9844 398.4481,313.3281 Q399.7763,311.6719 402.2763,311.6719 Q402.9794,311.6719 403.62,311.8281 Q404.2763,311.9844 404.8388,312.2813 L404.8388,315 Q404.2138,314.4219 403.62,314.1563 Q403.0263,313.875 402.4013,313.875 Q401.0575,313.875 400.37,314.9531 Q399.6825,316.0156 399.6825,318.1094 Q399.6825,320.2031 400.37,321.2813 Q401.0575,322.3438 402.4013,322.3438 Q403.0263,322.3438 403.62,322.0781 Q404.2138,321.7969 404.8388,321.2188 L404.8388,323.9375 Z " fill="#000000"/><text fill="#000000" font-family="sans-serif" font-size="14" lengthAdjust="spacing" textLength="115.7871" x="415.87" y="323.1436">camera/Controls</text><line style="stroke:#181818;stroke-width:0.5;" x1="387.87" x2="533.6571" y1="334.2969" y2="334.2969"/><line style="stroke:#181818;stroke-width:0.5;" x1="387.87" x2="533.6571" y1="342.2969" y2="342.2969"/></g><!--class camera/InspectAnimation--><g class="entity" data-qualified-name="camera.InspectAnimation" data-source-line="22" id="ent0010"><rect fill="#F1F1F1" height="48" rx="2.5" ry="2.5" style="stroke:#181818;stroke-width:0.5;" width="211.9355" x="354.8" y="385.2969"/><ellipse cx="369.8" cy="401.2969" fill="#ADD1B2" rx="11" ry="11" style="stroke:#181818;stroke-width:1;"/><path d="M372.7688,406.9375 Q372.1906,407.2344 371.55,407.375 Q370.9094,407.5313 370.2063,407.5313 Q367.7063,407.5313 366.3781,405.8906 Q365.0656,404.2344 365.0656,401.1094 Q365.0656,397.9844 366.3781,396.3281 Q367.7063,394.6719 370.2063,394.6719 Q370.9094,394.6719 371.55,394.8281 Q372.2063,394.9844 372.7688,395.2813 L372.7688,398 Q372.1438,397.4219 371.55,397.1563 Q370.9563,396.875 370.3313,396.875 Q368.9875,396.875 368.3,397.9531 Q367.6125,399.0156 367.6125,401.1094 Q367.6125,403.2031 368.3,404.2813 Q368.9875,405.3438 370.3313,405.3438 Q370.9563,405.3438 371.55,405.0781 Q372.1438,404.7969 372.7688,404.2188 L372.7688,406.9375 Z " fill="#000000"/><text fill="#000000" font-family="sans-serif" font-size="14" lengthAdjust="spacing" textLength="179.9355" x="383.8" y="406.1436">camera/InspectAnimation</text><line style="stroke:#181818;stroke-width:0.5;" x1="355.8" x2="565.7355" y1="417.2969" y2="417.2969"/><line style="stroke:#181818;stroke-width:0.5;" x1="355.8" x2="565.7355" y1="425.2969" y2="425.2969"/></g><!--class model/FunkoRotation--><g class="entity" data-qualified-name="model.FunkoRotation" data-source-line="23" id="ent0012"><rect fill="#F1F1F1" height="48" rx="2.5" ry="2.5" style="stroke:#181818;stroke-width:0.5;" width="181.96" x="369.79" y="468.2969"/><ellipse cx="384.79" cy="484.2969" fill="#ADD1B2" rx="11" ry="11" style="stroke:#181818;stroke-width:1;"/><path d="M387.7588,489.9375 Q387.1806,490.2344 386.54,490.375 Q385.8994,490.5313 385.1963,490.5313 Q382.6963,490.5313 381.3681,488.8906 Q380.0556,487.2344 380.0556,484.1094 Q380.0556,480.9844 381.3681,479.3281 Q382.6963,477.6719 385.1963,477.6719 Q385.8994,477.6719 386.54,477.8281 Q387.1963,477.9844 387.7588,478.2813 L387.7588,481 Q387.1338,480.4219 386.54,480.1563 Q385.9463,479.875 385.3213,479.875 Q383.9775,479.875 383.29,480.9531 Q382.6025,482.0156 382.6025,484.1094 Q382.6025,486.2031 383.29,487.2813 Q383.9775,488.3438 385.3213,488.3438 Q385.9463,488.3438 386.54,488.0781 Q387.1338,487.7969 387.7588,487.2188 L387.7588,489.9375 Z " fill="#000000"/><text fill="#000000" font-family="sans-serif" font-size="14" lengthAdjust="spacing" textLength="149.96" x="398.79" y="489.1436">model/FunkoRotation</text><line style="stroke:#181818;stroke-width:0.5;" x1="370.79" x2="550.75" y1="500.2969" y2="500.2969"/><line style="stroke:#181818;stroke-width:0.5;" x1="370.79" x2="550.75" y1="508.2969" y2="508.2969"/></g><!--class UI/BtnReturn--><g class="entity" data-qualified-name="UI.BtnReturn" data-source-line="24" id="ent0014"><rect fill="#F1F1F1" height="48" rx="2.5" ry="2.5" style="stroke:#181818;stroke-width:0.5;" width="122.3916" x="399.57" y="551.2969"/><ellipse cx="414.57" cy="567.2969" fill="#ADD1B2" rx="11" ry="11" style="stroke:#181818;stroke-width:1;"/><path d="M417.5388,572.9375 Q416.9606,573.2344 416.32,573.375 Q415.6794,573.5313 414.9763,573.5313 Q412.4763,573.5313 411.1481,571.8906 Q409.8356,570.2344 409.8356,567.1094 Q409.8356,563.9844 411.1481,562.3281 Q412.4763,560.6719 414.9763,560.6719 Q415.6794,560.6719 416.32,560.8281 Q416.9763,560.9844 417.5388,561.2813 L417.5388,564 Q416.9138,563.4219 416.32,563.1563 Q415.7263,562.875 415.1013,562.875 Q413.7575,562.875 413.07,563.9531 Q412.3825,565.0156 412.3825,567.1094 Q412.3825,569.2031 413.07,570.2813 Q413.7575,571.3438 415.1013,571.3438 Q415.7263,571.3438 416.32,571.0781 Q416.9138,570.7969 417.5388,570.2188 L417.5388,572.9375 Z " fill="#000000"/><text fill="#000000" font-family="sans-serif" font-size="14" lengthAdjust="spacing" textLength="90.3916" x="428.57" y="572.1436">UI/BtnReturn</text><line style="stroke:#181818;stroke-width:0.5;" x1="400.57" x2="520.9616" y1="583.2969" y2="583.2969"/><line style="stroke:#181818;stroke-width:0.5;" x1="400.57" x2="520.9616" y1="591.2969" y2="591.2969"/></g><!--class UI/InfoFunkoPanel--><g class="entity" data-qualified-name="UI.InfoFunkoPanel" data-source-line="25" id="ent0016"><rect fill="#F1F1F1" height="48" rx="2.5" ry="2.5" style="stroke:#181818;stroke-width:0.5;" width="158.458" x="381.54" y="634.2969"/><ellipse cx="396.54" cy="650.2969" fill="#ADD1B2" rx="11" ry="11" style="stroke:#181818;stroke-width:1;"/><path d="M399.5088,655.9375 Q398.9306,656.2344 398.29,656.375 Q397.6494,656.5313 396.9463,656.5313 Q394.4463,656.5313 393.1181,654.8906 Q391.8056,653.2344 391.8056,650.1094 Q391.8056,646.9844 393.1181,645.3281 Q394.4463,643.6719 396.9463,643.6719 Q397.6494,643.6719 398.29,643.8281 Q398.9463,643.9844 399.5088,644.2813 L399.5088,647 Q398.8838,646.4219 398.29,646.1563 Q397.6963,645.875 397.0713,645.875 Q395.7275,645.875 395.04,646.9531 Q394.3525,648.0156 394.3525,650.1094 Q394.3525,652.2031 395.04,653.2813 Q395.7275,654.3438 397.0713,654.3438 Q397.6963,654.3438 398.29,654.0781 Q398.8838,653.7969 399.5088,653.2188 L399.5088,655.9375 Z " fill="#000000"/><text fill="#000000" font-family="sans-serif" font-size="14" lengthAdjust="spacing" textLength="126.458" x="410.54" y="655.1436">UI/InfoFunkoPanel</text><line style="stroke:#181818;stroke-width:0.5;" x1="382.54" x2="538.998" y1="666.2969" y2="666.2969"/><line style="stroke:#181818;stroke-width:0.5;" x1="382.54" x2="538.998" y1="674.2969" y2="674.2969"/></g><!--link AppController to AppState--><g class="link" data-entity-1="ent0004" data-entity-2="ent0003" data-link-type="dependency" data-source-line="18" id="lnk5"><path codeLine="18" d="M295.08,136.2269 C319.49,135.4969 338.4227,134.9382 361.2427,134.2482" fill="none" id="AppController-to-AppState" style="stroke:#181818;stroke-width:1;"/><polygon fill="#181818" points="367.24,134.0669,358.1232,130.3407,362.2423,134.218,358.365,138.3371,367.24,134.0669" style="stroke:#181818;stroke-width:1;"/></g><!--link AppController to camera/CameraState--><g class="link" data-entity-1="ent0004" data-entity-2="ent0006" data-link-type="dependency" data-source-line="20" id="lnk7"><path codeLine="20" d="M290.27,185.1769 C324.1,196.7769 353.5841,206.8916 383.0541,216.9916" fill="none" id="AppController-to-camera/CameraState" style="stroke:#181818;stroke-width:1;"/><polygon fill="#181818" points="388.73,218.9369,381.513,212.235,384.0001,217.3158,378.9193,219.8029,388.73,218.9369" style="stroke:#181818;stroke-width:1;"/></g><!--link AppController to camera/Controls--><g class="link" data-entity-1="ent0004" data-entity-2="ent0008" data-link-type="dependency" data-source-line="21" id="lnk9"><path codeLine="21" d="M211.52,184.9969 C249.46,215.9869 303.05,256.6669 354.8,285.2969 C365.67,291.3069 372.0664,294.5475 383.8764,299.4975" fill="none" id="AppController-to-camera/Controls" style="stroke:#181818;stroke-width:1;"/><polygon fill="#181818" points="389.41,301.8169,382.6558,294.6488,384.7987,299.8841,379.5634,302.0269,389.41,301.8169" style="stroke:#181818;stroke-width:1;"/></g><!--link AppController to camera/InspectAnimation--><g class="link" data-entity-1="ent0004" data-entity-2="ent0010" data-link-type="dependency" data-source-line="22" id="lnk11"><path codeLine="22" d="M187.78,185.0769 C221.92,235.7469 283.59,317.7569 354.8,368.2969 C363.65,374.5869 368.1636,377.5281 378.3136,382.2681" fill="none" id="AppController-to-camera/InspectAnimation" style="stroke:#181818;stroke-width:1;"/><polygon fill="#181818" points="383.75,384.8069,377.2879,377.3744,379.2197,382.6912,373.9029,384.623,383.75,384.8069" style="stroke:#181818;stroke-width:1;"/></g><!--link AppController to model/FunkoRotation--><g class="link" data-entity-1="ent0004" data-entity-2="ent0012" data-link-type="dependency" data-source-line="23" id="lnk13"><path codeLine="23" d="M176.64,184.9669 C204.51,251.6869 265.5,377.4269 354.8,451.2969 C362.56,457.7169 366.0962,460.5082 375.3462,465.1882" fill="none" id="AppController-to-model/FunkoRotation" style="stroke:#181818;stroke-width:1;"/><polygon fill="#181818" points="380.7,467.8969,374.4752,460.2646,376.2385,465.6396,370.8635,467.403,380.7,467.8969" style="stroke:#181818;stroke-width:1;"/></g><!--link AppController to UI/BtnReturn--><g class="link" data-entity-1="ent0004" data-entity-2="ent0014" data-link-type="dependency" data-source-line="24" id="lnk15"><path codeLine="24" d="M170.16,185.1869 C191.7,265.8569 247.52,436.0669 354.8,534.2969 C367.35,545.7869 377.902,552.0476 393.742,558.1576" fill="none" id="AppController-to-UI/BtnReturn" style="stroke:#181818;stroke-width:1;"/><polygon fill="#181818" points="399.34,560.3169,392.3826,553.3459,394.675,558.5174,389.5035,560.8099,399.34,560.3169" style="stroke:#181818;stroke-width:1;"/></g><!--link AppController to UI/InfoFunkoPanel--><g class="link" data-entity-1="ent0004" data-entity-2="ent0016" data-link-type="dependency" data-source-line="25" id="lnk17"><path codeLine="25" d="M165.72,184.9269 C181.16,277.8369 229.12,493.6669 354.8,617.2969 C362.4,624.7769 366.2039,628.1449 375.8539,633.1949" fill="none" id="AppController-to-UI/InfoFunkoPanel" style="stroke:#181818;stroke-width:1;"/><polygon fill="#181818" points="381.17,635.9769,375.0506,628.2599,376.7399,633.6586,371.3412,635.3479,381.17,635.9769" style="stroke:#181818;stroke-width:1;"/></g><!--SRC=[VP3FQiCm38VlVWgHqyOQSXybq7OCSjfesGEeZfAvTUHWAsCm-kvJqcvG-iSN8tqV-jdor0X8WEZQJu7QHRBY0XjnuWbU7BOHEuIQm7fCb227pR1DBWbfUoCeP4oFTeyjGPR6EeCVOs3o4opwVf9WFkz2FNWgIyMW9zUQu5bdHCVjiPN8QpxLhmFlWxAtxKxh8vE8dDpuEDMLBKFmXApmS1Qt2YmnU4_nClE9M2XMd7eT-z2CAJD8bfXcO96_C3sUl6ydVze5FnXDF4_Ay_B_gzTOPh6ZYCLgkYOjkwSTs-cUSthUWbs7urQkkkEEVJ6jSntajlTH5KlXDSaGRmeLDs6Qz8vCFli5]--></g></svg>