<svg xmlns="http://www.w3.org/2000/svg" xmlns:xlink="http://www.w3.org/1999/xlink" contentStyleType="text/css" data-diagram-type="CLASS" height="587px" preserveAspectRatio="none" style="width:1227px;height:587px;background:#FFFFFF;" version="1.1" viewBox="0 0 1227 587" width="1227px" zoomAndPan="magnify"><title>Diagrama de clases - Subsistema UI</title><defs/><g><g class="title" data-source-line="1"><text fill="#000000" font-family="sans-serif" font-size="14" font-weight="bold" lengthAdjust="spacing" textLength="283.0146" x="464.9927" y="22.9951">Diagrama de clases - Subsistema UI</text></g><!--cluster UI--><g class="cluster" data-qualified-name="UI" data-source-line="5" id="ent0003"><path d="M8.5,116.5669 L26.0771,116.5669 A3.75,3.75 0 0 1 28.5771,119.0669 L35.5771,138.8637 L1217.5,138.8637 A2.5,2.5 0 0 1 1220,141.3637 L1220,578.3469 A2.5,2.5 0 0 1 1217.5,580.8469 L8.5,580.8469 A2.5,2.5 0 0 1 6,578.3469 L6,119.0669 A2.5,2.5 0 0 1 8.5,116.5669" fill="none" style="stroke:#000000;stroke-width:1.5;"/><line style="stroke:#000000;stroke-width:1.5;" x1="6" x2="35.5771" y1="138.8637" y2="138.8637"/><text fill="#000000" font-family="sans-serif" font-size="14" font-weight="bold" lengthAdjust="spacing" textLength="16.5771" x="10" y="131.562">UI</text></g><!--cluster infoPanel--><g class="cluster" data-qualified-name="UI.infoPanel" data-source-line="16" id="ent0006"><path d="M32.5,159.5669 L107.9434,159.5669 A3.75,3.75 0 0 1 110.4434,162.0669 L117.4434,181.8637 L969.5,181.8637 A2.5,2.5 0 0 1 972,184.3637 L972,445.7869 A2.5,2.5 0 0 1 969.5,448.2869 L32.5,448.2869 A2.5,2.5 0 0 1 30,445.7869 L30,162.0669 A2.5,2.5 0 0 1 32.5,159.5669" fill="none" style="stroke:#000000;stroke-width:1.5;"/><line style="stroke:#000000;stroke-width:1.5;" x1="30" x2="117.4434" y1="181.8637" y2="181.8637"/><text fill="#000000" font-family="sans-serif" font-size="14" font-weight="bold" lengthAdjust="spacing" textLength="74.4434" x="34" y="174.562">infoPanel</text></g><!--class UIHelpers--><g class="entity" data-qualified-name="UI.UIHelpers" data-source-line="7" id="ent0004"><rect fill="#F1F1F1" height="72.5625" rx="2.5" ry="2.5" style="stroke:#181818;stroke-width:0.5;" width="230.1826" x="214.91" y="492.2869"/><ellipse cx="291.7733" cy="512.4197" fill="#ADD1B2" rx="11" ry="11" style="stroke:#181818;stroke-width:1;"/><path d="M294.742,518.0603 Q294.1639,518.3572 293.5233,518.4978 Q292.8827,518.6541 292.1795,518.6541 Q289.6795,518.6541 288.3514,517.0134 Q287.0389,515.3572 287.0389,512.2322 Q287.0389,509.1072 288.3514,507.4509 Q289.6795,505.7947 292.1795,505.7947 Q292.8827,505.7947 293.5233,505.9509 Q294.1795,506.1072 294.742,506.4041 L294.742,509.1228 Q294.117,508.5447 293.5233,508.2791 Q292.9295,507.9978 292.3045,507.9978 Q290.9608,507.9978 290.2733,509.0759 Q289.5858,510.1384 289.5858,512.2322 Q289.5858,514.3259 290.2733,515.4041 Q290.9608,516.4666 292.3045,516.4666 Q292.9295,516.4666 293.5233,516.2009 Q294.117,515.9197 294.742,515.3416 L294.742,518.0603 Z " fill="#000000"/><text fill="#000000" font-family="sans-serif" font-size="12" font-style="italic" lengthAdjust="spacing" textLength="59.6543" x="316.4242" y="508.4255">&#171;module&#187;</text><text fill="#000000" font-family="sans-serif" font-size="14" lengthAdjust="spacing" textLength="67.9561" x="312.2733" y="524.2507">UIHelpers</text><line style="stroke:#181818;stroke-width:0.5;" x1="215.91" x2="444.0926" y1="532.5525" y2="532.5525"/><line style="stroke:#181818;stroke-width:0.5;" x1="215.91" x2="444.0926" y1="540.5525" y2="540.5525"/><g data-visibility-modifier="PUBLIC_METHOD"><ellipse cx="225.91" cy="554.2009" fill="#84BE84" rx="3" ry="3" style="stroke:#038048;stroke-width:1;"/></g><text fill="#000000" font-family="sans-serif" font-size="14" lengthAdjust="spacing" textLength="204.1826" x="234.91" y="557.5476">createLabelRow(label, value)</text></g><!--class BtnReturn--><g class="entity" data-qualified-name="UI.BtnReturn" data-source-line="11" id="ent0005"><rect fill="#F1F1F1" height="88.8594" rx="2.5" ry="2.5" style="stroke:#181818;stroke-width:0.5;" width="216.9893" x="987.51" y="194.5669"/><ellipse cx="1056.1052" cy="214.6997" fill="#ADD1B2" rx="11" ry="11" style="stroke:#181818;stroke-width:1;"/><path d="M1059.074,220.3403 Q1058.4958,220.6372 1057.8552,220.7778 Q1057.2146,220.9341 1056.5115,220.9341 Q1054.0115,220.9341 1052.6833,219.2934 Q1051.3708,217.6372 1051.3708,214.5122 Q1051.3708,211.3872 1052.6833,209.7309 Q1054.0115,208.0747 1056.5115,208.0747 Q1057.2146,208.0747 1057.8552,208.2309 Q1058.5115,208.3872 1059.074,208.6841 L1059.074,211.4028 Q1058.449,210.8247 1057.8552,210.5591 Q1057.2615,210.2778 1056.6365,210.2778 Q1055.2927,210.2778 1054.6052,211.3559 Q1053.9177,212.4184 1053.9177,214.5122 Q1053.9177,216.6059 1054.6052,217.6841 Q1055.2927,218.7466 1056.6365,218.7466 Q1057.2615,218.7466 1057.8552,218.4809 Q1058.449,218.1997 1059.074,217.6216 L1059.074,220.3403 Z " fill="#000000"/><text fill="#000000" font-family="sans-serif" font-size="12" font-style="italic" lengthAdjust="spacing" textLength="59.6543" x="1082.4275" y="210.7055">&#171;module&#187;</text><text fill="#000000" font-family="sans-serif" font-size="14" lengthAdjust="spacing" textLength="71.2988" x="1076.6052" y="226.5307">BtnReturn</text><line style="stroke:#181818;stroke-width:0.5;" x1="988.51" x2="1203.4993" y1="234.8325" y2="234.8325"/><line style="stroke:#181818;stroke-width:0.5;" x1="988.51" x2="1203.4993" y1="242.8325" y2="242.8325"/><g data-visibility-modifier="PUBLIC_METHOD"><ellipse cx="998.51" cy="256.4809" fill="#84BE84" rx="3" ry="3" style="stroke:#038048;stroke-width:1;"/></g><text fill="#000000" font-family="sans-serif" font-size="14" lengthAdjust="spacing" textLength="190.9893" x="1007.51" y="259.8276">createReturnButton(scene)</text><g data-visibility-modifier="PUBLIC_METHOD"><ellipse cx="998.51" cy="272.7778" fill="#84BE84" rx="3" ry="3" style="stroke:#038048;stroke-width:1;"/></g><text fill="#000000" font-family="sans-serif" font-size="14" lengthAdjust="spacing" textLength="154.4785" x="1007.51" y="276.1245">updateReturnButton()</text></g><!--class InfoFunkoPanel--><g class="entity" data-qualified-name="UI.infoPanel.InfoFunkoPanel" data-source-line="18" id="ent0007"><rect fill="#F1F1F1" height="88.8594" rx="2.5" ry="2.5" style="stroke:#181818;stroke-width:0.5;" width="227.3389" x="471.33" y="194.5669"/><ellipse cx="527.0668" cy="214.6997" fill="#ADD1B2" rx="11" ry="11" style="stroke:#181818;stroke-width:1;"/><path d="M530.0356,220.3403 Q529.4574,220.6372 528.8168,220.7778 Q528.1762,220.9341 527.4731,220.9341 Q524.9731,220.9341 523.6449,219.2934 Q522.3324,217.6372 522.3324,214.5122 Q522.3324,211.3872 523.6449,209.7309 Q524.9731,208.0747 527.4731,208.0747 Q528.1762,208.0747 528.8168,208.2309 Q529.4731,208.3872 530.0356,208.6841 L530.0356,211.4028 Q529.4106,210.8247 528.8168,210.5591 Q528.2231,210.2778 527.5981,210.2778 Q526.2543,210.2778 525.5668,211.3559 Q524.8793,212.4184 524.8793,214.5122 Q524.8793,216.6059 525.5668,217.6841 Q526.2543,218.7466 527.5981,218.7466 Q528.2231,218.7466 528.8168,218.4809 Q529.4106,218.1997 530.0356,217.6216 L530.0356,220.3403 Z " fill="#000000"/><text fill="#000000" font-family="sans-serif" font-size="12" font-style="italic" lengthAdjust="spacing" textLength="59.6543" x="571.4223" y="210.7055">&#171;module&#187;</text><text fill="#000000" font-family="sans-serif" font-size="14" lengthAdjust="spacing" textLength="107.3652" x="547.5668" y="226.5307">InfoFunkoPanel</text><line style="stroke:#181818;stroke-width:0.5;" x1="472.33" x2="697.6689" y1="234.8325" y2="234.8325"/><line style="stroke:#181818;stroke-width:0.5;" x1="472.33" x2="697.6689" y1="242.8325" y2="242.8325"/><g data-visibility-modifier="PUBLIC_METHOD"><ellipse cx="482.33" cy="256.4809" fill="#84BE84" rx="3" ry="3" style="stroke:#038048;stroke-width:1;"/></g><text fill="#000000" font-family="sans-serif" font-size="14" lengthAdjust="spacing" textLength="201.3389" x="491.33" y="259.8276">showInfoPanel(scene, funko)</text><g data-visibility-modifier="PUBLIC_METHOD"><ellipse cx="482.33" cy="272.7778" fill="#84BE84" rx="3" ry="3" style="stroke:#038048;stroke-width:1;"/></g><text fill="#000000" font-family="sans-serif" font-size="14" lengthAdjust="spacing" textLength="106.0801" x="491.33" y="276.1245">hideInfoPanel()</text></g><!--class TittlePanel--><g class="entity" data-qualified-name="UI.infoPanel.TittlePanel" data-source-line="23" id="ent0008"><rect fill="#F1F1F1" height="72.5625" rx="2.5" ry="2.5" style="stroke:#181818;stroke-width:0.5;" width="149.1289" x="46.44" y="351.5769"/><ellipse cx="80.7039" cy="371.7097" fill="#ADD1B2" rx="11" ry="11" style="stroke:#181818;stroke-width:1;"/><path d="M83.6726,377.3503 Q83.0945,377.6472 82.4539,377.7878 Q81.8132,377.9441 81.1101,377.9441 Q78.6101,377.9441 77.282,376.3034 Q75.9695,374.6472 75.9695,371.5222 Q75.9695,368.3972 77.282,366.7409 Q78.6101,365.0847 81.1101,365.0847 Q81.8132,365.0847 82.4539,365.2409 Q83.1101,365.3972 83.6726,365.6941 L83.6726,368.4128 Q83.0476,367.8347 82.4539,367.5691 Q81.8601,367.2878 81.2351,367.2878 Q79.8914,367.2878 79.2039,368.3659 Q78.5164,369.4284 78.5164,371.5222 Q78.5164,373.6159 79.2039,374.6941 Q79.8914,375.7566 81.2351,375.7566 Q81.8601,375.7566 82.4539,375.4909 Q83.0476,375.2097 83.6726,374.6316 L83.6726,377.3503 Z " fill="#000000"/><text fill="#000000" font-family="sans-serif" font-size="12" font-style="italic" lengthAdjust="spacing" textLength="59.6543" x="106.3177" y="367.7155">&#171;module&#187;</text><text fill="#000000" font-family="sans-serif" font-size="14" lengthAdjust="spacing" textLength="74.3203" x="98.9847" y="383.5407">TittlePanel</text><line style="stroke:#181818;stroke-width:0.5;" x1="47.44" x2="194.5689" y1="391.8425" y2="391.8425"/><line style="stroke:#181818;stroke-width:0.5;" x1="47.44" x2="194.5689" y1="399.8425" y2="399.8425"/><g data-visibility-modifier="PUBLIC_METHOD"><ellipse cx="57.44" cy="413.4909" fill="#84BE84" rx="3" ry="3" style="stroke:#038048;stroke-width:1;"/></g><text fill="#000000" font-family="sans-serif" font-size="14" lengthAdjust="spacing" textLength="123.1289" x="66.44" y="416.8376">createTittle(data)</text></g><!--class DataPanel--><g class="entity" data-qualified-name="UI.infoPanel.DataPanel" data-source-line="27" id="ent0009"><rect fill="#F1F1F1" height="72.5625" rx="2.5" ry="2.5" style="stroke:#181818;stroke-width:0.5;" width="198.6484" x="230.68" y="351.5769"/><ellipse cx="289.8416" cy="371.7097" fill="#ADD1B2" rx="11" ry="11" style="stroke:#181818;stroke-width:1;"/><path d="M292.8104,377.3503 Q292.2322,377.6472 291.5916,377.7878 Q290.951,377.9441 290.2479,377.9441 Q287.7479,377.9441 286.4197,376.3034 Q285.1072,374.6472 285.1072,371.5222 Q285.1072,368.3972 286.4197,366.7409 Q287.7479,365.0847 290.2479,365.0847 Q290.951,365.0847 291.5916,365.2409 Q292.2479,365.3972 292.8104,365.6941 L292.8104,368.4128 Q292.1854,367.8347 291.5916,367.5691 Q290.9979,367.2878 290.3729,367.2878 Q289.0291,367.2878 288.3416,368.3659 Q287.6541,369.4284 287.6541,371.5222 Q287.6541,373.6159 288.3416,374.6941 Q289.0291,375.7566 290.3729,375.7566 Q290.9979,375.7566 291.5916,375.4909 Q292.1854,375.2097 292.8104,374.6316 L292.8104,377.3503 Z " fill="#000000"/><text fill="#000000" font-family="sans-serif" font-size="12" font-style="italic" lengthAdjust="spacing" textLength="59.6543" x="316.4271" y="367.7155">&#171;module&#187;</text><text fill="#000000" font-family="sans-serif" font-size="14" lengthAdjust="spacing" textLength="71.8252" x="310.3416" y="383.5407">DataPanel</text><line style="stroke:#181818;stroke-width:0.5;" x1="231.68" x2="428.3284" y1="391.8425" y2="391.8425"/><line style="stroke:#181818;stroke-width:0.5;" x1="231.68" x2="428.3284" y1="399.8425" y2="399.8425"/><g data-visibility-modifier="PUBLIC_METHOD"><ellipse cx="241.68" cy="413.4909" fill="#84BE84" rx="3" ry="3" style="stroke:#038048;stroke-width:1;"/></g><text fill="#000000" font-family="sans-serif" font-size="14" lengthAdjust="spacing" textLength="172.6484" x="250.68" y="416.8376">createDataSection(data)</text></g><!--class DescriptionPanel--><g class="entity" data-qualified-name="UI.infoPanel.DescriptionPanel" data-source-line="31" id="ent0010"><rect fill="#F1F1F1" height="72.5625" rx="2.5" ry="2.5" style="stroke:#181818;stroke-width:0.5;" width="241.2979" x="464.35" y="351.5769"/><ellipse cx="521.683" cy="371.7097" fill="#ADD1B2" rx="11" ry="11" style="stroke:#181818;stroke-width:1;"/><path d="M524.6518,377.3503 Q524.0736,377.6472 523.433,377.7878 Q522.7924,377.9441 522.0893,377.9441 Q519.5893,377.9441 518.2611,376.3034 Q516.9486,374.6472 516.9486,371.5222 Q516.9486,368.3972 518.2611,366.7409 Q519.5893,365.0847 522.0893,365.0847 Q522.7924,365.0847 523.433,365.2409 Q524.0893,365.3972 524.6518,365.6941 L524.6518,368.4128 Q524.0268,367.8347 523.433,367.5691 Q522.8393,367.2878 522.2143,367.2878 Q520.8705,367.2878 520.183,368.3659 Q519.4955,369.4284 519.4955,371.5222 Q519.4955,373.6159 520.183,374.6941 Q520.8705,375.7566 522.2143,375.7566 Q522.8393,375.7566 523.433,375.4909 Q524.0268,375.2097 524.6518,374.6316 L524.6518,377.3503 Z " fill="#000000"/><text fill="#000000" font-family="sans-serif" font-size="12" font-style="italic" lengthAdjust="spacing" textLength="59.6543" x="571.4218" y="367.7155">&#171;module&#187;</text><text fill="#000000" font-family="sans-serif" font-size="14" lengthAdjust="spacing" textLength="118.1318" x="542.183" y="383.5407">DescriptionPanel</text><line style="stroke:#181818;stroke-width:0.5;" x1="465.35" x2="704.6479" y1="391.8425" y2="391.8425"/><line style="stroke:#181818;stroke-width:0.5;" x1="465.35" x2="704.6479" y1="399.8425" y2="399.8425"/><g data-visibility-modifier="PUBLIC_METHOD"><ellipse cx="475.35" cy="413.4909" fill="#84BE84" rx="3" ry="3" style="stroke:#038048;stroke-width:1;"/></g><text fill="#000000" font-family="sans-serif" font-size="14" lengthAdjust="spacing" textLength="215.2979" x="484.35" y="416.8376">createDescriptionSection(text)</text></g><!--class GalleryPanel--><g class="entity" data-qualified-name="UI.infoPanel.GalleryPanel" data-source-line="35" id="ent0011"><rect fill="#F1F1F1" height="88.8594" rx="2.5" ry="2.5" style="stroke:#181818;stroke-width:0.5;" width="215.082" x="740.46" y="343.4269"/><ellipse cx="799.6216" cy="363.5597" fill="#ADD1B2" rx="11" ry="11" style="stroke:#181818;stroke-width:1;"/><path d="M802.5904,369.2003 Q802.0122,369.4972 801.3716,369.6378 Q800.731,369.7941 800.0279,369.7941 Q797.5279,369.7941 796.1997,368.1534 Q794.8872,366.4972 794.8872,363.3722 Q794.8872,360.2472 796.1997,358.5909 Q797.5279,356.9347 800.0279,356.9347 Q800.731,356.9347 801.3716,357.0909 Q802.0279,357.2472 802.5904,357.5441 L802.5904,360.2628 Q801.9654,359.6847 801.3716,359.4191 Q800.7779,359.1378 800.1529,359.1378 Q798.8091,359.1378 798.1216,360.2159 Q797.4341,361.2784 797.4341,363.3722 Q797.4341,365.4659 798.1216,366.5441 Q798.8091,367.6066 800.1529,367.6066 Q800.7779,367.6066 801.3716,367.3409 Q801.9654,367.0597 802.5904,366.4816 L802.5904,369.2003 Z " fill="#000000"/><text fill="#000000" font-family="sans-serif" font-size="12" font-style="italic" lengthAdjust="spacing" textLength="59.6543" x="834.4239" y="359.5655">&#171;module&#187;</text><text fill="#000000" font-family="sans-serif" font-size="14" lengthAdjust="spacing" textLength="88.2588" x="820.1216" y="375.3907">GalleryPanel</text><line style="stroke:#181818;stroke-width:0.5;" x1="741.46" x2="954.542" y1="383.6925" y2="383.6925"/><line style="stroke:#181818;stroke-width:0.5;" x1="741.46" x2="954.542" y1="391.6925" y2="391.6925"/><g data-visibility-modifier="PUBLIC_METHOD"><ellipse cx="751.46" cy="405.3409" fill="#84BE84" rx="3" ry="3" style="stroke:#038048;stroke-width:1;"/></g><text fill="#000000" font-family="sans-serif" font-size="14" lengthAdjust="spacing" textLength="189.082" x="760.46" y="408.6876">createGallerySection(data)</text><g data-visibility-modifier="PUBLIC_METHOD"><ellipse cx="751.46" cy="421.6378" fill="#84BE84" rx="3" ry="3" style="stroke:#038048;stroke-width:1;"/></g><text fill="#000000" font-family="sans-serif" font-size="14" lengthAdjust="spacing" textLength="96.8447" x="760.46" y="424.9845">closeGallery()</text></g><!--class CreateScene--><g class="entity" data-qualified-name="CreateScene" data-source-line="3" id="ent0002"><rect fill="#F1F1F1" height="56.2656" rx="2.5" ry="2.5" style="stroke:#181818;stroke-width:0.5;" width="121.5098" x="779.25" y="44.2969"/><ellipse cx="794.25" cy="64.4297" fill="#ADD1B2" rx="11" ry="11" style="stroke:#181818;stroke-width:1;"/><path d="M797.2188,70.0703 Q796.6406,70.3672 796,70.5078 Q795.3594,70.6641 794.6563,70.6641 Q792.1563,70.6641 790.8281,69.0234 Q789.5156,67.3672 789.5156,64.2422 Q789.5156,61.1172 790.8281,59.4609 Q792.1563,57.8047 794.6563,57.8047 Q795.3594,57.8047 796,57.9609 Q796.6563,58.1172 797.2188,58.4141 L797.2188,61.1328 Q796.5938,60.5547 796,60.2891 Q795.4063,60.0078 794.7813,60.0078 Q793.4375,60.0078 792.75,61.0859 Q792.0625,62.1484 792.0625,64.2422 Q792.0625,66.3359 792.75,67.4141 Q793.4375,68.4766 794.7813,68.4766 Q795.4063,68.4766 796,68.2109 Q796.5938,67.9297 797.2188,67.3516 L797.2188,70.0703 Z " fill="#000000"/><text fill="#000000" font-family="sans-serif" font-size="12" font-style="italic" lengthAdjust="spacing" textLength="59.6543" x="823.1777" y="60.4355">&#171;module&#187;</text><text fill="#000000" font-family="sans-serif" font-size="14" lengthAdjust="spacing" textLength="89.5098" x="808.25" y="76.2607">CreateScene</text><line style="stroke:#181818;stroke-width:0.5;" x1="780.25" x2="899.7598" y1="84.5625" y2="84.5625"/><line style="stroke:#181818;stroke-width:0.5;" x1="780.25" x2="899.7598" y1="92.5625" y2="92.5625"/></g><!--link CreateScene to InfoFunkoPanel--><g class="link" data-entity-1="ent0002" data-entity-2="ent0007" data-link-type="dependency" data-source-line="42" id="lnk12"><path codeLine="42" d="M779.05,81.2369 C754.18,86.3569 725.94,94.7769 703,108.5669 C667.17,130.1069 639.393,161.0491 618.013,189.5191" fill="none" id="CreateScene-to-InfoFunkoPanel" style="stroke:#181818;stroke-width:1;"/><polygon fill="#181818" points="614.41,194.3169,623.013,189.5222,617.4125,190.3187,616.6159,184.7182,614.41,194.3169" style="stroke:#181818;stroke-width:1;"/></g><!--link InfoFunkoPanel to TittlePanel--><g class="link" data-entity-1="ent0007" data-entity-2="ent0008" data-link-type="dependency" data-source-line="43" id="lnk13"><path codeLine="43" d="M471.09,266.3269 C396.63,284.8369 297.82,311.8769 213,343.4269 C206.71,345.7669 205.7784,346.0117 199.3584,348.7517" fill="none" id="InfoFunkoPanel-to-TittlePanel" style="stroke:#181818;stroke-width:1;"/><polygon fill="#181818" points="193.84,351.1069,203.6878,351.253,198.4387,349.1442,200.5475,343.8951,193.84,351.1069" style="stroke:#181818;stroke-width:1;"/></g><!--link InfoFunkoPanel to DataPanel--><g class="link" data-entity-1="ent0007" data-entity-2="ent0009" data-link-type="dependency" data-source-line="44" id="lnk14"><path codeLine="44" d="M508.84,283.8569 C471.56,305.3269 432.4598,327.8532 397.2698,348.1132" fill="none" id="InfoFunkoPanel-to-DataPanel" style="stroke:#181818;stroke-width:1;"/><polygon fill="#181818" points="392.07,351.1069,401.8655,350.0829,396.4032,348.6121,397.8739,343.1498,392.07,351.1069" style="stroke:#181818;stroke-width:1;"/></g><!--link DataPanel to UIHelpers--><g class="link" data-entity-1="ent0009" data-entity-2="ent0004" data-link-type="dependency" data-source-line="45" id="lnk15"><path codeLine="45" d="M330,424.5769 C330,445.2869 330,465.2769 330,485.9669" fill="none" id="DataPanel-to-UIHelpers" style="stroke:#181818;stroke-width:1;"/><polygon fill="#181818" points="330,491.9669,334,482.9669,330,486.9669,326,482.9669,330,491.9669" style="stroke:#181818;stroke-width:1;"/></g><!--link InfoFunkoPanel to DescriptionPanel--><g class="link" data-entity-1="ent0007" data-entity-2="ent0010" data-link-type="dependency" data-source-line="46" id="lnk16"><path codeLine="46" d="M585,283.6569 C585,305.3069 585,325.1069 585,345.4869" fill="none" id="InfoFunkoPanel-to-DescriptionPanel" style="stroke:#181818;stroke-width:1;"/><polygon fill="#181818" points="585,351.4869,589,342.4869,585,346.4869,581,342.4869,585,351.4869" style="stroke:#181818;stroke-width:1;"/></g><!--link InfoFunkoPanel to GalleryPanel--><g class="link" data-entity-1="ent0007" data-entity-2="ent0011" data-link-type="dependency" data-source-line="47" id="lnk17"><path codeLine="47" d="M663.55,283.8569 C697,302.5369 730.7018,321.3509 764.1618,340.0409" fill="none" id="InfoFunkoPanel-to-GalleryPanel" style="stroke:#181818;stroke-width:1;"/><polygon fill="#181818" points="769.4,342.9669,763.4933,335.0858,765.0348,340.5286,759.5921,342.0701,769.4,342.9669" style="stroke:#181818;stroke-width:1;"/></g><!--link CreateScene to BtnReturn--><g class="link" data-entity-1="ent0002" data-entity-2="ent0005" data-link-type="dependency" data-source-line="48" id="lnk18"><path codeLine="48" d="M901.22,82.4669 C924.5,87.7169 950.56,95.9069 972,108.5669 C1008.71,130.2469 1037.8926,161.101 1060.5726,189.461" fill="none" id="CreateScene-to-BtnReturn" style="stroke:#181818;stroke-width:1;"/><polygon fill="#181818" points="1064.32,194.1469,1061.8229,184.6198,1061.1972,190.242,1055.575,189.6163,1064.32,194.1469" style="stroke:#181818;stroke-width:1;"/></g><!--link BtnReturn to GalleryPanel--><g class="link" data-entity-1="ent0005" data-entity-2="ent0011" data-link-type="dependency" data-source-line="49" id="lnk19"><path codeLine="49" d="M1021.93,283.8569 C990.38,302.5369 958.8322,321.2188 927.2822,339.9088" fill="none" id="BtnReturn-to-GalleryPanel" style="stroke:#181818;stroke-width:1;"/><polygon fill="#181818" points="922.12,342.9669,931.902,341.8213,926.4218,340.4185,927.8246,334.9383,922.12,342.9669" style="stroke:#181818;stroke-width:1;"/></g><!--SRC=[XP9DQiCm48NtEiMGbKtZ6mGlqj3Mq4M9wmCeyYGHKMHZIKrBoTqhLR5i_8CD0ZFppPlHqsYk1SAEqrD3hnHA12QeGWK9vEQWkD9emqL6Y8ihU6wGQimPIeJDvbgLHc2Q4b9JTg4dX5MHhU2N403F5zaRYXeRrQDj7kptnFwrtka1nRwwHSBzhE6B2eEn9UwTobRBFMhJo5aLdzuQhIiPAJTUxDEcBeVf81w6vl9OVL29uZ5xspUpyHSZBpuvRcxrrRcwPMsvxxo6ewk9M-JCI-mG7xxtstnoRLzXleU_egSYUnqweR6puIK5n-J8DBScpCcWOWsl7RAerg6jgCPlFI7wIeN0vcT9y86D9tI4g5GB10lTiOtwEvaawU3LoE0H7T4pV2eTl2ITgouUbdcoQE3S5DCtOZHsM7BIhVkmw0y0]--></g></svg>