<svg xmlns="http://www.w3.org/2000/svg" xmlns:xlink="http://www.w3.org/1999/xlink" contentStyleType="text/css" data-diagram-type="CLASS" height="421px" preserveAspectRatio="none" style="width:386px;height:421px;background:#FFFFFF;" version="1.1" viewBox="0 0 386 421" width="386px" zoomAndPan="magnify"><title>Diagrama de clases - Subsistema XR</title><defs/><g><g class="title" data-source-line="1"><text fill="#000000" font-family="sans-serif" font-size="14" font-weight="bold" lengthAdjust="spacing" textLength="288.0117" x="41.9941" y="22.9951">Diagrama de clases - Subsistema XR</text></g><!--cluster xr--><g class="cluster" data-entity="xr" data-source-line="5" data-uid="ent0003" id="cluster_xr"><path d="M8.5,125.5569 L25.4346,125.5569 A3.75,3.75 0 0 1 27.9346,128.0569 L34.9346,147.8538 L376.5,147.8538 A2.5,2.5 0 0 1 379,150.3538 L379,411.7769 A2.5,2.5 0 0 1 376.5,414.2769 L8.5,414.2769 A2.5,2.5 0 0 1 6,411.7769 L6,128.0569 A2.5,2.5 0 0 1 8.5,125.5569" fill="none" style="stroke:#000000;stroke-width:1.5;"/><line style="stroke:#000000;stroke-width:1.5;" x1="6" x2="34.9346" y1="147.8538" y2="147.8538"/><text fill="#000000" font-family="sans-serif" font-size="14" font-weight="bold" lengthAdjust="spacing" textLength="15.9346" x="10" y="140.552">xr</text></g><!--class XRController--><g class="entity" data-entity="XRController" data-source-line="6" data-uid="ent0004" id="entity_XRController"><rect fill="#F1F1F1" height="105.1563" rx="2.5" ry="2.5" style="stroke:#181818;stroke-width:0.5;" width="120.4912" x="126.75" y="160.5569"/><ellipse cx="141.75" cy="180.6897" fill="#ADD1B2" rx="11" ry="11" style="stroke:#181818;stroke-width:1;"/><path d="M144.7188,186.3303 Q144.1406,186.6272 143.5,186.7678 Q142.8594,186.9241 142.1563,186.9241 Q139.6563,186.9241 138.3281,185.2834 Q137.0156,183.6272 137.0156,180.5022 Q137.0156,177.3772 138.3281,175.7209 Q139.6563,174.0647 142.1563,174.0647 Q142.8594,174.0647 143.5,174.2209 Q144.1563,174.3772 144.7188,174.6741 L144.7188,177.3928 Q144.0938,176.8147 143.5,176.5491 Q142.9063,176.2678 142.2813,176.2678 Q140.9375,176.2678 140.25,177.3459 Q139.5625,178.4084 139.5625,180.5022 Q139.5625,182.5959 140.25,183.6741 Q140.9375,184.7366 142.2813,184.7366 Q142.9063,184.7366 143.5,184.4709 Q144.0938,184.1897 144.7188,183.6116 L144.7188,186.3303 Z " fill="#000000"/><text fill="#000000" font-family="sans-serif" font-size="12" font-style="italic" lengthAdjust="spacing" textLength="59.6543" x="170.1685" y="176.6955">&#171;module&#187;</text><text fill="#000000" font-family="sans-serif" font-size="14" lengthAdjust="spacing" textLength="88.4912" x="155.75" y="192.5207">XRController</text><line style="stroke:#181818;stroke-width:0.5;" x1="127.75" x2="246.2412" y1="200.8225" y2="200.8225"/><line style="stroke:#181818;stroke-width:0.5;" x1="127.75" x2="246.2412" y1="208.8225" y2="208.8225"/><g data-visibility-modifier="PUBLIC_METHOD"><ellipse cx="137.75" cy="222.4709" fill="#84BE84" rx="3" ry="3" style="stroke:#038048;stroke-width:1;"/></g><text fill="#000000" font-family="sans-serif" font-size="14" lengthAdjust="spacing" textLength="93.4746" x="146.75" y="225.8176">initXR(scene)</text><g data-visibility-modifier="PUBLIC_METHOD"><ellipse cx="137.75" cy="238.7678" fill="#84BE84" rx="3" ry="3" style="stroke:#038048;stroke-width:1;"/></g><text fill="#000000" font-family="sans-serif" font-size="14" lengthAdjust="spacing" textLength="67.5869" x="146.75" y="242.1145">enterXR()</text><g data-visibility-modifier="PUBLIC_METHOD"><ellipse cx="137.75" cy="255.0647" fill="#84BE84" rx="3" ry="3" style="stroke:#038048;stroke-width:1;"/></g><text fill="#000000" font-family="sans-serif" font-size="14" lengthAdjust="spacing" textLength="56.5195" x="146.75" y="258.4114">exitXR()</text></g><!--class XRInputHandler--><g class="entity" data-entity="XRInputHandler" data-source-line="12" data-uid="ent0005" id="entity_XRInputHandler"><rect fill="#F1F1F1" height="72.5625" rx="2.5" ry="2.5" style="stroke:#181818;stroke-width:0.5;" width="142.6943" x="21.65" y="325.7169"/><ellipse cx="36.65" cy="345.8497" fill="#ADD1B2" rx="11" ry="11" style="stroke:#181818;stroke-width:1;"/><path d="M39.6188,351.4903 Q39.0406,351.7872 38.4,351.9278 Q37.7594,352.0841 37.0563,352.0841 Q34.5563,352.0841 33.2281,350.4434 Q31.9156,348.7872 31.9156,345.6622 Q31.9156,342.5372 33.2281,340.8809 Q34.5563,339.2247 37.0563,339.2247 Q37.7594,339.2247 38.4,339.3809 Q39.0563,339.5372 39.6188,339.8341 L39.6188,342.5528 Q38.9938,341.9747 38.4,341.7091 Q37.8063,341.4278 37.1813,341.4278 Q35.8375,341.4278 35.15,342.5059 Q34.4625,343.5684 34.4625,345.6622 Q34.4625,347.7559 35.15,348.8341 Q35.8375,349.8966 37.1813,349.8966 Q37.8063,349.8966 38.4,349.6309 Q38.9938,349.3497 39.6188,348.7716 L39.6188,351.4903 Z " fill="#000000"/><text fill="#000000" font-family="sans-serif" font-size="12" font-style="italic" lengthAdjust="spacing" textLength="59.6543" x="76.17" y="341.8555">&#171;module&#187;</text><text fill="#000000" font-family="sans-serif" font-size="14" lengthAdjust="spacing" textLength="110.6943" x="50.65" y="357.6807">XRInputHandler</text><line style="stroke:#181818;stroke-width:0.5;" x1="22.65" x2="163.3443" y1="365.9825" y2="365.9825"/><line style="stroke:#181818;stroke-width:0.5;" x1="22.65" x2="163.3443" y1="373.9825" y2="373.9825"/><g data-visibility-modifier="PUBLIC_METHOD"><ellipse cx="32.65" cy="387.6309" fill="#84BE84" rx="3" ry="3" style="stroke:#038048;stroke-width:1;"/></g><text fill="#000000" font-family="sans-serif" font-size="14" lengthAdjust="spacing" textLength="101.2813" x="41.65" y="390.9776">processInput()</text></g><!--class XRHelpers--><g class="entity" data-entity="XRHelpers" data-source-line="16" data-uid="ent0006" id="entity_XRHelpers"><rect fill="#F1F1F1" height="72.5625" rx="2.5" ry="2.5" style="stroke:#181818;stroke-width:0.5;" width="164.2773" x="198.86" y="325.7169"/><ellipse cx="240.5805" cy="345.8497" fill="#ADD1B2" rx="11" ry="11" style="stroke:#181818;stroke-width:1;"/><path d="M243.5493,351.4903 Q242.9711,351.7872 242.3305,351.9278 Q241.6899,352.0841 240.9868,352.0841 Q238.4868,352.0841 237.1586,350.4434 Q235.8461,348.7872 235.8461,345.6622 Q235.8461,342.5372 237.1586,340.8809 Q238.4868,339.2247 240.9868,339.2247 Q241.6899,339.2247 242.3305,339.3809 Q242.9868,339.5372 243.5493,339.8341 L243.5493,342.5528 Q242.9243,341.9747 242.3305,341.7091 Q241.7368,341.4278 241.1118,341.4278 Q239.768,341.4278 239.0805,342.5059 Q238.393,343.5684 238.393,345.6622 Q238.393,347.7559 239.0805,348.8341 Q239.768,349.8966 241.1118,349.8966 Q241.7368,349.8966 242.3305,349.6309 Q242.9243,349.3497 243.5493,348.7716 L243.5493,351.4903 Z " fill="#000000"/><text fill="#000000" font-family="sans-serif" font-size="12" font-style="italic" lengthAdjust="spacing" textLength="59.6543" x="267.1405" y="341.8555">&#171;module&#187;</text><text fill="#000000" font-family="sans-serif" font-size="14" lengthAdjust="spacing" textLength="72.8984" x="260.5184" y="357.6807">XRHelpers</text><line style="stroke:#181818;stroke-width:0.5;" x1="199.86" x2="362.1373" y1="365.9825" y2="365.9825"/><line style="stroke:#181818;stroke-width:0.5;" x1="199.86" x2="362.1373" y1="373.9825" y2="373.9825"/><g data-visibility-modifier="PUBLIC_METHOD"><ellipse cx="209.86" cy="387.6309" fill="#84BE84" rx="3" ry="3" style="stroke:#038048;stroke-width:1;"/></g><text fill="#000000" font-family="sans-serif" font-size="14" lengthAdjust="spacing" textLength="138.2773" x="218.86" y="390.9776">configureFeatures()</text></g><!--class CreateScene--><g class="entity" data-entity="CreateScene" data-source-line="3" data-uid="ent0002" id="entity_CreateScene"><rect fill="#F1F1F1" height="56.2656" rx="2.5" ry="2.5" style="stroke:#181818;stroke-width:0.5;" width="121.5098" x="126.25" y="44.2969"/><ellipse cx="141.25" cy="64.4297" fill="#ADD1B2" rx="11" ry="11" style="stroke:#181818;stroke-width:1;"/><path d="M144.2188,70.0703 Q143.6406,70.3672 143,70.5078 Q142.3594,70.6641 141.6563,70.6641 Q139.1563,70.6641 137.8281,69.0234 Q136.5156,67.3672 136.5156,64.2422 Q136.5156,61.1172 137.8281,59.4609 Q139.1563,57.8047 141.6563,57.8047 Q142.3594,57.8047 143,57.9609 Q143.6563,58.1172 144.2188,58.4141 L144.2188,61.1328 Q143.5938,60.5547 143,60.2891 Q142.4063,60.0078 141.7813,60.0078 Q140.4375,60.0078 139.75,61.0859 Q139.0625,62.1484 139.0625,64.2422 Q139.0625,66.3359 139.75,67.4141 Q140.4375,68.4766 141.7813,68.4766 Q142.4063,68.4766 143,68.2109 Q143.5938,67.9297 144.2188,67.3516 L144.2188,70.0703 Z " fill="#000000"/><text fill="#000000" font-family="sans-serif" font-size="12" font-style="italic" lengthAdjust="spacing" textLength="59.6543" x="170.1777" y="60.4355">&#171;module&#187;</text><text fill="#000000" font-family="sans-serif" font-size="14" lengthAdjust="spacing" textLength="89.5098" x="155.25" y="76.2607">CreateScene</text><line style="stroke:#181818;stroke-width:0.5;" x1="127.25" x2="246.7598" y1="84.5625" y2="84.5625"/><line style="stroke:#181818;stroke-width:0.5;" x1="127.25" x2="246.7598" y1="92.5625" y2="92.5625"/></g><!--link CreateScene to XRController--><g class="link" data-entity-1="CreateScene" data-entity-2="XRController" data-source-line="21" data-uid="lnk7" id="link_CreateScene_XRController"><path codeLine="21" d="M187,100.8269 C187,117.7269 187,133.9469 187,154.0769" fill="none" id="CreateScene-to-XRController" style="stroke:#181818;stroke-width:1;"/><polygon fill="#181818" points="187,160.0769,191,151.0769,187,155.0769,183,151.0769,187,160.0769" style="stroke:#181818;stroke-width:1;"/></g><!--link XRController to XRInputHandler--><g class="link" data-entity-1="XRController" data-entity-2="XRInputHandler" data-source-line="22" data-uid="lnk8" id="link_XRController_XRInputHandler"><path codeLine="22" d="M153.86,265.9169 C141.28,285.5669 130.4728,302.4423 119.0628,320.2823" fill="none" id="XRController-to-XRInputHandler" style="stroke:#181818;stroke-width:1;"/><polygon fill="#181818" points="115.83,325.3369,124.0489,319.9102,118.524,321.1247,117.3095,315.5998,115.83,325.3369" style="stroke:#181818;stroke-width:1;"/></g><!--link XRController to XRHelpers--><g class="link" data-entity-1="XRController" data-entity-2="XRHelpers" data-source-line="23" data-uid="lnk9" id="link_XRController_XRHelpers"><path codeLine="23" d="M220.14,265.9169 C232.72,285.5669 243.5272,302.4423 254.9372,320.2823" fill="none" id="XRController-to-XRHelpers" style="stroke:#181818;stroke-width:1;"/><polygon fill="#181818" points="258.17,325.3369,256.6905,315.5998,255.476,321.1247,249.9511,319.9102,258.17,325.3369" style="stroke:#181818;stroke-width:1;"/></g><!--SRC=[TP312i8m44Jl-Oh5aoBz0-cb8dfjBxt6T2p1c9JT50JntqrRqHPqBu6tixERYJOwqDxgblLDKmCoJWk4CghwirY9IBWkbHguKC7G4PM11-rsjz3q3dckLAVDLRUWrPrNz52KQXgeooBuoC4vy6pYhHbgQxsDTRcMmNJpnV0HdFWStKVbH9vgiURakpuUjM_-B-eu68YCojycHxWEB7_cJV0Ns_QCGmeXFV8nIJRpPB8iNtnSBLAOklDxV_NVfxm0]--></g></svg>