<svg xmlns="http://www.w3.org/2000/svg" xmlns:xlink="http://www.w3.org/1999/xlink" contentStyleType="text/css" data-diagram-type="DESCRIPTION" height="197px" preserveAspectRatio="none" style="width:1689px;height:197px;background:#FFFFFF;" version="1.1" viewBox="0 0 1689 197" width="1689px" zoomAndPan="magnify"><defs/><g><!--entity Usuario--><g class="entity" data-entity="Usuario" data-source-line="1" data-uid="ent0002" id="entity_Usuario"><ellipse cx="829.6221" cy="14" fill="#F1F1F1" rx="8" ry="8" style="stroke:#181818;stroke-width:0.5;"/><path d="M829.6221,22 L829.6221,49 M816.6221,30 L842.6221,30 M829.6221,49 L816.6221,64 M829.6221,49 L842.6221,64" fill="none" style="stroke:#181818;stroke-width:0.5;"/><text fill="#000000" font-family="sans-serif" font-size="14" lengthAdjust="spacing" textLength="53.2041" x="803.02" y="78.4951">Usuario</text></g><!--entity Iniciar aplicaci?n--><g class="entity" data-entity="Iniciar aplicaci.n" data-source-line="3" data-uid="ent0003" id="entity_Iniciar aplicaci.n"><ellipse cx="80.6223" cy="166.8745" fill="#F1F1F1" rx="74.6223" ry="17.3245" style="stroke:#181818;stroke-width:0.5;"/><text fill="#000000" font-family="sans-serif" font-size="14" lengthAdjust="spacing" textLength="117.8105" x="21.717" y="171.5229">Iniciar aplicaci&#243;n</text></g><!--entity Visualizar entorno 3D--><g class="entity" data-entity="Visualizar entorno 3D" data-source-line="4" data-uid="ent0005" id="entity_Visualizar entorno 3D"><ellipse cx="278.621" cy="166.8682" fill="#F1F1F1" rx="88.791" ry="20.1582" style="stroke:#181818;stroke-width:0.5;"/><text fill="#000000" font-family="sans-serif" font-size="14" lengthAdjust="spacing" textLength="150.999" x="203.1215" y="171.5166">Visualizar entorno 3D</text></g><!--entity Moverse por la habitaci?n--><g class="entity" data-entity="Moverse por la habitaci.n" data-source-line="5" data-uid="ent0007" id="entity_Moverse por la habitaci.n"><ellipse cx="504.6215" cy="166.8703" fill="#F1F1F1" rx="102.5015" ry="22.9003" style="stroke:#181818;stroke-width:0.5;"/><text fill="#000000" font-family="sans-serif" font-size="14" lengthAdjust="spacing" textLength="181.5557" x="413.8436" y="171.5187">Moverse por la habitaci&#243;n</text></g><!--entity Seleccionar Funko--><g class="entity" data-entity="Seleccionar Funko" data-source-line="6" data-uid="ent0009" id="entity_Seleccionar Funko"><ellipse cx="720.6204" cy="166.8721" fill="#F1F1F1" rx="78.8604" ry="18.1721" style="stroke:#181818;stroke-width:0.5;"/><text fill="#000000" font-family="sans-serif" font-size="14" lengthAdjust="spacing" textLength="127.9824" x="656.6292" y="171.5205">Seleccionar Funko</text></g><!--entity Ver informaci?n del Funko--><g class="entity" data-entity="Ver informaci.n del Funko" data-source-line="7" data-uid="ent0011" id="entity_Ver informaci.n del Funko"><ellipse cx="938.6166" cy="166.8713" fill="#F1F1F1" rx="103.8066" ry="23.1613" style="stroke:#181818;stroke-width:0.5;"/><text fill="#000000" font-family="sans-serif" font-size="14" lengthAdjust="spacing" textLength="184.4131" x="846.4101" y="171.5198">Ver informaci&#243;n del Funko</text></g><!--entity Interactuar con el modelo 3D--><g class="entity" data-entity="Interactuar con el modelo 3D" data-source-line="8" data-uid="ent0013" id="entity_Interactuar con el modelo 3D"><ellipse cx="1190.6157" cy="166.8711" fill="#F1F1F1" rx="113.3557" ry="25.0711" style="stroke:#181818;stroke-width:0.5;"/><text fill="#000000" font-family="sans-serif" font-size="14" lengthAdjust="spacing" textLength="205.1191" x="1088.0562" y="171.5196">Interactuar con el modelo 3D</text></g><!--entity Cerrar informaci?n--><g class="entity" data-entity="Cerrar informaci.n" data-source-line="9" data-uid="ent0015" id="entity_Cerrar informaci.n"><ellipse cx="1419.6171" cy="166.8674" fill="#F1F1F1" rx="80.5371" ry="18.5074" style="stroke:#181818;stroke-width:0.5;"/><text fill="#000000" font-family="sans-serif" font-size="14" lengthAdjust="spacing" textLength="131.9404" x="1353.6468" y="171.5158">Cerrar informaci&#243;n</text></g><!--entity Activar modo XR--><g class="entity" data-entity="Activar modo XR" data-source-line="10" data-uid="ent0017" id="entity_Activar modo XR"><ellipse cx="1609.6199" cy="166.87" fill="#F1F1F1" rx="74.3499" ry="17.27" style="stroke:#181818;stroke-width:0.5;"/><text fill="#000000" font-family="sans-serif" font-size="14" lengthAdjust="spacing" textLength="117.1475" x="1551.0462" y="171.5184">Activar modo XR</text></g><!--link Usuario to Iniciar aplicaci?n--><g class="link" data-entity-1="Usuario" data-entity-2="Iniciar aplicaci.n" data-source-line="3" data-uid="lnk4" id="link_Usuario_Iniciar aplicaci.n"><path d="M802.53,47.58 C712.44,57.56 414.95,92.33 172.62,141.8 C157.42,144.9 146.7689,147.4297 132.0489,151.3397" fill="none" id="Usuario-to-Iniciar aplicaci&#243;n" style="stroke:#181818;stroke-width:1;"/><polygon fill="#181818" points="126.25,152.88,135.9753,154.4354,131.0824,151.5964,133.9215,146.7036,126.25,152.88" style="stroke:#181818;stroke-width:1;"/></g><!--link Usuario to Visualizar entorno 3D--><g class="link" data-entity-1="Usuario" data-entity-2="Visualizar entorno 3D" data-source-line="4" data-uid="lnk6" id="link_Usuario_Visualizar entorno 3D"><path d="M802.77,50.43 C733.49,65.36 543.05,106.52 384.62,141.8 C370.07,145.04 360.2611,147.2415 345.5511,150.5815" fill="none" id="Usuario-to-Visualizar entorno 3D" style="stroke:#181818;stroke-width:1;"/><polygon fill="#181818" points="339.7,151.91,349.3623,153.8179,344.5759,150.8029,347.5909,146.0165,339.7,151.91" style="stroke:#181818;stroke-width:1;"/></g><!--link Usuario to Moverse por la habitaci?n--><g class="link" data-entity-1="Usuario" data-entity-2="Moverse por la habitaci.n" data-source-line="5" data-uid="lnk8" id="link_Usuario_Moverse por la habitaci.n"><path d="M802.75,54.67 C748.68,74.84 631.5919,118.5137 561.6219,144.6037" fill="none" id="Usuario-to-Moverse por la habitaci&#243;n" style="stroke:#181818;stroke-width:1;"/><polygon fill="#181818" points="556,146.7,565.8303,147.3035,560.6849,144.9531,563.0353,139.8077,556,146.7" style="stroke:#181818;stroke-width:1;"/></g><!--link Usuario to Seleccionar Funko--><g class="link" data-entity-1="Usuario" data-entity-2="Seleccionar Funko" data-source-line="6" data-uid="lnk10" id="link_Usuario_Seleccionar Funko"><path d="M802.68,74.61 C781.75,97.89 757.4717,124.8884 740.1717,144.1284" fill="none" id="Usuario-to-Seleccionar Funko" style="stroke:#181818;stroke-width:1;"/><polygon fill="#181818" points="736.16,148.59,745.152,144.5721,739.5031,144.872,739.2032,139.2231,736.16,148.59" style="stroke:#181818;stroke-width:1;"/></g><!--link Usuario to Ver informaci?n del Funko--><g class="link" data-entity-1="Usuario" data-entity-2="Ver informaci.n del Funko" data-source-line="7" data-uid="lnk12" id="link_Usuario_Ver informaci.n del Funko"><path d="M856.57,74.61 C875.86,96.07 897.3889,120.0078 914.8189,139.3978" fill="none" id="Usuario-to-Ver informaci&#243;n del Funko" style="stroke:#181818;stroke-width:1;"/><polygon fill="#181818" points="918.83,143.86,915.7881,134.4927,915.4874,140.1415,909.8385,139.8408,918.83,143.86" style="stroke:#181818;stroke-width:1;"/></g><!--link Usuario to Interactuar con el modelo 3D--><g class="link" data-entity-1="Usuario" data-entity-2="Interactuar con el modelo 3D" data-source-line="8" data-uid="lnk14" id="link_Usuario_Interactuar con el modelo 3D"><path d="M856.46,53.66 C913.9,72.95 1044.2821,116.73 1123.9421,143.48" fill="none" id="Usuario-to-Interactuar con el modelo 3D" style="stroke:#181818;stroke-width:1;"/><polygon fill="#181818" points="1129.63,145.39,1122.3715,138.7331,1124.8901,143.7983,1119.8249,146.3169,1129.63,145.39" style="stroke:#181818;stroke-width:1;"/></g><!--link Usuario to Cerrar informaci?n--><g class="link" data-entity-1="Usuario" data-entity-2="Cerrar informaci.n" data-source-line="9" data-uid="lnk16" id="link_Usuario_Cerrar informaci.n"><path d="M856.65,49.53 C931.03,63.08 1145.02,102.69 1321.62,141.8 C1336.42,145.07 1346.5734,147.4481 1361.2634,151.0581" fill="none" id="Usuario-to-Cerrar informaci&#243;n" style="stroke:#181818;stroke-width:1;"/><polygon fill="#181818" points="1367.09,152.49,1359.3046,146.4578,1362.2345,151.2968,1357.3955,154.2266,1367.09,152.49" style="stroke:#181818;stroke-width:1;"/></g><!--link Usuario to Activar modo XR--><g class="link" data-entity-1="Usuario" data-entity-2="Activar modo XR" data-source-line="10" data-uid="lnk18" id="link_Usuario_Activar modo XR"><path d="M856.7,47.33 C949.45,56.77 1262.75,90.64 1517.62,141.8 C1532.84,144.85 1543.4811,147.3697 1558.2011,151.2797" fill="none" id="Usuario-to-Activar modo XR" style="stroke:#181818;stroke-width:1;"/><polygon fill="#181818" points="1564,152.82,1556.3285,146.6436,1559.1676,151.5364,1554.2747,154.3754,1564,152.82" style="stroke:#181818;stroke-width:1;"/></g><!--SRC=[RSwn2i90383XlK-HqGwTt0LHX0ukYk8QOyJWDIdfjOElvIFuOWPqQUbsTtpt9qZP74vTZovM5Fy3LDKA5hKA2JfWcuIGvFFMSYpE4hSahq2i4LA3vNPYzZQmTmnjp4a83xnAdeqTEJ6Hc4Pjr-lJfiFOGVHktlo-mutJBAmrioFbU08oXM2D1PvPRiFkECvEn9go346YO70vb5y0]--></g></svg>